<?xml version="1.0" encoding="UTF-8" standalone="no"?>
<svg
   xmlns:dc="http://purl.org/dc/elements/1.1/"
   xmlns:cc="http://creativecommons.org/ns#"
   xmlns:rdf="http://www.w3.org/1999/02/22-rdf-syntax-ns#"
   xmlns:svg="http://www.w3.org/2000/svg"
   xmlns="http://www.w3.org/2000/svg"
   version="1.1"
   id="svg2"
   xml:space="preserve"
   width="1182.72"
   height="370.55997"
   viewBox="0 0 1182.72 370.55997"><metadata
     id="metadata8"><rdf:RDF><cc:Work
         rdf:about=""><dc:format>image/svg+xml</dc:format><dc:type
           rdf:resource="http://purl.org/dc/dcmitype/StillImage" /></cc:Work></rdf:RDF></metadata><defs
     id="defs6"><clipPath
       clipPathUnits="userSpaceOnUse"
       id="clipPath18"><path
         d="M 0,0 H 3695.833 V 1148.0162 H 0 Z"
         clip-rule="evenodd"
         id="path16" /></clipPath></defs><g
     id="g10"
     transform="matrix(0.31999998,0,0,0.31999998,0,5.930666e-6)"><g
       id="g12"><g
         id="g14"
         clip-path="url(#clipPath18)"><g
           id="g20"
           transform="matrix(2.9974315,0,0,2.9974315,1.4987158,1.4987158)"><path
             d="M 21,1 H 1231 V 351 H 21 Z"
             style="fill:#e2e9ed;fill-opacity:1;fill-rule:nonzero;stroke:none"
             id="path22" /><path
             d="M 21,1 H 1231 V 351 H 21 Z"
             style="fill:none;stroke:#000000;stroke-width:1;stroke-linecap:butt;stroke-linejoin:miter;stroke-miterlimit:10;stroke-dasharray:none;stroke-opacity:1"
             id="path24" /><path
             d="M 1,367.22 V 299.79999 L 37.25,291 l 30.379997,9.06 v 68.16 l -35.739998,8.29999 z"
             style="fill:#abb4c5;fill-opacity:1;fill-rule:nonzero;stroke:none"
             id="path26" /><path
             d="M 1,299.79999 37.25,291 l 30.379997,9.06 -35.739998,8.54999 z"
             style="fill:#b8bfd1;fill-opacity:1;fill-rule:nonzero;stroke:none"
             id="path28" /><path
             d="M 31.889999,308.60999 67.629997,300.06 v 68.16 l -35.739998,8.29999 z"
             style="fill:#5b6369;fill-opacity:1;fill-rule:nonzero;stroke:none"
             id="path30" /><path
             d="m 32.25,345.67999 c -6.66,-2.51999 -13.02,-5.72 -19,-9.54999 -2.87,-1.95999 -5.3000002,-4.48001 -7.1399999,-7.39999 -1.2699999,-2.28 -1.9300003,-4.84 -1.8900003,-7.44 -0.1099997,-2.81 -0.06,-5.61002 0.1500001,-8.41001 C 4.52,310.39001 4.79,307.91 5.1900001,305.44 c 0.3699998,-1.36001 0.94,-2.67001 1.6799998,-3.88 C 8.4200001,300.53 10.18,299.69 12.08,299.04999 c 3.23,-1.09 6.52,-2.00998 9.85,-2.76999 3.47,-0.91 7.010001,-1.57999 10.57,-2.01001 2.419998,-0.29999 4.869999,-0.37998 7.299999,-0.25 3.970001,0.28 7.869999,1.12002 11.59,2.51001 l 12.100003,4.38 c 1.060001,1.73999 1.759998,3.66999 2.049999,5.69001 0.330002,2.69998 0.519997,5.41998 0.559997,8.14999 0.190003,6 0.02,12.01999 -0.510002,18.01001 -0.07,2.63998 -0.979995,5.19 -2.609996,7.28998 -2.360001,2.57001 -5.55,4.26001 -9.029999,4.78 -2.790001,0.43002 -5.610001,0.63 -8.430001,0.6 z"
             style="fill:#ffffff;fill-opacity:0.4;fill-rule:nonzero;stroke:none"
             id="path32" /><path
             d="m 4.5700002,310.12 v -1.76001 l 23.2299988,7.04 V 317.16 Z m 3.8299994,53.32 v -1.76001 l 14.3000014,4.03 V 367.47 Z"
             style="fill:#52595e;fill-opacity:1;fill-rule:nonzero;stroke:none"
             id="path34" /><path
             d="M 1,367.22 V 299.79999 L 37.25,291 l 30.379997,9.06 v 68.16 l -35.739998,8.29999 z"
             style="fill:none;stroke:#000000;stroke-width:1;stroke-linecap:butt;stroke-linejoin:miter;stroke-miterlimit:10;stroke-dasharray:none;stroke-opacity:1"
             id="path36" /><path
             d="m 48.43,350.88 c 1.220002,-4.1 8.060002,-7.13 16.110001,-7.13 8.049995,0 14.900001,3.03 16.110001,7.13 v 22.99 c -1.21,4.1 -8.060006,7.13 -16.110001,7.13 -8.049999,0 -14.889999,-3.03 -16.110001,-7.13 z"
             style="fill:#9ea5b5;fill-opacity:1;fill-rule:nonzero;stroke:none"
             id="path38" /><path
             d="m 48.43,350.88 c 1.220002,-4.1 8.060002,-7.13 16.110001,-7.13 8.049995,0 14.900001,3.03 16.110001,7.13 v 22.99 c -1.21,4.1 -8.060006,7.13 -16.110001,7.13 -8.049999,0 -14.889999,-3.03 -16.110001,-7.13 z"
             style="fill:none;stroke:#000000;stroke-width:1;stroke-linecap:butt;stroke-linejoin:miter;stroke-miterlimit:10;stroke-dasharray:none;stroke-opacity:1"
             id="path40" /><path
             d="m 80.610794,351.41998 c -8e-6,0.49845 -0.103195,0.9921 -0.30957,1.48099 -0.206383,0.48886 -0.511978,0.96356 -0.916802,1.42407 -0.404823,0.46051 -0.901092,0.89798 -1.488807,1.31244 -0.587708,0.41446 -1.255562,0.79794 -2.003571,1.15042 -0.748016,0.35245 -1.561806,0.66715 -2.441376,0.94406 -0.87957,0.27692 -1.808014,0.51075 -2.785339,0.70151 -0.977333,0.19077 -1.984756,0.33478 -3.02227,0.43204 -1.037522,0.0973 -2.085205,0.14587 -3.143059,0.14587 -1.057854,0 -2.105541,-0.0486 -3.143066,-0.14587 -1.037526,-0.0973 -2.044949,-0.24127 -3.022274,-0.43204 -0.97733,-0.19076 -1.905777,-0.42459 -2.785347,-0.70151 -0.879567,-0.27691 -1.693352,-0.59161 -2.441365,-0.94406 -0.748012,-0.35248 -1.415874,-0.73593 -2.003582,-1.15039 -0.587715,-0.41446 -1.083984,-0.85196 -1.488804,-1.31247 -0.404819,-0.46051 -0.710418,-0.93521 -0.916797,-1.4241 -0.206372,-0.48886 -0.309559,-0.98251 -0.309559,-1.48096 0,-0.4985 0.103187,-0.99218 0.309563,-1.48105 0.206375,-0.48889 0.511974,-0.96359 0.916793,-1.4241 0.40482,-0.46051 0.901085,-0.89798 1.488797,-1.31244 0.587711,-0.41446 1.255573,-0.79791 2.003585,-1.15036 0.748013,-0.35245 1.561802,-0.66714 2.441369,-0.94409 0.87957,-0.27692 1.808017,-0.51074 2.785347,-0.70151 0.977325,-0.19073 1.984752,-0.33471 3.022277,-0.43194 1.037522,-0.0973 2.085209,-0.14588 3.143063,-0.14588 1.057854,0 2.105537,0.0486 3.143059,0.14588 1.037514,0.0972 2.044937,0.24121 3.02227,0.43194 0.977325,0.19077 1.905769,0.42459 2.785339,0.70154 0.87957,0.27692 1.69336,0.59161 2.441384,0.94406 0.748008,0.35245 1.41587,0.7359 2.003578,1.15036 0.587707,0.41446 1.083969,0.85193 1.488792,1.31244 0.404824,0.46051 0.710419,0.93521 0.916802,1.4241 0.206375,0.48887 0.309562,0.98255 0.30957,1.48105 z"
             style="fill:#b7bfd1;fill-opacity:1;fill-rule:nonzero;stroke:none"
             id="path42" /><path
             d="M 49.619999,372.04999 49.720001,354.53 c 3.32,3.36001 11.09,5.13 18.589997,4.25 7.5,-0.88999 12.690002,-4.19 12.410003,-7.9 l -0.07,17.88001 c -0.160004,1.94998 -1.71,3.69 -4.07,4.56 -1.950005,0.61999 -4.440003,0.78 -6.700005,0.42999 -2.259994,-0.34 -4.009994,-1.14999 -4.689995,-2.16 -1.010001,-1.09 -3.030001,-1.85999 -5.4,-2.07001 -2.380001,-0.22 -4.82,0.15002 -6.540001,0.99002 z"
             style="fill:#ffffff;fill-opacity:0.4;fill-rule:nonzero;stroke:none"
             id="path44" /><path
             d="m 48.43,350.88 c 1.220002,-4.1 8.060002,-7.13 16.110001,-7.13 8.049995,0 14.900001,3.03 16.110001,7.13 v 22.99 c -1.21,4.1 -8.060006,7.13 -16.110001,7.13 -8.049999,0 -14.889999,-3.03 -16.110001,-7.13 z"
             style="fill:none;stroke:#000000;stroke-width:1;stroke-linecap:butt;stroke-linejoin:miter;stroke-miterlimit:10;stroke-dasharray:none;stroke-opacity:1"
             id="path46" /></g><g
           id="g48"
           transform="scale(2.9974315)"><text
             transform="translate(93,370)"
             style="font-variant:normal;font-weight:bold;font-size:12px;font-family:Arial;-inkscape-font-specification:Arial-BoldMT;writing-mode:lr-tb;fill:#000000;fill-opacity:1;fill-rule:nonzero;stroke:none"
             id="text52"><tspan
               x="0 8.6660156 15.996094 22.669922 30 40.669922 47.34375 54.673828 58.669922 65.34375 72.673828 80.003906 86.677734 93.351562 96.685547 103.35938 108.0293 112.02539 118.69922 122.0332 130.69922 137.37305 141.36914 148.04297 155.37305 162.70312 169.37695 176.70703 183.38086 186.71484 190.04883 196.04883 203.37891 214.04883 217.38281 226.04883 232.72266 236.05664 242.73047 250.06055 253.39453 260.06836 263.40234 266.73633 276.73242 284.0625 291.39258 298.72266 306.05273 314.71875"
               y="0"
               id="tspan50">Dokumentenbasierte Datenbank, zum Beispiel MongoDB</tspan></text></g><g
           id="g54"
           transform="matrix(2.9974315,0,0,2.9974315,1.4987158,1.4987158)"><path
             d="M 101,61 H 661 V 281 H 101 Z"
             style="fill:#f5f5f5;fill-opacity:1;fill-rule:nonzero;stroke:none"
             id="path56" /><path
             d="M 101,61 H 661 V 281 H 101 Z"
             style="fill:none;stroke:#666666;stroke-width:1;stroke-linecap:butt;stroke-linejoin:miter;stroke-miterlimit:10;stroke-dasharray:none;stroke-opacity:1"
             id="path58" /></g><g
           id="g60"
           transform="scale(2.9974315)"><text
             transform="translate(143,300)"
             style="font-variant:normal;font-weight:bold;font-size:12px;font-family:Arial;-inkscape-font-specification:Arial-BoldMT;writing-mode:lr-tb;fill:#000000;fill-opacity:1;fill-rule:nonzero;stroke:none"
             id="text64"><tspan
               x="0 8.6660156 15.339844 19.335938 26.009766 33.339844 40.669922 47.34375 54.673828"
               y="0"
               id="tspan62">Datenbank</tspan></text></g><g
           id="g66"
           transform="matrix(2.9974315,0,0,2.9974315,1.4987158,1.4987158)"><path
             d="M 121,81 H 421 V 261 H 121 Z"
             style="fill:#f0f3ff;fill-opacity:1;fill-rule:nonzero;stroke:none"
             id="path68" /><path
             d="M 121,81 H 421 V 261 H 121 Z"
             style="fill:none;stroke:#a9c4eb;stroke-width:1;stroke-linecap:butt;stroke-linejoin:miter;stroke-miterlimit:10;stroke-dasharray:none;stroke-opacity:1"
             id="path70" /><path
             d="M 121,111 H 421"
             style="fill:none;stroke:#a9c4eb;stroke-width:1;stroke-linecap:butt;stroke-linejoin:miter;stroke-miterlimit:10;stroke-dasharray:none;stroke-opacity:1"
             id="path72" /><path
             d="M 141,81 V 261"
             style="fill:none;stroke:#a9c4eb;stroke-width:1;stroke-linecap:butt;stroke-linejoin:miter;stroke-miterlimit:10;stroke-dasharray:none;stroke-opacity:1"
             id="path74" /></g><g
           id="g76"
           transform="scale(2.9974315)"><text
             transform="translate(149.5,100)"
             style="font-variant:normal;font-weight:bold;font-size:12px;font-family:Arial;-inkscape-font-specification:Arial-BoldMT;writing-mode:lr-tb;fill:#000000;fill-opacity:1;fill-rule:nonzero;stroke:none"
             id="text80"><tspan
               x="0 8.6660156 15.996094 19.330078 22.664062 29.337891 36.011719 40.007812 43.341797 50.671875"
               y="0"
               id="tspan78">Collection</tspan></text></g><g
           id="g82"
           transform="matrix(2.9974315,0,0,2.9974315,1.4987158,1.4987158)"><path
             d="M 160.55,203.21001 V 133.11999 L 167.78999,131 217.55,144.89999 v 71.61 l -5.72999,1.81002 z"
             style="fill:#ffffff;fill-opacity:1;fill-rule:nonzero;stroke:none"
             id="path84" /><path
             d="M 160.55,203.21001 V 133.11999 L 167.78999,131 217.55,144.89999 v 71.61 l -5.72999,1.81002 z"
             style="fill:none;stroke:#000000;stroke-width:1;stroke-linecap:butt;stroke-linejoin:miter;stroke-miterlimit:10;stroke-dasharray:none;stroke-opacity:1"
             id="path86" /><path
             d="m 160.55,203.21001 v -70.09002 l 51.27001,13.89 v 71.31002 z"
             style="fill:#e4e6ec;fill-opacity:1;fill-rule:nonzero;stroke:none"
             id="path88" /><path
             d="m 211.82001,147.00999 5.72999,-2.11 v 71.61 l -5.72999,1.81002 z"
             style="fill:#838da0;fill-opacity:1;fill-rule:nonzero;stroke:none"
             id="path90" /><path
             d="M 168.99001,147.92 202.17,157.28999 V 158.8 l -33.17999,-9.37001 z m 0,15.41 33.17999,9.37 v 1.51001 L 168.99001,164.84 Z m 0,15.11 33.17999,9.36 v 1.51 l -33.17999,-9.36 z m 0,15.09999 L 202.17,202.91 v 1.51 l -33.17999,-9.37 z"
             style="fill:#000000;fill-opacity:1;fill-rule:nonzero;stroke:none"
             id="path92" /><path
             d="M 160.55,203.21001 V 133.11999 L 167.78999,131 217.55,144.89999 v 71.61 l -5.72999,1.81002 z"
             style="fill:none;stroke:#000000;stroke-width:1;stroke-linecap:butt;stroke-linejoin:miter;stroke-miterlimit:10;stroke-dasharray:none;stroke-opacity:1"
             id="path94" /></g><g
           id="g96"
           transform="scale(2.9974315)"><text
             transform="translate(158.32813,235)"
             style="font-variant:normal;font-weight:bold;font-size:12px;font-family:Arial;-inkscape-font-specification:Arial-BoldMT;writing-mode:lr-tb;fill:#000000;fill-opacity:1;fill-rule:nonzero;stroke:none"
             id="text100"><tspan
               x="0 8.6660156 15.996094 22.669922 30 40.669922 47.34375 54.673828"
               y="0"
               id="tspan98">Dokument</tspan></text></g><g
           id="g102"
           transform="matrix(2.9974315,0,0,2.9974315,1.4987158,1.4987158)"><path
             d="M 254,203.21001 V 133.11999 L 261.23999,131 311,144.89999 v 71.61 l -5.73001,1.81002 z"
             style="fill:#ffffff;fill-opacity:1;fill-rule:nonzero;stroke:none"
             id="path104" /><path
             d="M 254,203.21001 V 133.11999 L 261.23999,131 311,144.89999 v 71.61 l -5.73001,1.81002 z"
             style="fill:none;stroke:#000000;stroke-width:1;stroke-linecap:butt;stroke-linejoin:miter;stroke-miterlimit:10;stroke-dasharray:none;stroke-opacity:1"
             id="path106" /><path
             d="m 254,203.21001 v -70.09002 l 51.26999,13.89 v 71.31002 z"
             style="fill:#e4e6ec;fill-opacity:1;fill-rule:nonzero;stroke:none"
             id="path108" /><path
             d="m 305.26999,147.00999 5.73001,-2.11 v 71.61 l -5.73001,1.81002 z"
             style="fill:#838da0;fill-opacity:1;fill-rule:nonzero;stroke:none"
             id="path110" /><path
             d="m 262.44,147.92 33.18,9.36999 V 158.8 l -33.18,-9.37001 z m 0,15.41 33.18,9.37 v 1.51001 L 262.44,164.84 Z m 0,15.11 33.18,9.36 v 1.51 l -33.18,-9.36 z m 0,15.09999 33.18,9.37001 v 1.51 l -33.18,-9.37 z"
             style="fill:#000000;fill-opacity:1;fill-rule:nonzero;stroke:none"
             id="path112" /><path
             d="M 254,203.21001 V 133.11999 L 261.23999,131 311,144.89999 v 71.61 l -5.73001,1.81002 z"
             style="fill:none;stroke:#000000;stroke-width:1;stroke-linecap:butt;stroke-linejoin:miter;stroke-miterlimit:10;stroke-dasharray:none;stroke-opacity:1"
             id="path114" /></g><g
           id="g116"
           transform="scale(2.9974315)"><text
             transform="translate(251.32813,235)"
             style="font-variant:normal;font-weight:bold;font-size:12px;font-family:Arial;-inkscape-font-specification:Arial-BoldMT;writing-mode:lr-tb;fill:#000000;fill-opacity:1;fill-rule:nonzero;stroke:none"
             id="text120"><tspan
               x="0 8.6660156 15.996094 22.669922 30 40.669922 47.34375 54.673828"
               y="0"
               id="tspan118">Dokument</tspan></text></g><g
           id="g122"
           transform="matrix(2.9974315,0,0,2.9974315,1.4987158,1.4987158)"><path
             d="M 344,203.21001 V 133.11999 L 351.23999,131 401,144.89999 v 71.61 l -5.73001,1.81002 z"
             style="fill:#ffffff;fill-opacity:1;fill-rule:nonzero;stroke:none"
             id="path124" /><path
             d="M 344,203.21001 V 133.11999 L 351.23999,131 401,144.89999 v 71.61 l -5.73001,1.81002 z"
             style="fill:none;stroke:#000000;stroke-width:1;stroke-linecap:butt;stroke-linejoin:miter;stroke-miterlimit:10;stroke-dasharray:none;stroke-opacity:1"
             id="path126" /><path
             d="m 344,203.21001 v -70.09002 l 51.26999,13.89 v 71.31002 z"
             style="fill:#e4e6ec;fill-opacity:1;fill-rule:nonzero;stroke:none"
             id="path128" /><path
             d="m 395.26999,147.00999 5.73001,-2.11 v 71.61 l -5.73001,1.81002 z"
             style="fill:#838da0;fill-opacity:1;fill-rule:nonzero;stroke:none"
             id="path130" /><path
             d="m 352.44,147.92 33.18,9.36999 V 158.8 l -33.18,-9.37001 z m 0,15.41 33.18,9.37 v 1.51001 L 352.44,164.84 Z m 0,15.11 33.18,9.36 v 1.51 l -33.18,-9.36 z m 0,15.09999 33.18,9.37001 v 1.51 l -33.18,-9.37 z"
             style="fill:#000000;fill-opacity:1;fill-rule:nonzero;stroke:none"
             id="path132" /><path
             d="M 344,203.21001 V 133.11999 L 351.23999,131 401,144.89999 v 71.61 l -5.73001,1.81002 z"
             style="fill:none;stroke:#000000;stroke-width:1;stroke-linecap:butt;stroke-linejoin:miter;stroke-miterlimit:10;stroke-dasharray:none;stroke-opacity:1"
             id="path134" /></g><g
           id="g136"
           transform="scale(2.9974315)"><text
             transform="translate(341.32813,235)"
             style="font-variant:normal;font-weight:bold;font-size:12px;font-family:Arial;-inkscape-font-specification:Arial-BoldMT;writing-mode:lr-tb;fill:#000000;fill-opacity:1;fill-rule:nonzero;stroke:none"
             id="text140"><tspan
               x="0 8.6660156 15.996094 22.669922 30 40.669922 47.34375 54.673828"
               y="0"
               id="tspan138">Dokument</tspan></text></g><g
           id="g142"
           transform="matrix(2.9974315,0,0,2.9974315,1.4987158,1.4987158)"><path
             d="M 91.050003,260.57001 C 92.629997,255.07001 101.55,251 112.05,251 c 10.49,0 19.42,4.07001 21,9.57001 v 30.85998 c -1.58,5.5 -10.51,9.57001 -21,9.57001 -10.5,0 -19.420003,-4.07001 -20.999997,-9.57001 z"
             style="fill:#9ea5b5;fill-opacity:1;fill-rule:nonzero;stroke:none"
             id="path144" /><path
             d="M 91.050003,260.57001 C 92.629997,255.07001 101.55,251 112.05,251 c 10.49,0 19.42,4.07001 21,9.57001 v 30.85998 c -1.58,5.5 -10.51,9.57001 -21,9.57001 -10.5,0 -19.420003,-4.07001 -20.999997,-9.57001 z"
             style="fill:none;stroke:#000000;stroke-width:1;stroke-linecap:butt;stroke-linejoin:miter;stroke-miterlimit:10;stroke-dasharray:none;stroke-opacity:1"
             id="path146" /><path
             d="m 132.99898,261.31 c 0,0.66894 -0.13449,1.33148 -0.40349,1.98758 -0.269,0.65609 -0.66733,1.29315 -1.19498,1.91119 -0.52765,0.61804 -1.17448,1.20517 -1.94052,1.76141 -0.76602,0.55622 -1.63651,1.07084 -2.61147,1.54389 -0.97497,0.47302 -2.03568,0.89535 -3.18212,1.267 -1.14645,0.37167 -2.35659,0.68548 -3.63045,0.94149 -1.27386,0.25602 -2.58694,0.44925 -3.93926,0.57975 -1.35232,0.13052 -2.71788,0.19577 -4.09669,0.1958 -1.37882,-3e-5 -2.74438,-0.0653 -4.0967,-0.1958 -1.35233,-0.13053 -2.66541,-0.32376 -3.93927,-0.57978 -1.27386,-0.25601 -2.484,-0.56982 -3.63044,-0.94146 -1.146441,-0.37165 -2.20714,-0.79398 -3.182108,-1.267 -0.974968,-0.47305 -1.845459,-0.98767 -2.611489,-1.54389 -0.766029,-0.55624 -1.412872,-1.14337 -1.940521,-1.76141 -0.527649,-0.61804 -0.925972,-1.25513 -1.194969,-1.91122 -0.26899,-0.6561 -0.403488,-1.31861 -0.403481,-1.98755 -7e-6,-0.66898 0.134491,-1.33151 0.403481,-1.98761 0.268997,-0.6561 0.66732,-1.29318 1.194969,-1.91123 0.527649,-0.61804 1.174492,-1.20517 1.940521,-1.76139 0.76603,-0.55622 1.636521,-1.07084 2.611489,-1.54386 0.974968,-0.47302 2.035667,-0.89537 3.182098,-1.26703 1.14645,-0.37166 2.35659,-0.68548 3.63045,-0.94148 1.27386,-0.25598 2.58694,-0.44923 3.93927,-0.57974 1.35232,-0.1305 2.71788,-0.19574 4.0967,-0.19574 1.37881,0 2.74437,0.0653 4.09669,0.19577 1.35232,0.13051 2.6654,0.32374 3.93926,0.57974 1.27386,0.256 2.484,0.56981 3.63044,0.94147 1.14645,0.37166 2.20716,0.79399 3.18213,1.26703 0.97496,0.47302 1.84545,0.98764 2.61147,1.54385 0.76604,0.55621 1.41287,1.14334 1.94052,1.76138 0.52765,0.61805 0.92598,1.25513 1.19498,1.91123 0.269,0.6561 0.40349,1.31863 0.40349,1.98761 z"
             style="fill:#b7bfd1;fill-opacity:1;fill-rule:nonzero;stroke:none"
             id="path148" /><path
             d="M 92.589996,288.98001 92.739998,265.47 C 97.07,269.98001 107.18,272.35999 116.96,271.17001 c 9.78,-1.18002 16.54,-5.61001 16.18,-10.6 l -0.09,24 c -0.21,2.61999 -2.24,4.94998 -5.31,6.11999 -2.54,0.82999 -5.79,1.04001 -8.73,0.57999 -2.95,-0.45999 -5.22,-1.53998 -6.12,-2.89999 -1.31,-1.46 -3.94,-2.49 -7.04,-2.78 -3.1,-0.29001 -6.28,0.20999 -8.53,1.33001 z"
             style="fill:#ffffff;fill-opacity:0.4;fill-rule:nonzero;stroke:none"
             id="path150" /><path
             d="M 91.050003,260.57001 C 92.629997,255.07001 101.55,251 112.05,251 c 10.49,0 19.42,4.07001 21,9.57001 v 30.85998 c -1.58,5.5 -10.51,9.57001 -21,9.57001 -10.5,0 -19.420003,-4.07001 -20.999997,-9.57001 z"
             style="fill:none;stroke:#000000;stroke-width:1;stroke-linecap:butt;stroke-linejoin:miter;stroke-miterlimit:10;stroke-dasharray:none;stroke-opacity:1"
             id="path152" /><path
             d="M 704.45001,61 H 1164.45 V 281 H 704.45001 Z"
             style="fill:#f5f5f5;fill-opacity:1;fill-rule:nonzero;stroke:none"
             id="path154" /><path
             d="M 704.45001,61 H 1164.45 V 281 H 704.45001 Z"
             style="fill:none;stroke:#666666;stroke-width:1;stroke-linecap:butt;stroke-linejoin:miter;stroke-miterlimit:10;stroke-dasharray:none;stroke-opacity:1"
             id="path156" /></g><g
           id="g158"
           transform="scale(2.9974315)"><text
             transform="translate(743,300)"
             style="font-variant:normal;font-weight:bold;font-size:12px;font-family:Arial;-inkscape-font-specification:Arial-BoldMT;writing-mode:lr-tb;fill:#000000;fill-opacity:1;fill-rule:nonzero;stroke:none"
             id="text162"><tspan
               x="0 8.6660156 15.339844 19.335938 26.009766 33.339844 40.669922 47.34375 54.673828"
               y="0"
               id="tspan160">Datenbank</tspan></text></g><g
           id="g164"
           transform="matrix(2.9974315,0,0,2.9974315,1.4987158,1.4987158)"><path
             d="M 441,81 H 641 V 261 H 441 Z"
             style="fill:#f0f3ff;fill-opacity:1;fill-rule:nonzero;stroke:none"
             id="path166" /><path
             d="M 441,81 H 641 V 261 H 441 Z"
             style="fill:none;stroke:#a9c4eb;stroke-width:1;stroke-linecap:butt;stroke-linejoin:miter;stroke-miterlimit:10;stroke-dasharray:none;stroke-opacity:1"
             id="path168" /><path
             d="M 441,111 H 641"
             style="fill:none;stroke:#a9c4eb;stroke-width:1;stroke-linecap:butt;stroke-linejoin:miter;stroke-miterlimit:10;stroke-dasharray:none;stroke-opacity:1"
             id="path170" /><path
             d="M 461,81 V 261"
             style="fill:none;stroke:#a9c4eb;stroke-width:1;stroke-linecap:butt;stroke-linejoin:miter;stroke-miterlimit:10;stroke-dasharray:none;stroke-opacity:1"
             id="path172" /></g><g
           id="g174"
           transform="scale(2.9974315)"><text
             transform="translate(469.5,100)"
             style="font-variant:normal;font-weight:bold;font-size:12px;font-family:Arial;-inkscape-font-specification:Arial-BoldMT;writing-mode:lr-tb;fill:#000000;fill-opacity:1;fill-rule:nonzero;stroke:none"
             id="text178"><tspan
               x="0 8.6660156 15.996094 19.330078 22.664062 29.337891 36.011719 40.007812 43.341797 50.671875"
               y="0"
               id="tspan176">Collection</tspan></text></g><g
           id="g180"
           transform="matrix(2.9974315,0,0,2.9974315,1.4987158,1.4987158)"><path
             d="M 474,203.21001 V 133.11999 L 481.23999,131 531,144.89999 v 71.61 l -5.72998,1.81002 z"
             style="fill:#ffffff;fill-opacity:1;fill-rule:nonzero;stroke:none"
             id="path182" /><path
             d="M 474,203.21001 V 133.11999 L 481.23999,131 531,144.89999 v 71.61 l -5.72998,1.81002 z"
             style="fill:none;stroke:#000000;stroke-width:1;stroke-linecap:butt;stroke-linejoin:miter;stroke-miterlimit:10;stroke-dasharray:none;stroke-opacity:1"
             id="path184" /><path
             d="m 474,203.21001 v -70.09002 l 51.27002,13.89 v 71.31002 z"
             style="fill:#e4e6ec;fill-opacity:1;fill-rule:nonzero;stroke:none"
             id="path186" /><path
             d="m 525.27002,147.00999 5.72998,-2.11 v 71.61 l -5.72998,1.81002 z"
             style="fill:#838da0;fill-opacity:1;fill-rule:nonzero;stroke:none"
             id="path188" /><path
             d="m 482.44,147.92 33.18,9.36999 V 158.8 l -33.18,-9.37001 z m 0,15.41 33.18,9.37 v 1.51001 L 482.44,164.84 Z m 0,15.11 33.18,9.36 v 1.51 l -33.18,-9.36 z m 0,15.09999 33.18,9.37001 v 1.51 l -33.18,-9.37 z"
             style="fill:#000000;fill-opacity:1;fill-rule:nonzero;stroke:none"
             id="path190" /><path
             d="M 474,203.21001 V 133.11999 L 481.23999,131 531,144.89999 v 71.61 l -5.72998,1.81002 z"
             style="fill:none;stroke:#000000;stroke-width:1;stroke-linecap:butt;stroke-linejoin:miter;stroke-miterlimit:10;stroke-dasharray:none;stroke-opacity:1"
             id="path192" /></g><g
           id="g194"
           transform="scale(2.9974315)"><text
             transform="translate(471.32813,235)"
             style="font-variant:normal;font-weight:bold;font-size:12px;font-family:Arial;-inkscape-font-specification:Arial-BoldMT;writing-mode:lr-tb;fill:#000000;fill-opacity:1;fill-rule:nonzero;stroke:none"
             id="text198"><tspan
               x="0 8.6660156 15.996094 22.669922 30 40.669922 47.34375 54.673828"
               y="0"
               id="tspan196">Dokument</tspan></text></g><g
           id="g200"
           transform="matrix(2.9974315,0,0,2.9974315,1.4987158,1.4987158)"><path
             d="M 564,203.21001 V 133.11999 L 571.23999,131 621,144.89999 v 71.61 l -5.72998,1.81002 z"
             style="fill:#ffffff;fill-opacity:1;fill-rule:nonzero;stroke:none"
             id="path202" /><path
             d="M 564,203.21001 V 133.11999 L 571.23999,131 621,144.89999 v 71.61 l -5.72998,1.81002 z"
             style="fill:none;stroke:#000000;stroke-width:1;stroke-linecap:butt;stroke-linejoin:miter;stroke-miterlimit:10;stroke-dasharray:none;stroke-opacity:1"
             id="path204" /><path
             d="m 564,203.21001 v -70.09002 l 51.27002,13.89 v 71.31002 z"
             style="fill:#e4e6ec;fill-opacity:1;fill-rule:nonzero;stroke:none"
             id="path206" /><path
             d="m 615.27002,147.00999 5.72998,-2.11 v 71.61 l -5.72998,1.81002 z"
             style="fill:#838da0;fill-opacity:1;fill-rule:nonzero;stroke:none"
             id="path208" /><path
             d="m 572.44,147.92 33.18,9.36999 V 158.8 l -33.18,-9.37001 z m 0,15.41 33.18,9.37 v 1.51001 L 572.44,164.84 Z m 0,15.11 33.18,9.36 v 1.51 l -33.18,-9.36 z m 0,15.09999 33.18,9.37001 v 1.51 l -33.18,-9.37 z"
             style="fill:#000000;fill-opacity:1;fill-rule:nonzero;stroke:none"
             id="path210" /><path
             d="M 564,203.21001 V 133.11999 L 571.23999,131 621,144.89999 v 71.61 l -5.72998,1.81002 z"
             style="fill:none;stroke:#000000;stroke-width:1;stroke-linecap:butt;stroke-linejoin:miter;stroke-miterlimit:10;stroke-dasharray:none;stroke-opacity:1"
             id="path212" /></g><g
           id="g214"
           transform="scale(2.9974315)"><text
             transform="translate(561.32813,235)"
             style="font-variant:normal;font-weight:bold;font-size:12px;font-family:Arial;-inkscape-font-specification:Arial-BoldMT;writing-mode:lr-tb;fill:#000000;fill-opacity:1;fill-rule:nonzero;stroke:none"
             id="text218"><tspan
               x="0 8.6660156 15.996094 22.669922 30 40.669922 47.34375 54.673828"
               y="0"
               id="tspan216">Dokument</tspan></text></g><g
           id="g220"
           transform="matrix(2.9974315,0,0,2.9974315,1.4987158,1.4987158)"><path
             d="m 724.45001,81 h 200 v 180 h -200 z"
             style="fill:#f0f3ff;fill-opacity:1;fill-rule:nonzero;stroke:none"
             id="path222" /><path
             d="m 724.45001,81 h 200 v 180 h -200 z"
             style="fill:none;stroke:#a9c4eb;stroke-width:1;stroke-linecap:butt;stroke-linejoin:miter;stroke-miterlimit:10;stroke-dasharray:none;stroke-opacity:1"
             id="path224" /><path
             d="m 724.45001,111 h 200"
             style="fill:none;stroke:#a9c4eb;stroke-width:1;stroke-linecap:butt;stroke-linejoin:miter;stroke-miterlimit:10;stroke-dasharray:none;stroke-opacity:1"
             id="path226" /><path
             d="M 744.45001,81 V 261"
             style="fill:none;stroke:#a9c4eb;stroke-width:1;stroke-linecap:butt;stroke-linejoin:miter;stroke-miterlimit:10;stroke-dasharray:none;stroke-opacity:1"
             id="path228" /></g><g
           id="g230"
           transform="scale(2.9974315)"><text
             transform="translate(752.5,100)"
             style="font-variant:normal;font-weight:bold;font-size:12px;font-family:Arial;-inkscape-font-specification:Arial-BoldMT;writing-mode:lr-tb;fill:#000000;fill-opacity:1;fill-rule:nonzero;stroke:none"
             id="text234"><tspan
               x="0 8.6660156 15.996094 19.330078 22.664062 29.337891 36.011719 40.007812 43.341797 50.671875"
               y="0"
               id="tspan232">Collection</tspan></text></g><g
           id="g236"
           transform="matrix(2.9974315,0,0,2.9974315,1.4987158,1.4987158)"><path
             d="M 757.45001,203.21001 V 133.11999 L 764.69,131 l 49.76001,13.89999 v 71.61 l -5.73004,1.81002 z"
             style="fill:#ffffff;fill-opacity:1;fill-rule:nonzero;stroke:none"
             id="path238" /><path
             d="M 757.45001,203.21001 V 133.11999 L 764.69,131 l 49.76001,13.89999 v 71.61 l -5.73004,1.81002 z"
             style="fill:none;stroke:#000000;stroke-width:1;stroke-linecap:butt;stroke-linejoin:miter;stroke-miterlimit:10;stroke-dasharray:none;stroke-opacity:1"
             id="path240" /><path
             d="m 757.45001,203.21001 v -70.09002 l 51.26996,13.89 v 71.31002 z"
             style="fill:#e4e6ec;fill-opacity:1;fill-rule:nonzero;stroke:none"
             id="path242" /><path
             d="m 808.71997,147.00999 5.73004,-2.11 v 71.61 l -5.73004,1.81002 z"
             style="fill:#838da0;fill-opacity:1;fill-rule:nonzero;stroke:none"
             id="path244" /><path
             d="m 765.89001,147.92 33.18,9.36999 V 158.8 l -33.18,-9.37001 z m 0,15.41 33.18,9.37 v 1.51001 l -33.18,-9.37001 z m 0,15.11 33.18,9.36 v 1.51 l -33.18,-9.36 z m 0,15.09999 33.18,9.37001 v 1.51 l -33.18,-9.37 z"
             style="fill:#000000;fill-opacity:1;fill-rule:nonzero;stroke:none"
             id="path246" /><path
             d="M 757.45001,203.21001 V 133.11999 L 764.69,131 l 49.76001,13.89999 v 71.61 l -5.73004,1.81002 z"
             style="fill:none;stroke:#000000;stroke-width:1;stroke-linecap:butt;stroke-linejoin:miter;stroke-miterlimit:10;stroke-dasharray:none;stroke-opacity:1"
             id="path248" /></g><g
           id="g250"
           transform="scale(2.9974315)"><text
             transform="translate(754.32813,235)"
             style="font-variant:normal;font-weight:bold;font-size:12px;font-family:Arial;-inkscape-font-specification:Arial-BoldMT;writing-mode:lr-tb;fill:#000000;fill-opacity:1;fill-rule:nonzero;stroke:none"
             id="text254"><tspan
               x="0 8.6660156 15.996094 22.669922 30 40.669922 47.34375 54.673828"
               y="0"
               id="tspan252">Dokument</tspan></text></g><g
           id="g256"
           transform="matrix(2.9974315,0,0,2.9974315,1.4987158,1.4987158)"><path
             d="M 847.45001,203.21001 V 133.11999 L 854.69,131 l 49.76001,13.89999 v 71.61 l -5.73004,1.81002 z"
             style="fill:#ffffff;fill-opacity:1;fill-rule:nonzero;stroke:none"
             id="path258" /><path
             d="M 847.45001,203.21001 V 133.11999 L 854.69,131 l 49.76001,13.89999 v 71.61 l -5.73004,1.81002 z"
             style="fill:none;stroke:#000000;stroke-width:1;stroke-linecap:butt;stroke-linejoin:miter;stroke-miterlimit:10;stroke-dasharray:none;stroke-opacity:1"
             id="path260" /><path
             d="m 847.45001,203.21001 v -70.09002 l 51.26996,13.89 v 71.31002 z"
             style="fill:#e4e6ec;fill-opacity:1;fill-rule:nonzero;stroke:none"
             id="path262" /><path
             d="m 898.71997,147.00999 5.73004,-2.11 v 71.61 l -5.73004,1.81002 z"
             style="fill:#838da0;fill-opacity:1;fill-rule:nonzero;stroke:none"
             id="path264" /><path
             d="m 855.89001,147.92 33.18,9.36999 V 158.8 l -33.18,-9.37001 z m 0,15.41 33.18,9.37 v 1.51001 l -33.18,-9.37001 z m 0,15.11 33.18,9.36 v 1.51 l -33.18,-9.36 z m 0,15.09999 33.18,9.37001 v 1.51 l -33.18,-9.37 z"
             style="fill:#000000;fill-opacity:1;fill-rule:nonzero;stroke:none"
             id="path266" /><path
             d="M 847.45001,203.21001 V 133.11999 L 854.69,131 l 49.76001,13.89999 v 71.61 l -5.73004,1.81002 z"
             style="fill:none;stroke:#000000;stroke-width:1;stroke-linecap:butt;stroke-linejoin:miter;stroke-miterlimit:10;stroke-dasharray:none;stroke-opacity:1"
             id="path268" /></g><g
           id="g270"
           transform="scale(2.9974315)"><text
             transform="translate(844.32813,235)"
             style="font-variant:normal;font-weight:bold;font-size:12px;font-family:Arial;-inkscape-font-specification:Arial-BoldMT;writing-mode:lr-tb;fill:#000000;fill-opacity:1;fill-rule:nonzero;stroke:none"
             id="text274"><tspan
               x="0 8.6660156 15.996094 22.669922 30 40.669922 47.34375 54.673828"
               y="0"
               id="tspan272">Dokument</tspan></text></g><g
           id="g276"
           transform="matrix(2.9974315,0,0,2.9974315,1.4987158,1.4987158)"><path
             d="M 944.45001,81 H 1144.45 V 261 H 944.45001 Z"
             style="fill:#f0f3ff;fill-opacity:1;fill-rule:nonzero;stroke:none"
             id="path278" /><path
             d="M 944.45001,81 H 1144.45 V 261 H 944.45001 Z"
             style="fill:none;stroke:#a9c4eb;stroke-width:1;stroke-linecap:butt;stroke-linejoin:miter;stroke-miterlimit:10;stroke-dasharray:none;stroke-opacity:1"
             id="path280" /><path
             d="M 944.45001,111 H 1144.45"
             style="fill:none;stroke:#a9c4eb;stroke-width:1;stroke-linecap:butt;stroke-linejoin:miter;stroke-miterlimit:10;stroke-dasharray:none;stroke-opacity:1"
             id="path282" /><path
             d="M 964.45001,81 V 261"
             style="fill:none;stroke:#a9c4eb;stroke-width:1;stroke-linecap:butt;stroke-linejoin:miter;stroke-miterlimit:10;stroke-dasharray:none;stroke-opacity:1"
             id="path284" /></g><g
           id="g286"
           transform="scale(2.9974315)"><text
             transform="translate(972.5,100)"
             style="font-variant:normal;font-weight:bold;font-size:12px;font-family:Arial;-inkscape-font-specification:Arial-BoldMT;writing-mode:lr-tb;fill:#000000;fill-opacity:1;fill-rule:nonzero;stroke:none"
             id="text290"><tspan
               x="0 8.6660156 15.996094 19.330078 22.664062 29.337891 36.011719 40.007812 43.341797 50.671875"
               y="0"
               id="tspan288">Collection</tspan></text></g><g
           id="g292"
           transform="matrix(2.9974315,0,0,2.9974315,1.4987158,1.4987158)"><path
             d="M 977.45001,203.21001 V 133.11999 L 984.69,131 l 49.76,13.89999 v 71.61 l -5.73,1.81002 z"
             style="fill:#ffffff;fill-opacity:1;fill-rule:nonzero;stroke:none"
             id="path294" /><path
             d="M 977.45001,203.21001 V 133.11999 L 984.69,131 l 49.76,13.89999 v 71.61 l -5.73,1.81002 z"
             style="fill:none;stroke:#000000;stroke-width:1;stroke-linecap:butt;stroke-linejoin:miter;stroke-miterlimit:10;stroke-dasharray:none;stroke-opacity:1"
             id="path296" /><path
             d="m 977.45001,203.21001 v -70.09002 l 51.26999,13.89 v 71.31002 z"
             style="fill:#e4e6ec;fill-opacity:1;fill-rule:nonzero;stroke:none"
             id="path298" /><path
             d="m 1028.72,147.00999 5.73,-2.11 v 71.61 l -5.73,1.81002 z"
             style="fill:#838da0;fill-opacity:1;fill-rule:nonzero;stroke:none"
             id="path300" /><path
             d="m 985.89001,147.92 33.17999,9.36999 V 158.8 l -33.17999,-9.37001 z m 0,15.41 33.17999,9.37 v 1.51001 L 985.89001,164.84 Z m 0,15.11 33.17999,9.36 v 1.51 l -33.17999,-9.36 z m 0,15.09999 33.17999,9.37001 v 1.51 l -33.17999,-9.37 z"
             style="fill:#000000;fill-opacity:1;fill-rule:nonzero;stroke:none"
             id="path302" /><path
             d="M 977.45001,203.21001 V 133.11999 L 984.69,131 l 49.76,13.89999 v 71.61 l -5.73,1.81002 z"
             style="fill:none;stroke:#000000;stroke-width:1;stroke-linecap:butt;stroke-linejoin:miter;stroke-miterlimit:10;stroke-dasharray:none;stroke-opacity:1"
             id="path304" /></g><g
           id="g306"
           transform="scale(2.9974315)"><text
             transform="translate(974.32813,235)"
             style="font-variant:normal;font-weight:bold;font-size:12px;font-family:Arial;-inkscape-font-specification:Arial-BoldMT;writing-mode:lr-tb;fill:#000000;fill-opacity:1;fill-rule:nonzero;stroke:none"
             id="text310"><tspan
               x="0 8.6660156 15.996094 22.669922 30 40.669922 47.34375 54.673828"
               y="0"
               id="tspan308">Dokument</tspan></text></g><g
           id="g312"
           transform="matrix(2.9974315,0,0,2.9974315,1.4987158,1.4987158)"><path
             d="M 1067.45,203.21001 V 133.11999 L 1074.6899,131 1124.45,144.89999 v 71.61 l -5.73,1.81002 z"
             style="fill:#ffffff;fill-opacity:1;fill-rule:nonzero;stroke:none"
             id="path314" /><path
             d="M 1067.45,203.21001 V 133.11999 L 1074.6899,131 1124.45,144.89999 v 71.61 l -5.73,1.81002 z"
             style="fill:none;stroke:#000000;stroke-width:1;stroke-linecap:butt;stroke-linejoin:miter;stroke-miterlimit:10;stroke-dasharray:none;stroke-opacity:1"
             id="path316" /><path
             d="m 1067.45,203.21001 v -70.09002 l 51.27,13.89 v 71.31002 z"
             style="fill:#e4e6ec;fill-opacity:1;fill-rule:nonzero;stroke:none"
             id="path318" /><path
             d="m 1118.72,147.00999 5.73,-2.11 v 71.61 l -5.73,1.81002 z"
             style="fill:#838da0;fill-opacity:1;fill-rule:nonzero;stroke:none"
             id="path320" /><path
             d="m 1075.89,147.92 33.18,9.36999 V 158.8 l -33.18,-9.37001 z m 0,15.41 33.18,9.37 v 1.51001 L 1075.89,164.84 Z m 0,15.11 33.18,9.36 v 1.51 l -33.18,-9.36 z m 0,15.09999 33.18,9.37001 v 1.51 l -33.18,-9.37 z"
             style="fill:#000000;fill-opacity:1;fill-rule:nonzero;stroke:none"
             id="path322" /><path
             d="M 1067.45,203.21001 V 133.11999 L 1074.6899,131 1124.45,144.89999 v 71.61 l -5.73,1.81002 z"
             style="fill:none;stroke:#000000;stroke-width:1;stroke-linecap:butt;stroke-linejoin:miter;stroke-miterlimit:10;stroke-dasharray:none;stroke-opacity:1"
             id="path324" /></g><g
           id="g326"
           transform="scale(2.9974315)"><text
             transform="translate(1064.3281,235)"
             style="font-variant:normal;font-weight:bold;font-size:12px;font-family:Arial;-inkscape-font-specification:Arial-BoldMT;writing-mode:lr-tb;fill:#000000;fill-opacity:1;fill-rule:nonzero;stroke:none"
             id="text330"><tspan
               x="0 8.6660156 15.996094 22.669922 30 40.669922 47.34375 54.673828"
               y="0"
               id="tspan328">Dokument</tspan></text></g><g
           id="g332"
           transform="matrix(2.9974315,0,0,2.9974315,1.4987158,1.4987158)"><path
             d="m 691.04999,265.89001 c 1.58001,-5.5 10.5,-9.57 21,-9.57 10.48999,0 19.41998,4.07 21,9.57 V 296.75 c -1.58002,5.5 -10.51001,9.57001 -21,9.57001 -10.5,0 -19.41999,-4.07001 -21,-9.57001 z"
             style="fill:#9ea5b5;fill-opacity:1;fill-rule:nonzero;stroke:none"
             id="path334" /><path
             d="m 691.04999,265.89001 c 1.58001,-5.5 10.5,-9.57 21,-9.57 10.48999,0 19.41998,4.07 21,9.57 V 296.75 c -1.58002,5.5 -10.51001,9.57001 -21,9.57001 -10.5,0 -19.41999,-4.07001 -21,-9.57001 z"
             style="fill:none;stroke:#000000;stroke-width:1;stroke-linecap:butt;stroke-linejoin:miter;stroke-miterlimit:10;stroke-dasharray:none;stroke-opacity:1"
             id="path336" /><path
             d="m 732.99902,266.63 c -6e-5,0.66898 -0.13458,1.33149 -0.40362,1.98755 -0.26898,0.6561 -0.6673,1.29319 -1.19495,1.91123 -0.52765,0.61804 -1.1745,1.20517 -1.94049,1.76141 -0.76605,0.55622 -1.63653,1.07083 -2.61145,1.54389 -0.97497,0.47299 -2.0357,0.89532 -3.18213,1.26696 -1.14642,0.37168 -2.35663,0.68549 -3.63049,0.9415 -1.27387,0.25601 -2.58692,0.44925 -3.93927,0.57977 -1.3523,0.13053 -2.71784,0.19581 -4.09662,0.19581 -1.37885,0 -2.74438,-0.0653 -4.09674,-0.19581 -1.3523,-0.13049 -2.66541,-0.32373 -3.93927,-0.57974 -1.27387,-0.25601 -2.48401,-0.56985 -3.63043,-0.9415 -1.14643,-0.37167 -2.20716,-0.794 -3.18207,-1.26699 -0.97504,-0.47306 -1.84552,-0.98767 -2.61157,-1.54389 -0.76606,-0.55624 -1.41291,-1.14337 -1.94055,-1.76141 -0.52765,-0.61804 -0.92591,-1.25513 -1.19489,-1.91123 -0.26898,-0.65606 -0.4035,-1.31857 -0.40344,-1.98755 -6e-5,-0.66897 0.13446,-1.33151 0.40344,-1.9876 0.26898,-0.6561 0.6673,-1.29319 1.19495,-1.91126 0.52765,-0.61804 1.1745,-1.20517 1.94055,-1.76135 0.76599,-0.55625 1.63647,-1.07086 2.61151,-1.54386 0.97491,-0.47305 2.03564,-0.89538 3.18207,-1.26702 1.14642,-0.37168 2.35656,-0.68549 3.63043,-0.9415 1.27386,-0.25598 2.58697,-0.44922 3.93933,-0.57975 1.3523,-0.13049 2.71783,-0.19573 4.09668,-0.19573 1.37878,0 2.74432,0.0652 4.09662,0.19573 1.35235,0.13053 2.6654,0.32377 3.93927,0.57975 1.27386,0.25601 2.48407,0.56982 3.63049,0.9415 1.14643,0.37164 2.20716,0.79397 3.18213,1.26702 0.97492,0.473 1.8454,0.98761 2.61145,1.54383 0.76599,0.55621 1.41284,1.14334 1.94049,1.76138 0.52765,0.61807 0.92603,1.25516 1.19501,1.91126 0.26898,0.65609 0.4035,1.31863 0.40356,1.9876 z"
             style="fill:#b7bfd1;fill-opacity:1;fill-rule:nonzero;stroke:none"
             id="path338" /><path
             d="m 692.59003,294.29999 0.14996,-23.50998 c 4.33002,4.50998 14.44,6.88998 24.22003,5.69998 C 726.73999,275.31 733.5,270.88 733.14001,265.89001 l -0.09,24 c -0.20996,2.62 -2.23999,4.94999 -5.31,6.12 -2.53998,0.82999 -5.78998,1.03998 -8.72998,0.57999 -2.95001,-0.46 -5.22003,-1.54001 -6.12,-2.9 -1.30999,-1.45999 -3.94,-2.48999 -7.04003,-2.78 -3.09998,-0.29 -6.27997,0.21 -8.52997,1.32999 l -4.72998,2.06 z"
             style="fill:#ffffff;fill-opacity:0.4;fill-rule:nonzero;stroke:none"
             id="path340" /><path
             d="m 691.04999,265.89001 c 1.58001,-5.5 10.5,-9.57 21,-9.57 10.48999,0 19.41998,4.07 21,9.57 V 296.75 c -1.58002,5.5 -10.51001,9.57001 -21,9.57001 -10.5,0 -19.41999,-4.07001 -21,-9.57001 z"
             style="fill:none;stroke:#000000;stroke-width:1;stroke-linecap:butt;stroke-linejoin:miter;stroke-miterlimit:10;stroke-dasharray:none;stroke-opacity:1"
             id="path342" /></g></g></g></g></svg>
