<?xml version="1.0" encoding="UTF-8" standalone="no"?>
<!-- Created with Inkscape (http://www.inkscape.org/) -->

<svg
   xmlns:dc="http://purl.org/dc/elements/1.1/"
   xmlns:cc="http://creativecommons.org/ns#"
   xmlns:rdf="http://www.w3.org/1999/02/22-rdf-syntax-ns#"
   xmlns:svg="http://www.w3.org/2000/svg"
   xmlns="http://www.w3.org/2000/svg"
   xmlns:sodipodi="http://sodipodi.sourceforge.net/DTD/sodipodi-0.dtd"
   xmlns:inkscape="http://www.inkscape.org/namespaces/inkscape"
   width="3cm"
   height="3cm"
   viewBox="0 0 30 29.999999"
   version="1.1"
   id="svg8"
   sodipodi:docname="http_intro_07.svg"
   inkscape:version="0.92.2 5c3e80d, 2017-08-06">
  <defs
     id="defs2" />
  <sodipodi:namedview
     id="base"
     pagecolor="#ffffff"
     bordercolor="#666666"
     borderopacity="1.0"
     inkscape:pageopacity="0.0"
     inkscape:pageshadow="2"
     inkscape:zoom="7.4524306"
     inkscape:cx="56.692913"
     inkscape:cy="56.692913"
     inkscape:document-units="mm"
     inkscape:current-layer="layer1"
     showgrid="false"
     units="cm"
     inkscape:window-width="2048"
     inkscape:window-height="1088"
     inkscape:window-x="0"
     inkscape:window-y="27"
     inkscape:window-maximized="1"
     showguides="false"
     inkscape:measure-start="0,0"
     inkscape:measure-end="0,0" />
  <metadata
     id="metadata5">
    <rdf:RDF>
      <cc:Work
         rdf:about="">
        <dc:format>image/svg+xml</dc:format>
        <dc:type
           rdf:resource="http://purl.org/dc/dcmitype/StillImage" />
        <dc:title />
      </cc:Work>
    </rdf:RDF>
  </metadata>
  <g
     inkscape:label="Layer 1"
     inkscape:groupmode="layer"
     id="layer1"
     transform="translate(0,-267.00002)">
    <g
       aria-label="!?#@
&amp;3łð·
"
       transform="matrix(1.0309568,0,0,0.96997274,0,4.2333335)"
       style="font-style:normal;font-variant:normal;font-weight:normal;font-stretch:normal;font-size:10.22853184px;line-height:11.34265995px;font-family:'Liberation Sans';-inkscape-font-specification:'Liberation Sans';text-align:start;letter-spacing:0px;word-spacing:0px;text-anchor:start;fill:#000000;fill-opacity:1;stroke:none;stroke-width:0.26458332px;stroke-linecap:butt;stroke-linejoin:miter;stroke-opacity:1"
       id="text6208">
      <path
         d="m 2.1884502,289.00224 q -0.5543785,0 -0.8490481,-0.28968 -0.2896752,-0.28468 -0.2896752,-0.82907 0,-0.40455 0.3046584,-0.64927 0.3096528,-0.24972 0.7791265,-0.24972 0.474468,0 0.74916,0.25971 0.274692,0.25971 0.274692,0.70421 0,0.51942 -0.2447256,0.78412 -0.2447256,0.2697 -0.724188,0.2697 z m -0.8390593,-2.41729 q 0.04495,-0.55938 0.064927,-1.08379 0.024972,-0.52441 0.024972,-1.02385 0,-0.84905 -0.04495,-1.73306 -0.039955,-0.88401 -0.1298544,-1.79299 l 2.0177377,0.17481 -0.1148712,2.08766 q -0.1698096,1.0688 -0.274692,1.84792 -0.099888,0.77414 -0.1348488,1.19866 z"
         style="fill:#550000"
         id="path6242"
         inkscape:connector-curvature="0" />
      <path
         d="m 5.7095023,286.38018 v -2.0527 l 2.1176258,-0.02 -0.029967,-1.79299 H 6.1589983 l 0.00999,1.08378 -2.0027545,-0.01 v -0.1848 q 0,-1.18367 0.7241881,-1.81796 0.7291824,-0.63429 2.0976481,-0.63429 1.2735721,0 2.1176257,0.57935 0.8490481,0.57935 0.8490481,1.39344 0,1.37846 -0.5443897,2.02273 -0.5393952,0.63929 -1.7080849,0.63929 h -0.109878 v 0.79411 z m 1.0837849,2.62206 q -0.6742441,0 -1.0588129,-0.32464 -0.3845688,-0.32464 -0.3845688,-0.88401 0,-0.3546 0.3446136,-0.66925 0.349608,-0.31465 0.7941097,-0.31465 0.5693616,0 1.0088688,0.29967 0.4445017,0.29966 0.4445017,0.64428 0,0.58434 -0.3046585,0.91397 -0.3046584,0.33463 -0.8440536,0.33463 z"
         style="fill:#162d50"
         id="path6244"
         inkscape:connector-curvature="0" />
      <path
         d="m 13.97024,284.43735 -0.409541,1.1587 h 1.223628 l 0.409541,-1.1587 z m -0.114871,-3.1165 h 1.2486 l -0.694222,1.9628 h 1.173684 l 0.704211,-1.9628 h 1.2486 l -0.694222,1.9628 h 1.348488 l -0.429518,1.1537 h -1.338499 l -0.399552,1.14872 h 1.383449 l -0.41953,1.1537 h -1.37346 l -0.704211,1.9628 h -1.2486 l 0.694222,-1.9628 h -1.173684 l -0.704211,1.9628 h -1.2486 l 0.694222,-1.9628 H 10.55407 l 0.429519,-1.1537 h 1.348488 l 0.409541,-1.14872 h -1.413416 l 0.429519,-1.1537 h 1.393437 z"
         style="fill:#217867"
         id="path6246"
         inkscape:connector-curvature="0" />
      <path
         d="m 24.108874,287.33411 q -0.279687,0.40954 -0.634289,0.59932 -0.349608,0.18979 -0.839059,0.18979 -0.814088,0 -1.233617,-0.43451 -0.41953,-0.43951 -0.41953,-1.28856 0,-1.20365 0.70421,-2.01773 0.709205,-0.81409 1.748041,-0.81409 0.384568,0 0.669249,0.15482 0.284681,0.14984 0.474468,0.45949 l 0.259709,-0.45949 h 1.028847 l -0.764144,3.04659 q 0,0.01 -0.005,0.03 -0.01498,0.0899 -0.01498,0.13484 0,0.14984 0.07991,0.22475 0.07991,0.0699 0.234737,0.0699 0.684233,0 1.198656,-0.7142 0.519418,-0.71919 0.519418,-1.67811 0,-1.19367 -0.898992,-1.94782 -0.893998,-0.75415 -2.332385,-0.75415 -0.739172,0 -1.368466,0.18479 -0.629295,0.1798 -1.148712,0.54439 -0.774132,0.54938 -1.193662,1.37346 -0.419529,0.81908 -0.419529,1.778 0,1.50831 1.013863,2.40731 1.013863,0.89399 2.716954,0.89399 0.819081,0 1.57823,-0.23973 0.759149,-0.23473 1.398432,-0.68923 l 0.484457,0.67425 q -0.779126,0.58434 -1.643158,0.87402 -0.864031,0.28967 -1.817961,0.28967 -0.958925,0 -1.773013,-0.24472 -0.809092,-0.24473 -1.438387,-0.72419 -0.784121,-0.60932 -1.168689,-1.40343 -0.384569,-0.7991 -0.384569,-1.80797 0,-0.84405 0.264703,-1.59821 0.264703,-0.75915 0.779126,-1.38844 0.739172,-0.91398 1.79299,-1.38844 1.058813,-0.47447 2.337379,-0.47447 0.849048,0 1.598209,0.22974 0.74916,0.22974 1.298544,0.65926 0.679238,0.5344 1.013863,1.21364 0.334625,0.67924 0.334625,1.52829 0,0.83406 -0.329631,1.53328 -0.324636,0.69921 -0.948936,1.19865 -0.344613,0.27969 -0.769137,0.42952 -0.424524,0.14484 -0.879015,0.14484 -0.529406,0 -0.804098,-0.19978 -0.274692,-0.19977 -0.299664,-0.59932 z m 0.184792,-2.16757 q -0.04495,-0.37958 -0.24972,-0.57935 -0.20477,-0.19978 -0.549384,-0.19978 -0.514423,0 -0.90898,0.60932 -0.389564,0.60432 -0.389564,1.4284 0,0.41453 0.174804,0.64427 0.174804,0.22475 0.489452,0.22475 0.419529,0 0.739171,-0.29467 0.319641,-0.29467 0.439507,-0.78911 z"
         style="fill:#ffcc00"
         id="path6248"
         inkscape:connector-curvature="0" />
      <path
         d="m 3.3921006,295.16942 0.224748,0.02 0.9639193,-0.0749 0.029966,-1.26858 -1.1786785,-0.03 -0.059933,0.70921 z m -0.3695856,3.59597 1.7330569,-0.0599 -1.2486001,-1.65814 -0.4944456,0.15482 q 0,0.02 0,0.0599 -0.019978,0.49444 -0.019978,0.72918 0,0.13984 0.00499,0.33462 0.00999,0.18979 0.024972,0.43951 z m 2.357357,1.49832 -0.3196417,-0.4445 q -0.349608,0.28968 -0.7092048,0.41454 -0.3595968,0.12985 -0.8340649,0.12985 -1.173684,0 -1.8679057,-0.62929 -0.68922722,-0.63429 -0.68922722,-1.70309 0,-0.78413 0.40954082,-1.29355 0.4145352,-0.51443 1.1636953,-0.65927 -0.4794624,-0.32463 -0.6992161,-0.70421 -0.2197536,-0.37957 -0.2197536,-0.884 0,-0.95394 0.5793505,-1.41841 0.5843448,-0.46948 1.7730121,-0.46948 0.923964,0 1.4883313,0.49944 0.5693616,0.49944 0.5693616,1.30854 0,0.69422 -0.3845688,1.17368 -0.3795744,0.47946 -1.1437177,0.73917 0.199776,0.15982 0.4594848,0.45449 0.2647032,0.28968 0.5344009,0.64927 l 0.1048824,-1.08378 1.4084209,0.0499 v 0.13485 q 0,0.69922 -0.1348488,1.11875 -0.1348489,0.41953 -0.4494961,0.80409 l 1.0638073,1.49333 z"
         style="fill:#2c89a0"
         id="path6250"
         inkscape:connector-curvature="0" />
      <path
         d="m 8.1467696,297.90136 2.2175134,0.0499 -0.07991,1.20366 h 1.523292 l -0.09489,-1.82796 -1.613191,-0.14483 0.09989,-1.41342 h 1.238611 l 0.164816,-1.67312 -1.453371,-0.13485 -0.05993,1.32851 -1.9328326,-0.16482 q 0.014983,-1.34848 0.74916,-2.06768 0.7341769,-0.72419 2.0926536,-0.72419 1.273572,0 1.977783,0.6293 0.70421,0.6243 0.70421,1.76802 0,0.61431 -0.304658,0.9739 -0.299664,0.3596 -1.058813,0.63929 0.834065,0.18979 1.2486,0.65926 0.41953,0.46448 0.41953,1.20365 0,1.04383 -0.819082,1.67312 -0.814087,0.6293 -2.187547,0.6293 -1.4833373,0 -2.1675702,-0.5344 -0.6842328,-0.5344 -0.6842328,-1.68811 0,-0.0649 0,-0.13984 0.00499,-0.0799 0.019978,-0.24473 z"
         style="fill:#442178"
         id="path6252"
         inkscape:connector-curvature="0" />
      <path
         d="m 15.168896,297.40692 -0.614311,0.40954 v -1.03384 l 0.614311,-0.38957 v -3.84569 l 1.8729,-0.0899 -0.104882,2.82184 0.74916,-0.49944 v 1.25859 l -0.534401,0.36459 v 2.44726 l 0.04994,1.31852 -2.092653,0.0699 v -0.0599 q 0.05993,-1.63317 0.05993,-2.4123 z"
         style="fill:#784421"
         id="path6254"
         inkscape:connector-curvature="0" />
      <path
         d="m 19.953532,298.99513 1.018857,-0.035 0.719194,-0.0799 -0.01498,-2.38233 q -0.16981,-0.005 -0.364591,-0.005 -0.189788,-0.005 -0.519418,-0.005 -0.09489,0 -0.379575,0.005 -0.279686,0.005 -0.469473,0.005 l -0.02497,1.53329 z m 1.473348,-3.50107 q -0.209765,-0.43451 -0.404547,-0.77913 -0.189787,-0.3496 -0.384569,-0.62929 l -0.983896,0.52941 -0.614312,-0.57436 1.148712,-0.52941 -0.849048,-0.85903 1.223628,-0.4495 0.739172,0.64428 1.043829,-0.59434 0.459485,0.69423 -0.918969,0.51442 q 0.889003,1.00887 1.308532,2.00775 0.41953,0.99888 0.41953,2.11263 0,1.40343 -0.694222,2.15259 -0.689227,0.74416 -1.987771,0.74416 -1.323516,0 -2.102642,-0.70421 -0.779127,-0.7092 -0.779127,-1.91785 0,-1.15371 0.674244,-1.85792 0.674244,-0.7092 1.778007,-0.7092 0.28468,0 0.509428,0.0499 0.224749,0.05 0.414536,0.15483 z"
         style="fill:#550044"
         id="path6256"
         inkscape:connector-curvature="0" />
      <path
         d="m 24.463475,296.41303 q 0,-0.50943 0.359597,-0.86903 0.364591,-0.36459 0.879014,-0.36459 0.524412,0 0.884009,0.3596 0.364591,0.3546 0.364591,0.87402 0,0.51442 -0.369586,0.88401 -0.369585,0.36459 -0.879014,0.36459 -0.504434,0 -0.87402,-0.36959 -0.364591,-0.36958 -0.364591,-0.87901 z"
         style="fill:#d40000"
         id="path6258"
         inkscape:connector-curvature="0" />
    </g>
  </g>
</svg>
