<?xml version="1.0" encoding="UTF-8" standalone="no"?>
<svg
   xmlns:dc="http://purl.org/dc/elements/1.1/"
   xmlns:cc="http://creativecommons.org/ns#"
   xmlns:rdf="http://www.w3.org/1999/02/22-rdf-syntax-ns#"
   xmlns:svg="http://www.w3.org/2000/svg"
   xmlns="http://www.w3.org/2000/svg"
   xmlns:sodipodi="http://sodipodi.sourceforge.net/DTD/sodipodi-0.dtd"
   xmlns:inkscape="http://www.inkscape.org/namespaces/inkscape"
   width="4cm"
   height="3cm"
   version="1.1"
   viewBox="0 0 4000 2999.9999"
   xml:space="preserve"
   id="svg3865"
   sodipodi:docname="http_intro_02.svg"
   style="clip-rule:evenodd;fill-rule:evenodd;image-rendering:optimizeQuality;shape-rendering:geometricPrecision;text-rendering:geometricPrecision"
   inkscape:version="0.92.2 5c3e80d, 2017-08-06"><metadata
     id="metadata3869"><rdf:RDF><cc:Work
         rdf:about=""><dc:format>image/svg+xml</dc:format><dc:type
           rdf:resource="http://purl.org/dc/dcmitype/StillImage" /><dc:title /></cc:Work></rdf:RDF></metadata><sodipodi:namedview
     pagecolor="#ffffff"
     bordercolor="#666666"
     borderopacity="1"
     objecttolerance="10"
     gridtolerance="10"
     guidetolerance="10"
     inkscape:pageopacity="0"
     inkscape:pageshadow="2"
     inkscape:window-width="2048"
     inkscape:window-height="1088"
     id="namedview3867"
     showgrid="false"
     units="cm"
     inkscape:zoom="7.4524306"
     inkscape:cx="57.744025"
     inkscape:cy="62.06029"
     inkscape:window-x="0"
     inkscape:window-y="27"
     inkscape:window-maximized="1"
     inkscape:current-layer="svg3865" /><defs
     id="defs3815"><style
       type="text/css"
       id="style3808">
    .fil9 {fill:none}
    .fil11 {fill:#403F3F}
    .fil3 {fill:#4D4D4D}
    .fil7 {fill:#735345}
    .fil2 {fill:#7A7979}
    .fil15 {fill:#7C0015}
    .fil14 {fill:#9E0620}
    .fil4 {fill:#9F9D9B}
    .fil1 {fill:#B5B5B5}
    .fil13 {fill:#CCD8ED}
    .fil12 {fill:#E4EAF5}
    .fil10 {fill:#E6E6E6}
    .fil8 {fill:#EBBC96}
    .fil6 {fill:#FACAA3}
    .fil5 {fill:#4A4949;fill-rule:nonzero}
    .fil0 {fill:url(#a)}
  </style><linearGradient
       id="a"
       x1="11021"
       x2="8481.2002"
       y1="6936"
       y2="20641"
       gradientUnits="userSpaceOnUse"><stop
         stop-color="#fff"
         offset="0"
         id="stop3810" /><stop
         stop-color="#E6E6E6"
         offset="1"
         id="stop3812" /></linearGradient></defs><g
     id="g4518"
     transform="matrix(0.20504654,0,0,0.20504654,-187.93523,-1329.8162)"
     style="stroke-width:4.87694168"><path
       id="path3819"
       d="m 2621,13018 3791,-158 c 46,-5 79,16 92,72 l 917,6126 253,16 47,-110 606,-63 125,3 589,38 -3,-9 c -9,-29 -15,-67 -41,-156 -27,-90 -73,-231 -110,-378 -38,-146 -66,-298 -60,-424 7,-126 49,-225 120,-305 72,-81 173,-143 224,-201 51,-58 51,-114 113,-237 61,-123 185,-315 310,-516 126,-201 254,-410 342,-577 88,-166 137,-289 188,-404 50,-115 103,-221 198,-329 95,-108 232,-218 373,-359 141,-141 286,-313 419,-441 132,-128 251,-212 407,-278 157,-66 351,-115 477,-170 125,-55 183,-116 302,-172 119,-55 300,-103 418,-131 119,-28 175,-36 206,-62 32,-25 38,-68 49,-111 11,-43 27,-86 29,-138 2,-53 -9,-114 -32,-175 -24,-61 -61,-120 -93,-187 -31,-67 -59,-140 -81,-220 -22,-80 -39,-166 -50,-212 -12,-46 -18,-51 -38,-63 -20,-11 -53,-28 -83,-43 -29,-16 -55,-30 -74,-52 -20,-23 -32,-55 -39,-101 -6,-46 -6,-106 -7,-146 0,-39 -1,-57 -11,-84 -9,-27 -27,-63 -45,-108 -19,-45 -38,-99 -48,-141 -11,-41 -12,-71 -11,-94 1,-22 6,-38 14,-46 8,-9 19,-10 16,-47 -3,-36 -20,-106 -36,-213 -15,-107 -29,-250 -26,-382 2,-132 19,-252 65,-374 46,-122 120,-245 195,-317 76,-71 153,-91 204,-128 52,-37 77,-91 126,-145 49,-53 122,-106 244,-153 123,-48 295,-90 446,-103 152,-14 283,0 411,41 128,41 252,108 363,180 111,72 208,149 292,258 83,108 154,246 198,440 44,195 62,444 70,575 8,131 7,144 16,151 8,7 25,7 41,30 16,24 31,71 34,128 3,57 -4,123 -9,183 -5,60 -8,114 -11,175 -4,60 -10,128 -19,174 -9,46 -23,72 -51,98 -28,25 -71,52 -101,75 -31,23 -48,43 -60,94 -12,51 -19,132 -26,207 -6,74 -13,141 -25,200 -12,58 -30,108 -39,157 -8,49 -8,97 -7,137 2,40 5,71 17,104 11,34 31,70 46,101 15,31 25,56 46,74 21,18 53,27 81,37 29,9 54,18 79,36 25,17 49,44 94,59 45,16 110,20 207,41 97,21 226,58 325,84 100,26 171,41 258,74 88,33 193,84 371,169 179,84 431,201 629,310 198,109 341,211 423,286 82,75 101,123 142,189 41,66 103,150 280,425 178,274 471,739 669,1044 199,304 302,447 373,545 71,99 108,151 142,236 34,85 65,202 97,300 32,98 65,178 94,280 29,103 53,228 44,361 -9,132 -51,271 -87,400 -36,129 -67,248 -101,334 -35,86 -72,139 -120,180 -47,40 -104,69 -197,87 -92,17 -220,24 -559,69 -338,45 -887,129 -1220,173 -333,44 -450,49 -527,48 -77,-1 -115,-8 -242,12 -126,20 -342,66 -465,88 -122,22 -151,20 -152,0 -1,-20 25,-57 44,-128 19,-70 30,-174 13,-281 -16,-107 -60,-217 -135,-305 -75,-89 -181,-155 -278,-193 -97,-39 -185,-50 -305,-65 -121,-16 -273,-36 -400,-52 -126,-16 -228,-28 -310,-34 -82,-6 -145,-6 -194,10 -50,16 -86,48 -131,66 -45,18 -98,23 -146,34 -48,12 -91,31 -146,81 -55,50 -122,132 -164,183 -43,51 -60,72 -75,89 l -3,4 c -23,29 -46,58 -68,86 -39,51 -72,99 -94,137 -22,38 -33,67 -38,85 -1,4 -2,8 -3,11 l 1873,117 67,13 62,83 205,20 -7,218 -655,285 -354,-24 -57,195 -21,34 -306,-18 -20,-43 52,-192 -5896,-394 -79,181 -38,32 -270,-18 83,-211 3,-5 -206,-13 c -10,38 -34,71 -67,100 -61,53 -153,89 -242,107 -76,16 -151,17 -202,5 l -1998,-449 43,235 1922,506 c 47,34 41,153 -3,188 l -2782,606 c -45,10 -39,10 -82,-2 l -1713,-506 c -27,-8 -52,-71 -56,-133 -4,-58 10,-117 57,-128 l 1338,-333 c -14,-241 -10,-483 16,-724 l -474,-112 c -60,-13 -68,-31 -83,-79 -589,-1857 -845,-3699 -932,-5548 -2,-48 51,-82 121,-107 97,-33 227,-48 293,-55 z m 9665,5865 c -9,-18 -18,-39 -28,-60 -18,-40 -35,-82 -57,-121 -22,-39 -48,-75 -81,-115 -32,-39 -72,-82 -125,-125 -54,-44 -120,-88 -174,-112 -54,-24 -96,-28 -155,-27 -59,0 -135,5 -174,7 -38,2 -38,2 -42,-16 -4,-19 -12,-57 -26,-134 -13,-78 -31,-195 -42,-297 -12,-103 -16,-190 -20,-245 -5,-55 -9,-79 -18,-71 -8,7 -20,46 -28,86 -8,39 -13,78 -19,117 -7,40 -15,79 -38,118 -23,40 -61,78 -93,106 -31,27 -56,44 -72,62 -16,18 -24,38 -43,60 -20,21 -51,44 -59,57 -9,14 4,17 37,24 33,7 86,18 135,32 49,13 94,29 132,48 39,19 69,41 87,55 17,15 21,21 -2,28 -22,7 -71,15 -109,18 -38,3 -64,1 -103,-7 -38,-8 -88,-23 -140,-40 -51,-18 -104,-38 -170,-38 -66,0 -145,19 -210,49 -65,29 -117,68 -156,109 -39,41 -66,84 -87,131 -21,48 -37,101 -43,150 -6,48 -2,93 7,134 10,41 25,78 37,103 8,19 14,32 9,55 l 1949,122 c 0,-2 1,-5 1,-7 2,-10 3,-19 1,-33 -1,-14 -5,-33 -14,-61 -10,-29 -25,-68 -44,-111 -7,-17 -15,-34 -23,-51 z"
       class="fil1"
       inkscape:connector-curvature="0"
       style="fill:#b5b5b5;stroke-width:4.87694168" /><path
       id="path3821"
       d="m 2328,13073 3734,-104 c 48,-1 73,37 80,83 l 972,6610 c 14,-2 28,-5 42,-8 89,-18 181,-54 242,-107 33,-29 57,-62 67,-100 l 293,19 6816,457 655,-285 2,-57 -622,165 -7154,-464 -951,-6350 c -13,-56 -46,-77 -92,-72 l -3791,158 c -66,7 -196,22 -293,55 z"
       class="fil2"
       inkscape:connector-curvature="0"
       style="fill:#7a7979;stroke-width:4.87694168" /><path
       id="path3823"
       d="m 8327,18904 -606,63 -47,110 6905,447 452,-121 -62,-82 -91,-12 -423,-26 c 3,-1 -18,6 31,-7 4,-1 9,-2 13,-4 l -445,-28 c 0,3 1,5 1,7 l -62,-3 5,-7 -293,-18 c 0,2 -1,4 -1,7 l -108,-7 5,-7 -1555,-97 5,7 -138,-8 c 0,-3 0,-5 -1,-7 l -327,-21 4,7 -94,-5 -1,-7 -327,-21 5,7 -114,-7 c -1,-2 -2,-4 -3,-7 l -1505,-94 -92,76 -47,-3 -36,-69 -923,-60 z"
       class="fil3"
       inkscape:connector-curvature="0"
       style="fill:#4d4d4d;stroke-width:4.87694168" /><polygon
       id="polygon3825"
       points="15031,19403 14579,19524 7674,19077 7721,18967 14536,19385 14969,19321 "
       class="fil4"
       style="fill:#9f9d9b;stroke-width:4.87694168" /><path
       id="path3827"
       d="m 7641,19662 c -10,0 -17,-9 -16,-18 0,-10 9,-17 18,-17 l 178,13 c 10,0 17,9 16,18 0,10 -9,17 -18,17 z m 6242,429 c -10,-1 -17,-9 -17,-19 1,-10 9,-17 19,-17 l 207,11 c 10,0 17,8 17,18 -1,10 -9,17 -18,17 z"
       class="fil5"
       inkscape:connector-curvature="0"
       style="fill:#4a4949;fill-rule:nonzero;stroke-width:4.87694168" /><path
       id="path3829"
       d="m 3230,15429 -25,2 c -70,300 -86,623 -43,928 42,296 140,574 299,793 l 40,3 c 44,-4 1089,151 1129,140 -287,-481 -382,-1254 -261,-1766 -3,-18 -19,-18 -35,-18 z"
       class="fil3"
       inkscape:connector-curvature="0"
       style="fill:#4d4d4d;stroke-width:4.87694168" /><path
       id="path3831"
       d="m 14049,10051 c -128,-41 -259,-55 -411,-41 -151,13 -323,55 -446,103 -122,47 -195,100 -244,153 -49,54 -74,108 -126,145 -51,37 -128,57 -204,128 -75,72 -149,195 -195,317 -46,122 -63,242 -65,374 -3,132 11,275 26,382 16,107 33,177 36,213 3,37 -8,38 -16,47 -8,8 -13,24 -14,46 -1,23 0,53 11,94 10,42 29,96 48,141 18,45 36,81 45,108 10,27 11,45 11,84 1,40 1,100 7,146 7,46 19,78 39,101 19,22 45,36 74,52 30,15 63,32 83,43 20,12 26,17 38,63 11,46 28,132 50,212 22,80 50,153 81,220 32,67 69,126 93,187 l 12,36 c 14,44 21,89 20,128 6,46 11,103 24,157 14,60 37,119 68,176 30,56 67,112 141,192 73,79 182,184 275,270 93,85 171,151 217,187 46,36 62,41 97,19 35,-22 90,-71 173,-139 83,-68 193,-154 296,-247 104,-92 200,-191 267,-272 67,-81 105,-143 128,-197 24,-54 34,-100 38,-145 3,-38 2,-75 9,-108 l -3,-9 c -12,-33 -15,-64 -17,-104 -1,-40 -1,-88 7,-137 9,-49 27,-99 39,-157 12,-59 19,-126 25,-200 7,-75 14,-156 26,-207 12,-51 29,-71 60,-94 30,-23 73,-50 101,-75 28,-26 42,-52 51,-98 9,-46 15,-114 19,-174 3,-61 6,-115 11,-175 5,-60 12,-126 9,-183 -3,-57 -18,-104 -34,-128 -16,-23 -33,-23 -41,-30 -9,-7 -8,-20 -16,-151 -8,-131 -26,-380 -70,-575 -44,-194 -115,-332 -198,-440 -84,-109 -181,-186 -292,-258 -111,-72 -235,-139 -363,-180 z"
       class="fil6"
       inkscape:connector-curvature="0"
       style="fill:#facaa3;stroke-width:4.87694168" /><path
       id="path3833"
       d="m 14049,10051 c -128,-41 -259,-55 -411,-41 -151,13 -323,55 -446,103 -122,47 -195,100 -244,153 -49,54 -74,108 -126,145 -51,37 -128,57 -204,128 -75,72 -149,195 -195,317 -46,122 -63,242 -65,374 -3,132 11,275 26,382 16,107 33,177 36,213 2,20 -1,29 -5,35 30,27 43,46 56,74 17,38 33,91 56,167 24,75 53,173 84,265 30,91 61,176 71,192 11,15 1,-39 -13,-116 -14,-77 -31,-178 -41,-280 -9,-103 -10,-207 2,-301 12,-93 37,-174 37,-259 0,-84 -25,-171 -31,-247 -6,-75 7,-139 50,-192 43,-53 116,-95 222,-131 107,-36 247,-67 412,-93 165,-26 356,-47 512,-43 155,5 275,34 394,101 119,66 237,168 285,276 48,107 26,220 45,295 20,75 80,112 126,160 45,47 75,104 91,185 16,81 18,186 19,282 2,96 3,183 10,188 6,6 18,-70 31,-151 12,-80 24,-165 37,-244 12,-79 25,-151 45,-206 19,-51 43,-86 90,-118 -7,-4 -13,-6 -17,-9 -9,-7 -8,-20 -16,-151 -8,-131 -26,-380 -70,-575 -44,-194 -115,-332 -198,-440 -84,-109 -181,-186 -292,-258 -111,-72 -235,-139 -363,-180 z"
       class="fil7"
       inkscape:connector-curvature="0"
       style="fill:#735345;stroke-width:4.87694168" /><path
       id="path3835"
       d="m 13842,13983 c -83,7 -165,0 -239,-25 -75,-25 -142,-68 -211,-119 -69,-52 -139,-113 -196,-176 -57,-62 -100,-127 -134,-174 -34,-46 -60,-74 -82,-107 l -15,-24 c 2,4 3,7 5,11 22,57 33,114 32,164 6,46 11,103 24,157 14,60 37,119 68,176 30,56 67,112 141,192 73,79 182,184 275,270 93,85 171,151 217,187 46,36 62,41 97,19 35,-22 90,-71 173,-139 83,-68 193,-154 296,-247 104,-92 200,-191 267,-272 67,-81 105,-143 128,-197 24,-54 34,-100 38,-145 3,-38 2,-75 9,-108 l -3,-9 c -12,-33 -15,-64 -17,-104 -1,-32 -1,-70 3,-109 -42,47 -77,104 -131,179 -61,85 -146,196 -232,291 -86,96 -173,178 -259,229 -86,51 -171,72 -254,80 z"
       class="fil8"
       inkscape:connector-curvature="0"
       style="fill:#ebbc96;stroke-width:4.87694168" /><path
       id="path3837"
       d="m 12201,18702 c -22,-39 -48,-75 -81,-115 -32,-39 -72,-82 -125,-125 -54,-44 -120,-88 -174,-112 -54,-24 -96,-28 -155,-27 -48,0 -109,3 -150,6 -75,11 -96,15 -115,20 -1,0 -3,1 -4,1 -1,4 -5,7 -16,10 -22,7 -71,15 -109,18 -38,3 -64,1 -103,-7 -38,-8 -88,-23 -140,-40 -51,-18 -104,-38 -170,-38 -66,0 -145,19 -210,49 -65,29 -117,68 -156,109 -39,41 -66,84 -87,131 -21,48 -37,101 -43,150 -6,48 -2,93 7,134 10,41 25,78 37,103 5,14 10,24 11,36 8,9 17,16 26,21 13,8 27,13 49,17 42,9 109,14 154,21 45,6 67,14 96,34 28,19 64,51 107,67 43,17 92,19 128,18 35,-2 56,-9 70,-25 14,-17 21,-45 14,-77 -1,-5 -2,-11 -4,-17 -9,-27 -26,-56 -42,-80 -20,-30 -38,-53 -34,-71 4,-19 31,-34 54,-28 23,7 42,34 73,85 18,29 41,67 63,101 15,25 30,47 44,64 34,42 59,53 100,57 40,5 97,3 131,-2 34,-5 45,-14 50,-31 5,-16 6,-38 -2,-67 0,-3 -1,-6 -2,-8 -9,-34 -28,-75 -56,-130 -28,-54 -65,-121 -73,-163 -7,-42 15,-60 40,-43 24,17 50,68 86,143 31,65 70,148 99,206 4,9 8,17 12,25 30,58 44,76 74,88 30,12 76,17 109,18 32,0 51,-5 68,-10 18,-5 34,-10 45,-23 11,-12 18,-33 17,-64 0,-4 0,-9 -1,-13 -2,-30 -10,-69 -23,-116 -14,-53 -35,-118 -56,-173 -20,-55 -39,-100 -42,-113 -4,-13 9,7 41,58 32,51 82,133 124,203 37,60 67,110 94,149 4,6 8,12 12,17 30,41 56,67 88,81 31,13 67,16 100,12 34,-4 66,-13 86,-32 16,-15 25,-37 29,-58 1,-5 2,-10 2,-14 3,-26 0,-48 -9,-77 -9,-29 -23,-63 -41,-103 -4,-9 -8,-17 -11,-27 0,-1 -1,-1 -1,-2 -12,-23 -30,-60 -48,-100 -18,-40 -35,-82 -57,-121 z"
       class="fil9"
       inkscape:connector-curvature="0"
       style="fill:none;stroke-width:4.87694168" /><path
       id="path3839"
       d="m 10859,18293 c -66,0 -145,19 -210,49 -65,29 -117,68 -156,109 -39,41 -66,84 -87,131 -21,48 -37,101 -43,150 -6,48 -2,93 7,134 10,41 25,78 37,103 5,14 10,24 11,36 8,9 17,16 26,21 13,8 27,13 49,17 42,9 109,14 154,21 45,6 67,14 96,34 28,19 64,51 107,67 43,17 92,19 128,18 35,-2 56,-9 70,-25 14,-17 21,-45 14,-77 -1,-5 -2,-11 -4,-17 -9,-27 -26,-56 -42,-80 -20,-30 -38,-53 -34,-71 4,-19 31,-34 54,-28 23,7 42,34 73,85 18,29 41,67 63,101 15,25 30,47 44,64 34,42 59,53 100,57 40,5 97,3 131,-2 34,-5 45,-14 50,-31 5,-16 6,-38 -2,-67 0,-3 -1,-6 -2,-8 -9,-34 -28,-75 -56,-130 -28,-54 -65,-121 -73,-163 -7,-42 15,-60 40,-43 24,17 50,68 86,143 31,65 70,148 99,206 4,9 8,17 12,25 30,58 44,76 74,88 30,12 76,17 109,18 32,0 51,-5 68,-10 18,-5 34,-10 45,-23 11,-12 18,-33 17,-64 l -1,-13 c -2,-30 -10,-69 -23,-116 -14,-53 -35,-118 -56,-173 -20,-55 -39,-100 -42,-113 -4,-13 9,7 41,58 32,51 82,133 124,203 37,60 67,110 94,149 4,6 8,12 12,17 30,41 56,67 88,81 31,13 67,16 100,12 34,-4 66,-13 86,-32 16,-15 25,-37 29,-58 l 2,-14 c 3,-26 0,-48 -9,-77 -9,-29 -23,-63 -41,-103 -4,-9 -8,-17 -11,-27 0,-1 -1,-1 -1,-2 -12,-23 -30,-60 -48,-100 -18,-40 -35,-82 -57,-121 -22,-39 -48,-75 -81,-115 -32,-39 -72,-82 -125,-125 -54,-44 -120,-88 -174,-112 -54,-24 -96,-28 -155,-27 -48,0 -109,3 -150,6 -75,11 -96,15 -115,20 -1,0 -3,1 -4,1 -1,4 -5,7 -16,10 -22,7 -71,15 -109,18 -38,3 -64,1 -103,-7 -38,-8 -88,-23 -140,-40 -51,-18 -104,-38 -170,-38 z"
       class="fil6"
       inkscape:connector-curvature="0"
       style="fill:#facaa3;stroke-width:4.87694168" /><path
       id="path3841"
       d="m 11649,18403 c 9,2 39,22 84,82 44,59 101,158 160,266 58,107 116,222 158,298 43,76 68,113 97,134 28,21 59,26 88,22 29,-3 56,-15 82,-42 17,-18 33,-42 51,-53 v 7 c 0,5 0,10 -1,15 l -2,14 c -4,21 -13,43 -29,58 -20,19 -52,28 -86,32 -33,4 -69,1 -100,-12 -32,-14 -58,-40 -88,-81 -4,-5 -8,-11 -12,-17 -27,-39 -57,-89 -94,-149 -42,-70 -92,-152 -124,-203 -32,-51 -45,-71 -41,-58 3,13 22,58 42,113 21,55 42,120 56,173 13,47 21,86 23,116 v 4 l 1,7 v 9 c 0,28 -7,46 -17,57 -11,13 -27,18 -45,23 -17,5 -36,10 -68,10 -33,-1 -79,-6 -109,-18 -30,-12 -44,-30 -74,-88 -4,-8 -8,-16 -12,-25 -29,-58 -68,-141 -99,-206 -36,-75 -62,-126 -86,-143 -25,-17 -47,1 -40,43 8,42 45,109 73,163 28,55 47,96 56,130 1,2 2,5 2,8 l 1,1 h -1 c 4,14 6,27 6,38 v 3 c 0,9 -1,18 -4,25 -5,17 -16,26 -50,31 -34,5 -91,7 -131,2 -41,-4 -66,-15 -100,-57 -14,-17 -29,-39 -44,-64 -22,-34 -45,-72 -63,-101 -31,-51 -50,-78 -73,-85 -23,-6 -50,9 -54,28 -4,18 14,41 34,71 16,24 33,53 42,80 v 1 c 2,6 3,12 4,17 2,8 3,15 3,22 v 2 c 0,21 -7,39 -17,52 -14,16 -35,23 -70,25 -36,1 -85,-1 -128,-18 -43,-16 -79,-48 -107,-67 -29,-20 -51,-28 -96,-34 l -5,-1 c -8,-15 -24,-35 -38,-54 -22,-32 -38,-62 -43,-101 -5,-39 1,-86 16,-80 15,6 39,65 68,119 30,54 64,103 109,138 45,35 102,56 146,63 44,6 74,-2 95,-18 21,-17 32,-41 30,-76 -2,-34 -17,-78 -45,-121 -27,-43 -68,-84 -93,-123 -26,-39 -37,-76 -39,-112 -2,-36 5,-72 19,-104 13,-33 33,-62 46,-55 12,7 17,51 40,112 23,60 63,138 107,217 43,78 88,158 131,212 43,54 84,84 126,98 42,15 86,14 117,5 31,-9 49,-26 32,-94 -17,-67 -69,-184 -115,-292 -45,-108 -84,-206 -93,-264 -8,-59 14,-77 42,-49 29,29 64,105 110,201 46,97 102,214 147,301 45,88 80,146 119,177 40,30 85,32 120,16 34,-16 58,-51 67,-98 10,-47 6,-106 -19,-197 -25,-92 -70,-216 -104,-297 -33,-81 -55,-119 -72,-145 -17,-27 -29,-42 -19,-39 z m -1289,380 c 0,29 4,57 10,83 10,41 25,78 37,103 4,11 8,20 10,30 1,4 3,7 5,10 7,7 14,12 22,17 13,8 27,13 49,17 11,2 25,5 39,7 -19,-21 -29,-46 -33,-76 -5,-38 2,-82 7,-143 6,-60 11,-136 49,-208 38,-71 109,-138 189,-180 80,-41 169,-59 230,-69 55,-10 87,-15 144,-15 h -1 l -1,-1 h -3 l -1,-1 h -3 l -1,-1 h -3 l -1,-1 h -2 l -1,-1 h -2 l -1,-1 h -3 l -1,-1 h -2 l -1,-1 h -2 l -1,-1 h -2 l -2,-1 h -2 l -1,-1 h -2 l -1,-1 h -3 v -1 h -3 l -1,-1 h -1 l -2,-1 h -3 l -1,-1 h -2 l -1,-1 h -1 l -2,-1 h -2 l -1,-1 h -2 l -1,-1 h -2 l -1,-1 h -2 l -1,-1 h -2 l -2,-1 h -1 l -1,-1 h -2 l -1,-1 h -2 l -1,-1 h -2 l -1,-1 h -2 c -51,-17 -104,-38 -170,-38 -66,0 -145,19 -210,49 -65,29 -117,69 -156,109 -39,41 -66,84 -87,131 -21,48 -37,101 -43,150 -2,14 -3,28 -3,42 z"
       class="fil8"
       inkscape:connector-curvature="0"
       style="fill:#ebbc96;stroke-width:4.87694168" /><path
       id="path3843"
       d="m 15468,19435 c -87,29 -151,32 -213,23 -68,-9 -134,-32 -176,-65 -43,-32 -62,-74 -97,-100 -34,-25 -85,-34 -130,-48 -45,-14 -85,-32 -142,-28 -56,5 -129,34 -224,59 -95,25 -211,46 -286,49 -75,3 -108,-11 -127,-33 -19,-22 -25,-52 -11,-84 15,-33 49,-68 133,-118 83,-51 217,-116 298,-157 82,-41 112,-59 152,-72 40,-12 91,-20 125,-32 34,-12 52,-29 12,-30 -39,-2 -136,11 -221,36 -85,26 -158,63 -236,113 -78,51 -162,113 -225,176 -62,63 -103,126 -149,166 -47,39 -100,56 -144,52 -44,-4 -80,-28 -95,-59 -16,-32 -11,-70 16,-126 28,-55 79,-126 137,-201 59,-75 125,-154 172,-208 47,-55 76,-86 44,-54 -33,31 -127,125 -190,188 -63,64 -96,97 -138,145 -41,48 -91,111 -127,157 -35,46 -57,76 -93,95 -36,18 -86,26 -123,22 -38,-5 -63,-21 -78,-36 -15,-15 -19,-28 -40,-23 -21,5 -59,28 -101,34 -41,7 -88,-3 -120,-21 -33,-18 -51,-43 -43,-83 7,-39 41,-91 74,-137 31,-44 61,-86 96,-127 10,-12 22,-26 37,-44 15,-17 32,-38 75,-89 42,-51 109,-133 164,-183 55,-50 98,-69 146,-81 48,-11 101,-16 146,-34 45,-18 81,-50 131,-66 49,-16 112,-16 194,-10 82,6 184,18 310,34 127,16 279,36 400,52 120,15 208,26 305,65 97,38 203,104 278,193 75,88 119,198 135,305 17,107 6,211 -13,281 -13,49 -29,82 -38,104 z"
       class="fil6"
       inkscape:connector-curvature="0"
       style="fill:#facaa3;stroke-width:4.87694168" /><path
       id="path3845"
       d="m 13053,19243 c 7,3 14,4 21,6 37,6 78,5 116,-13 39,-18 76,-55 113,-105 37,-51 75,-115 114,-179 40,-63 81,-126 80,-119 -1,7 -45,83 -79,148 -35,65 -61,118 -73,158 -13,40 -12,67 -4,86 8,20 22,32 44,38 22,6 52,6 93,-19 41,-25 93,-74 158,-143 64,-70 140,-158 215,-242 76,-83 151,-161 211,-215 60,-54 105,-84 149,-106 43,-23 85,-38 78,-25 -8,13 -65,54 -117,99 -52,46 -98,96 -157,165 -58,69 -128,156 -179,224 -51,69 -83,120 -98,158 -15,38 -14,64 -6,85 8,22 22,38 51,43 28,4 69,-4 119,-43 49,-40 107,-112 192,-194 84,-83 196,-177 290,-232 95,-56 172,-73 240,-69 67,4 123,29 146,46 1,1 3,2 4,3 -44,1 -134,14 -213,37 -85,26 -158,63 -236,113 -78,51 -162,113 -225,176 -62,63 -103,126 -149,166 -47,39 -100,56 -144,52 -44,-4 -80,-28 -95,-59 -16,-32 -11,-70 16,-126 28,-55 79,-126 137,-201 59,-75 125,-154 172,-208 47,-55 76,-86 44,-54 -33,31 -127,125 -190,188 -63,64 -96,97 -138,145 -41,48 -91,111 -127,157 -35,46 -57,76 -93,95 -36,18 -86,26 -123,22 -38,-5 -63,-21 -78,-36 -15,-15 -19,-28 -40,-23 -21,5 -59,28 -101,34 -41,7 -88,-3 -120,-21 -7,-3 -13,-7 -18,-12 z m 1691,-406 c -14,7 -31,15 -53,25 -91,42 -261,116 -376,174 -115,58 -174,100 -206,133 -33,33 -38,58 -28,77 10,19 35,32 115,27 80,-5 214,-27 318,-49 103,-23 175,-46 236,-58 62,-11 112,-11 163,11 51,23 103,68 144,107 41,39 72,72 109,98 38,26 81,47 122,57 42,11 81,12 112,-19 31,-30 53,-92 58,-181 4,-88 -10,-203 -52,-312 -42,-109 -112,-213 -217,-303 -30,-27 -64,-53 -94,-76 4,1 7,2 11,4 97,38 203,104 278,193 75,88 119,198 135,305 17,107 6,211 -13,281 -13,49 -29,82 -38,104 -87,29 -151,32 -213,23 -68,-9 -134,-32 -176,-65 -43,-32 -62,-74 -97,-100 -34,-25 -85,-34 -130,-48 -45,-14 -85,-32 -142,-28 -56,5 -129,34 -224,59 -95,25 -211,46 -286,49 -75,3 -108,-11 -127,-33 -19,-22 -25,-52 -11,-84 15,-33 49,-68 133,-118 83,-51 217,-116 298,-157 82,-41 112,-59 152,-72 31,-9 68,-16 99,-24 z"
       class="fil8"
       inkscape:connector-curvature="0"
       style="fill:#ebbc96;stroke-width:4.87694168" /><path
       id="path3847"
       d="m 6395,12918 c -52,15 -105,29 -157,43 -32,12 -40,31 -33,56 l 977,6481 c 5,35 28,85 76,57 l 114,-69 c 38,-24 32,-66 23,-128 l -955,-6411 c -3,-34 -13,-38 -45,-29 z"
       class="fil3"
       inkscape:connector-curvature="0"
       style="fill:#4d4d4d;stroke-width:4.87694168" /><path
       id="path3849"
       d="m 7114,19662 -972,-6610 c -7,-46 -32,-84 -80,-83 l -128,3 c -253,542 -433,1108 -535,1680 -110,623 -129,1252 -49,1866 149,1148 643,2240 1522,3123 l 82,18 c 42,10 99,11 160,3 z"
       class="fil10"
       inkscape:connector-curvature="0"
       style="fill:#e6e6e6;stroke-width:4.87694168" /><path
       id="path3851"
       d="m 3849,17557 880,119 c -104,725 -161,1471 -185,2232 l 556,-48 -101,-415 1922,506 -2857,536 -1722,-511 1337,-333 c -15,-672 47,-1364 170,-2086 z"
       class="fil3"
       inkscape:connector-curvature="0"
       style="fill:#4d4d4d;stroke-width:4.87694168" /><path
       id="path3853"
       d="m 11109,18970 c -31,-51 -50,-78 -73,-85 -23,-6 -50,9 -54,28 -4,18 14,41 34,71 16,24 33,53 42,80 l 114,7 c -22,-34 -45,-72 -63,-101 z m 480,127 c -29,-58 -68,-141 -99,-206 -36,-75 -62,-126 -86,-143 -25,-17 -47,1 -40,43 8,42 45,109 73,163 28,55 47,96 56,130 l 2,8 z m 462,29 c -27,-39 -57,-89 -94,-149 -42,-70 -92,-152 -124,-203 -32,-51 -45,-71 -41,-58 3,13 22,58 42,113 21,55 42,120 56,173 13,47 21,86 23,116 z m 1702,-99 c -41,48 -91,111 -127,157 -11,14 -21,27 -30,39 l 108,7 c 2,-21 10,-45 24,-73 28,-55 79,-126 137,-201 59,-75 125,-154 172,-208 47,-55 76,-86 44,-54 -33,31 -127,125 -190,188 -63,64 -96,97 -138,145 z m 808,-192 c -85,26 -158,63 -236,113 -78,51 -162,113 -225,176 -43,44 -76,88 -107,124 l 62,3 c -2,-13 1,-28 7,-43 15,-33 49,-68 133,-118 83,-51 217,-116 298,-157 82,-41 112,-59 152,-72 31,-9 68,-16 99,-24 9,-3 18,-5 26,-8 34,-12 52,-29 12,-30 -2,-1 -5,-1 -8,-1 -44,1 -134,14 -213,37 z m 291,410 c -45,-14 -85,-32 -142,-28 -56,5 -175,46 -224,59 -49,13 -28,6 -31,7 l 423,26 91,12 62,82 68,4 c -7,-5 -14,-9 -20,-14 -43,-32 -62,-74 -97,-100 -34,-25 -85,-34 -130,-48 z"
       class="fil11"
       inkscape:connector-curvature="0"
       style="fill:#403f3f;stroke-width:4.87694168" /><path
       id="path3855"
       d="m 11397,18350 h -1 c -13,6 -26,11 -49,16 -22,4 -55,9 -81,10 -27,2 -48,1 -78,-4 -31,-6 -71,-15 -113,-27 -10,-3 -21,-6 -31,-9 l -15,-5 c -26,-9 -53,-19 -82,-26 -18,-6 -30,-9 -52,-10 h -3 c -11,-2 -22,-2 -33,-2 -66,0 -145,19 -210,49 -65,29 -117,68 -156,109 -39,41 -66,84 -87,131 -21,48 -37,101 -43,150 -6,48 -2,93 7,134 10,39 24,75 35,101 6,16 10,30 13,39 0,5 0,11 -1,17 -10,2 -42,0 -136,-6 -137,-9 -410,-25 -639,-38 -230,-14 -415,-26 -584,-67 -9,-2 -18,-4 -27,-7 -7,-26 -15,-64 -34,-128 -27,-90 -73,-231 -110,-378 -38,-146 -66,-298 -60,-424 7,-126 49,-225 120,-305 72,-81 173,-143 224,-201 51,-58 51,-114 113,-237 61,-123 185,-315 310,-516 126,-201 254,-410 342,-577 88,-166 137,-289 188,-404 50,-115 103,-221 198,-329 95,-108 232,-218 373,-359 141,-141 286,-313 419,-441 132,-128 251,-212 407,-278 157,-66 351,-115 477,-170 125,-55 183,-116 302,-172 119,-55 300,-103 418,-131 119,-28 175,-36 206,-62 32,-25 38,-68 49,-111 11,-43 27,-86 29,-138 v -11 c 6,46 11,103 24,157 14,60 37,119 68,176 30,56 67,112 141,192 73,79 182,184 275,270 93,85 171,151 217,187 46,36 62,41 97,19 35,-22 90,-71 173,-139 83,-68 193,-154 296,-247 104,-92 200,-191 267,-272 67,-81 105,-143 128,-197 24,-54 34,-100 38,-145 l 3,-54 31,1 c 6,13 12,25 18,37 15,31 25,56 46,74 21,18 53,27 81,37 29,9 54,18 79,36 25,17 49,44 94,59 45,16 110,20 207,41 97,21 226,58 325,84 100,26 171,41 258,74 88,33 193,84 371,169 179,84 431,201 629,310 198,109 341,211 423,286 82,75 101,123 142,189 41,66 103,150 280,425 178,274 471,739 669,1044 199,304 302,447 373,545 71,99 108,151 142,236 34,85 65,202 97,300 32,98 65,178 94,280 29,103 53,228 44,361 -9,132 -51,271 -87,400 -36,129 -67,248 -101,334 -35,86 -72,139 -120,180 -47,40 -104,69 -197,87 -92,17 -220,24 -559,69 -338,45 -887,129 -1220,173 -333,44 -450,49 -527,48 -77,-1 -115,-8 -242,12 -126,20 -342,66 -465,88 -95,17 -133,20 -146,11 5,-27 10,-51 16,-73 7,-18 15,-40 22,-66 19,-70 30,-174 13,-281 -16,-107 -60,-217 -135,-305 -75,-89 -181,-155 -278,-193 -97,-39 -185,-50 -305,-65 -121,-16 -273,-36 -400,-52 -126,-16 -228,-28 -310,-34 -60,-4 -109,-5 -151,0 -9,1 -17,3 -25,5 -9,2 -18,5 -27,8 -22,8 -43,20 -62,31 -13,8 -27,15 -38,21 -19,9 -34,15 -58,21 -19,5 -44,10 -69,16 -14,3 -27,5 -41,8 -48,12 -91,31 -146,81 -55,50 -122,132 -164,183 l -32,37 v 1 l -26,31 -1,1 -1,1 -1,1 v 1 l -14,16 c -15,18 -27,32 -37,44 l -6,7 v 1 c -8,8 -15,16 -21,21 -4,4 -7,7 -10,9 -15,5 -49,9 -141,11 -65,2 -161,3 -258,3 l -50,-1 c -120,-1 -207,-2 -266,-5 -59,-3 -89,-6 -105,-7 h -4 c -21,-5 -25,-13 -31,-24 -5,-10 -11,-21 -17,-34 v -1 l -7,-13 c -6,-14 -13,-30 -21,-47 l -3,-5 c -18,-40 -35,-82 -57,-121 -22,-39 -48,-75 -81,-115 -32,-39 -72,-82 -125,-125 -54,-44 -120,-88 -174,-112 -54,-24 -96,-28 -155,-27 -46,0 -104,3 -145,5 l -20,1 c -15,1 -28,1 -39,2 -8,-2 -9,-6 -12,-17 -4,-19 -12,-57 -26,-134 -13,-78 -31,-195 -42,-297 -12,-103 -16,-190 -20,-245 -5,-55 -9,-79 -18,-71 -8,7 -20,46 -28,86 -8,39 -13,78 -19,117 -7,40 -15,79 -38,118 -23,40 -61,78 -93,106 -31,27 -56,44 -72,62 -16,18 -24,38 -43,60 -20,21 -51,44 -59,57 -9,14 4,17 37,24 33,7 86,18 135,32 49,13 94,29 132,48 39,19 69,41 87,55 9,8 14,13 14,18 z"
       class="fil12"
       inkscape:connector-curvature="0"
       style="fill:#e4eaf5;stroke-width:4.87694168" /><path
       id="path3857"
       d="m 14902,13776 c 24,43 67,120 88,196 22,76 22,151 7,257 -16,107 -47,245 -83,359 -35,114 -76,204 -110,300 -33,95 -60,195 -78,280 -17,85 -26,155 -79,141 -54,-13 -152,-109 -246,-173 -93,-64 -183,-96 -248,-96 -65,-1 -106,30 -116,14 -10,-16 11,-79 22,-122 11,-43 13,-66 -12,-99 -25,-34 -76,-78 -135,-111 -60,-33 -128,-55 -180,-55 -52,1 -87,24 -134,75 -48,51 -107,131 -127,189 -19,58 2,94 12,116 11,23 11,32 -14,52 -25,20 -74,50 -125,95 -51,44 -103,101 -120,101 -17,0 1,-57 -13,-67 -14,-10 -59,27 -54,11 4,-16 58,-85 145,-192 87,-107 207,-251 284,-337 77,-85 110,-112 137,-122 28,-10 50,-3 90,25 39,28 97,77 176,142 79,65 179,146 265,204 85,58 157,93 222,123 65,30 124,54 162,49 38,-5 55,-39 97,-157 42,-119 108,-322 155,-471 46,-148 72,-243 76,-337 4,-94 -15,-186 -39,-267 -25,-80 -56,-149 -67,-177 -11,-29 -2,-18 5,-8 7,10 12,19 37,62 z m 1716,1256 c -10,88 -52,280 -72,440 -19,160 -17,288 -21,390 -3,103 -12,180 25,185 36,6 118,-60 164,-86 46,-25 57,-10 24,92 -33,101 -110,289 -160,463 -49,174 -71,335 -82,455 -11,120 -11,200 2,218 13,19 40,-23 87,-127 47,-105 116,-273 157,-265 40,8 54,191 46,362 -8,171 -37,329 -45,426 -9,97 2,133 47,128 45,-4 125,-48 176,-48 52,0 77,44 121,58 44,14 108,-1 194,-68 86,-68 194,-187 295,-269 102,-83 196,-129 192,-104 -4,25 -108,122 -153,182 -46,60 -32,82 23,65 55,-16 152,-72 264,-110 113,-39 241,-61 366,-70 126,-8 250,-4 347,24 97,27 167,78 151,99 -17,21 -121,12 -266,9 -146,-4 -333,-2 -558,49 -225,51 -487,150 -694,232 -208,81 -360,145 -493,214 -134,68 -248,141 -317,184 -68,43 -90,56 -127,60 -38,5 -91,0 -81,-18 10,-19 83,-52 118,-158 35,-106 33,-285 21,-468 -12,-183 -34,-370 -22,-579 12,-210 58,-441 84,-641 25,-199 29,-367 38,-534 9,-166 22,-331 42,-472 20,-142 46,-258 71,-325 24,-66 46,-81 36,7 z m -5745,346 c 14,0 31,218 74,386 43,168 112,284 172,190 61,-95 114,-402 137,-420 23,-19 16,250 9,495 -8,244 -17,465 5,678 22,212 75,417 141,602 66,184 146,347 332,391 186,44 480,-31 592,8 113,38 44,190 -18,337 -61,147 -116,288 -102,339 14,52 98,15 237,-186 139,-200 333,-564 483,-881 149,-317 255,-586 245,-513 -10,72 -135,487 -268,818 -134,331 -275,578 -348,750 -72,172 -77,269 -55,342 22,73 71,121 172,143 102,22 256,18 425,-76 168,-93 351,-276 498,-355 124,-67 221,-59 278,-9 -20,8 -38,18 -56,28 -13,8 -27,15 -38,21 -19,9 -34,15 -58,21 -19,5 -44,10 -69,16 -14,3 -27,5 -41,8 -48,12 -91,31 -146,81 -55,50 -122,132 -164,183 l -32,37 v 1 l -26,31 -1,1 -1,1 -1,1 v 1 l -14,16 c -15,18 -27,32 -37,44 l -6,7 v 1 c -8,8 -15,16 -21,21 -4,4 -7,7 -10,9 -15,5 -49,9 -141,11 -65,2 -161,3 -258,3 l -50,-1 c -120,-1 -207,-2 -266,-5 -59,-3 -89,-6 -105,-7 h -4 c -21,-5 -25,-13 -31,-24 -5,-10 -11,-21 -17,-34 v -1 l -7,-13 c -6,-14 -13,-30 -21,-47 l -3,-5 c -18,-40 -35,-82 -57,-121 -22,-39 -48,-75 -81,-115 -32,-39 -72,-82 -125,-125 -54,-44 -120,-88 -174,-112 -54,-24 -96,-28 -155,-27 -46,0 -104,3 -145,5 l -20,1 c -15,1 -28,1 -39,2 -8,-2 -9,-6 -12,-17 -4,-19 -12,-57 -26,-134 -13,-78 -31,-195 -42,-297 -12,-103 -16,-190 -20,-245 -5,-55 -9,-79 -18,-71 -8,7 -20,46 -28,86 -8,39 -13,78 -19,117 -7,40 -15,79 -38,118 -23,40 -61,78 -93,106 -31,27 -56,44 -72,62 -16,18 -24,38 -43,60 -20,21 -51,44 -59,57 v 1 c -30,-7 -50,-11 -69,-16 -29,-8 -53,-18 -79,-38 -26,-19 -54,-49 -62,-116 -8,-68 4,-173 26,-252 23,-79 56,-131 97,-115 42,16 91,100 133,162 41,62 74,103 111,86 37,-18 78,-94 97,-180 19,-85 17,-180 -9,-358 -26,-179 -75,-441 -108,-630 -34,-188 -50,-303 -95,-441 -45,-139 -119,-301 -152,-491 -32,-190 -22,-407 -9,-407 z m -1842,3527 c 2,11 4,20 7,28 l 3,9 509,31 c 30,2 60,4 92,6 165,9 354,21 497,29 -48,-31 -82,-67 -95,-101 -24,-65 33,-120 14,-191 -20,-70 -117,-156 -230,-271 -112,-115 -240,-258 -299,-283 -58,-26 -47,67 37,167 84,101 240,209 316,296 76,87 72,153 22,185 -49,32 -144,30 -271,-9 -127,-38 -285,-113 -345,-222 -60,-110 -20,-253 -42,-267 -22,-15 -106,100 -164,121 -59,21 -92,-52 -95,-181 -3,-129 23,-314 72,-445 48,-131 119,-209 198,-285 80,-76 168,-151 222,-219 54,-68 74,-130 -101,-89 -28,6 -62,16 -99,28 -57,116 -59,170 -108,227 -51,58 -152,120 -224,201 -71,80 -113,179 -120,305 -6,126 22,278 60,424 37,145 82,285 109,374 v 3 h 1 v 1 l 1,3 v 3 l 1,3 1,2 1,3 1,3 v 3 l 1,3 1,2 1,3 1,3 v 2 l 1,3 1,2 v 3 l 1,2 1,3 v 2 l 1,2 1,3 v 2 l 1,2 v 2 l 1,3 1,2 v 2 l 1,2 v 2 l 1,2 v 2 l 1,2 v 2 l 1,2 v 2 l 1,2 v 2 l 1,1 v 2 l 1,2 v 4 l 1,1 v 2 l 1,2 v 3 l 1,1 v 2 l 1,1 v 4 l 1,1 v 3 l 1,1 v 3 l 1,1 v 3 l 1,1 v 3 z m 1474,-466 c -4,-30 5,-45 27,-62 38,-29 112,-66 188,-90 75,-23 152,-32 217,-38 65,-5 118,-7 179,-5 42,2 88,5 106,3 27,9 52,19 74,30 39,19 69,41 87,55 9,8 14,13 14,18 h -1 c -13,6 -26,11 -49,16 -22,4 -55,9 -81,10 -27,2 -48,1 -78,-4 -31,-6 -71,-15 -113,-27 -10,-3 -21,-6 -31,-9 l -15,-5 c -26,-9 -53,-19 -82,-26 -18,-6 -30,-9 -52,-10 h -3 c -11,-2 -22,-2 -33,-2 -66,0 -145,19 -210,49 -59,26 -106,61 -144,97 z m 5178,1007 c 28,-15 58,-30 92,-44 167,-70 419,-126 763,-182 344,-56 780,-113 1091,-143 311,-30 496,-32 615,-41 119,-9 172,-24 82,-66 -91,-42 -324,-110 -517,-183 -193,-73 -345,-150 -447,-190 -101,-39 -152,-42 -224,11 -71,53 -164,161 -239,237 -75,76 -132,120 -232,145 -101,24 -244,28 -228,2 17,-27 193,-84 318,-169 125,-85 197,-197 303,-272 106,-75 245,-112 480,-61 235,52 565,193 798,244 232,51 367,11 436,-63 70,-74 74,-182 15,-316 -60,-135 -183,-296 -172,-306 11,-10 156,132 238,161 81,30 99,-51 124,-86 26,-34 59,-21 66,-93 6,-73 -14,-232 -56,-390 -41,-157 -105,-314 -175,-439 -69,-126 -144,-221 -100,-209 26,8 95,53 190,153 32,83 61,190 90,281 32,98 65,178 94,280 29,103 53,228 44,361 -9,132 -51,271 -87,400 -36,129 -67,248 -101,334 -35,86 -72,139 -120,180 -47,40 -104,69 -197,87 -92,17 -220,24 -559,69 -338,45 -887,129 -1220,173 -333,44 -450,49 -527,48 -77,-1 -115,-8 -242,12 -105,16 -272,51 -396,75 z"
       class="fil13"
       inkscape:connector-curvature="0"
       style="fill:#ccd8ed;stroke-width:4.87694168" /><path
       id="path3859"
       d="m 14044,14924 c -2,15 -5,30 -8,47 -6,21 -11,41 -12,56 -11,55 -24,111 -33,154 -16,71 -24,106 -30,127 -6,20 -10,25 -3,47 8,21 28,59 50,149 22,91 46,234 89,643 42,409 103,1084 140,1516 33,387 47,579 58,716 1,7 2,13 3,19 1,7 2,12 0,17 -1,3 -2,5 -5,7 -78,-9 -145,-17 -202,-21 -82,-6 -145,-6 -194,10 -50,16 -86,48 -131,66 -45,18 -98,23 -146,34 -48,12 -91,31 -146,81 -55,50 -122,132 -164,183 -43,51 -60,72 -75,89 -15,18 -27,32 -37,44 -5,6 -10,12 -15,19 -3,-20 -2,-46 -2,-75 v -46 c -13,-154 -19,-385 -7,-743 13,-367 44,-868 77,-1223 33,-355 68,-564 118,-773 49,-210 113,-419 147,-531 33,-112 37,-127 36,-142 0,-15 -4,-31 -4,-46 1,-15 6,-28 13,-39 8,-12 18,-21 17,-27 0,-6 -12,-9 -22,-29 -10,-19 -18,-56 -30,-90 -13,-34 -30,-65 -50,-89 l -1,-1 c 7,-11 5,-20 -2,-36 -11,-22 -32,-58 -12,-116 19,-58 79,-138 126,-189 47,-51 83,-74 134,-75 52,0 121,22 180,55 60,33 110,77 135,111 10,13 16,24 18,36 -2,19 -5,41 -10,65 z"
       class="fil14"
       inkscape:connector-curvature="0"
       style="fill:#9e0620;stroke-width:4.87694168" /><path
       id="path3861"
       d="m 13940,14736 c -38,-5 -72,-11 -102,-16 -83,-13 -135,-17 -182,8 -47,26 -90,81 -97,159 -8,78 20,179 38,243 19,64 28,92 62,108 34,16 92,20 142,26 49,5 89,11 136,31 8,3 16,7 25,11 l -1,2 c -6,20 -10,25 -3,47 8,21 28,59 50,149 22,91 46,234 89,643 3,34 7,71 11,108 -30,-142 -60,-288 -85,-404 -76,-345 -112,-425 -165,-469 -53,-44 -123,-53 -177,-45 -54,8 -91,33 -108,119 -16,86 -12,233 -28,414 -15,180 -50,394 -72,388 -21,-6 -28,-232 -38,-425 l -1,-19 c 32,-113 62,-213 82,-278 33,-112 37,-127 36,-142 0,-15 -4,-31 -4,-46 1,-15 6,-28 13,-39 8,-12 18,-21 17,-27 0,-6 -12,-9 -22,-29 -10,-19 -18,-56 -30,-90 -13,-34 -30,-65 -50,-89 l -1,-1 c 7,-11 5,-20 -2,-36 -11,-22 -32,-58 -12,-116 19,-58 79,-138 126,-189 47,-51 83,-74 134,-75 52,0 121,22 180,55 14,7 27,15 39,24 z"
       class="fil15"
       inkscape:connector-curvature="0"
       style="fill:#7c0015;stroke-width:4.87694168" /><path
       id="path3863"
       d="m 13868,19875 -5896,-394 -79,181 -19,16 5942,389 z m 651,213 710,-450 -655,285 -354,-24 -52,179 z"
       class="fil3"
       inkscape:connector-curvature="0"
       style="fill:#4d4d4d;stroke-width:4.87694168" /></g><g
     aria-label="https://www.wpvs.de"
     style="font-style:normal;font-variant:normal;font-weight:normal;font-stretch:normal;font-size:179.20829773px;line-height:840.03881836px;font-family:'Liberation Sans';-inkscape-font-specification:'Liberation Sans';text-align:start;letter-spacing:0px;word-spacing:0px;text-anchor:start;fill:#aa0000;fill-opacity:1;stroke:none;stroke-width:26.45833397px;stroke-linecap:butt;stroke-linejoin:miter;stroke-opacity:1"
     id="text841"><path
       d="m 270.06769,971.59114 q 5.07523,-9.27543 12.16306,-13.56313 7.17533,-4.3752 18.11334,-4.3752 15.40071,0 22.66355,7.70036 7.35034,7.61285 7.35034,25.63868 v 63.09045 h -15.83823 v -60.0278 q 0,-9.97547 -1.83759,-14.78819 -1.83758,-4.90023 -6.03778,-7.17533 -4.20019,-2.27511 -11.63804,-2.27511 -11.11301,0 -17.85082,7.70036 -6.65031,7.70036 -6.65031,20.73846 v 55.82761 H 254.75448 V 920.22626 h 15.75073 v 33.77657 q 0,5.33774 -0.35002,11.02551 -0.26251,5.68776 -0.35001,6.5628 z"
       style="fill:#aa0000;stroke-width:26.45833397px"
       id="path851" /><path
       d="m 390.56076,1049.3822 q -7.78786,2.1001 -15.92573,2.1001 -18.90088,0 -18.90088,-21.4385 v -63.17788 h -10.93801 v -11.46303 h 11.55054 l 4.63771,-21.17598 h 10.50049 v 21.17598 h 17.50081 v 11.46303 h -17.50081 v 59.76528 q 0,6.8253 2.1876,9.6254 2.27511,2.7127 7.78786,2.7127 3.15015,0 9.10042,-1.2251 z"
       style="fill:#aa0000;stroke-width:26.45833397px"
       id="path853" /><path
       d="m 440.26306,1049.3822 q -7.78786,2.1001 -15.92574,2.1001 -18.90088,0 -18.90088,-21.4385 v -63.17788 h -10.938 v -11.46303 h 11.55053 l 4.63772,-21.17598 h 10.50048 v 21.17598 h 17.50081 v 11.46303 h -17.50081 v 59.76528 q 0,6.8253 2.18761,9.6254 2.2751,2.7127 7.78786,2.7127 3.15014,0 9.10042,-1.2251 z"
       style="fill:#aa0000;stroke-width:26.45833397px"
       id="path855" /><path
       d="m 533.62988,1002.3051 q 0,49.5273 -34.82661,49.5273 -21.87602,0 -29.40136,-16.4508 h -0.43752 q 0.35001,0.7 0.35001,14.8757 v 37.0142 H 453.56367 V 974.74129 q 0,-14.61318 -0.52502,-19.3384 h 15.2257 q 0.0875,0.35002 0.26252,2.53762 0.175,2.1001 0.35001,6.5628 0.26251,4.46271 0.26251,6.12529 h 0.35002 q 4.20019,-8.75041 11.11301,-12.7756 6.91282,-4.11269 18.20085,-4.11269 17.50081,0 26.16371,11.72555 8.6629,11.72554 8.6629,36.83924 z m -16.53827,0.35 q 0,-19.77594 -5.33774,-28.26383 -5.33775,-8.48789 -16.97579,-8.48789 -9.36293,0 -14.70068,3.93768 -5.25024,3.93768 -8.05037,12.33807 -2.71263,8.31289 -2.71263,21.70097 0,18.6384 5.95028,27.4763 5.95027,8.8379 19.33839,8.8379 11.72555,0 17.06329,-8.5754 5.42525,-8.6629 5.42525,-28.9638 z"
       style="fill:#aa0000;stroke-width:26.45833397px"
       id="path857" /><path
       d="m 624.37157,1023.9186 q 0,13.3881 -10.15047,20.6509 -10.06297,7.2629 -28.26381,7.2629 -17.67582,0 -27.30126,-5.7753 -9.53794,-5.8628 -12.42558,-18.2009 l 13.91315,-2.7126 q 2.01259,7.6129 8.31288,11.2005 6.30029,3.5002 17.50081,3.5002 11.98806,0 17.50081,-3.6752 5.60026,-3.6751 5.60026,-11.0255 0,-5.6002 -3.85018,-9.1004 -3.85017,-3.5002 -12.42557,-5.7753 l -11.28802,-2.9751 q -13.56313,-3.5002 -19.3384,-6.8253 -5.68776,-3.41268 -8.92541,-8.2254 -3.23765,-4.81273 -3.23765,-11.81305 0,-12.9506 9.18792,-19.68841 9.27543,-6.82532 26.95125,-6.82532 15.66323,0 24.85115,5.51276 9.27543,5.51275 11.72554,17.67582 l -14.17565,1.75008 q -1.31256,-6.30029 -7.08783,-9.62545 -5.68776,-3.41266 -15.31321,-3.41266 -10.67549,0 -15.75073,3.23765 -5.07523,3.23765 -5.07523,9.80046 0,4.02518 2.10009,6.65031 2.1001,2.62512 6.21279,4.4627 4.11269,1.83759 17.3258,5.07524 12.51308,3.15014 18.02584,5.86277 5.51275,2.6251 8.6629,5.8628 3.23765,3.2376 4.98773,7.5253 1.75008,4.2002 1.75008,9.6255 z"
       style="fill:#aa0000;stroke-width:26.45833397px"
       id="path859" /><path
       d="m 647.21014,973.51623 v -18.11334 h 17.06329 v 18.11334 z m 0,76.56607 v -18.1134 h 17.06329 v 18.1134 z"
       style="fill:#aa0000;stroke-width:26.45833397px"
       id="path861" /><path
       d="m 680.54918,1051.8324 35.96416,-131.60614 h 13.82564 l -35.61414,131.60614 z"
       style="fill:#aa0000;stroke-width:26.45833397px"
       id="path863" /><path
       d="m 730.25148,1051.8324 35.96417,-131.60614 h 13.82564 l -35.61415,131.60614 z"
       style="fill:#aa0000;stroke-width:26.45833397px"
       id="path865" /><path
       d="m 882.68354,1050.0823 h -18.28835 l -16.53826,-66.94062 -3.15015,-14.78819 q -0.78754,3.93768 -2.45011,11.37553 -1.66258,7.35034 -17.85083,70.35328 H 806.205 l -26.51373,-94.67941 h 15.57572 l 16.01324,64.31551 q 0.61253,2.1001 3.76268,17.3258 l 1.48756,-6.4753 19.77592,-75.16601 h 16.88828 l 16.53827,65.01551 4.02518,16.6258 2.71263,-12.1631 17.93833,-69.47821 h 15.40071 z"
       style="fill:#aa0000;stroke-width:26.45833397px"
       id="path867" /><path
       d="m 1012.1895,1050.0823 h -18.28833 l -16.53826,-66.94062 -3.15015,-14.78819 q -0.78754,3.93768 -2.45011,11.37553 -1.66258,7.35034 -17.85083,70.35328 h -18.20084 l -26.51373,-94.67941 h 15.57572 l 16.01324,64.31551 q 0.61253,2.1001 3.76268,17.3258 l 1.48757,-6.4753 19.77591,-75.16601 h 16.88828 l 16.53827,65.01551 4.02518,16.6258 2.7126,-12.1631 17.9384,-69.47821 h 15.4007 z"
       style="fill:#aa0000;stroke-width:26.45833397px"
       id="path869" /><path
       d="m 1141.6956,1050.0823 h -18.2884 l -16.5383,-66.94062 -3.1501,-14.78819 q -0.7875,3.93768 -2.4501,11.37553 -1.6626,7.35034 -17.8508,70.35328 h -18.2009 l -26.5137,-94.67941 h 15.5757 l 16.0133,64.31551 q 0.6125,2.1001 3.7626,17.3258 l 1.4876,-6.4753 19.7759,-75.16601 h 16.8883 l 16.5383,65.01551 4.0251,16.6258 2.7127,-12.1631 17.9383,-69.47821 h 15.4007 z"
       style="fill:#aa0000;stroke-width:26.45833397px"
       id="path871" /><path
       d="m 1175.0346,1050.0823 v -19.1634 h 17.0633 v 19.1634 z"
       style="fill:#aa0000;stroke-width:26.45833397px"
       id="path873" /><path
       d="m 1311.1034,1050.0823 h -18.2883 l -16.5383,-66.94062 -3.1502,-14.78819 q -0.7875,3.93768 -2.4501,11.37553 -1.6626,7.35034 -17.8508,70.35328 h -18.2008 l -26.5138,-94.67941 h 15.5758 l 16.0132,64.31551 q 0.6125,2.1001 3.7627,17.3258 l 1.4875,-6.4753 19.776,-75.16601 h 16.8882 l 16.5383,65.01551 4.0252,16.6258 2.7126,-12.1631 17.9383,-69.47821 h 15.4008 z"
       style="fill:#aa0000;stroke-width:26.45833397px"
       id="path875" /><path
       d="m 1430.0215,1002.3051 q 0,49.5273 -34.8267,49.5273 -21.876,0 -29.4013,-16.4508 h -0.4375 q 0.35,0.7 0.35,14.8757 v 37.0142 h -15.7508 V 974.74129 q 0,-14.61318 -0.525,-19.3384 h 15.2257 q 0.088,0.35002 0.2625,2.53762 0.175,2.1001 0.3501,6.5628 0.2625,4.46271 0.2625,6.12529 h 0.35 q 4.2002,-8.75041 11.113,-12.7756 6.9128,-4.11269 18.2008,-4.11269 17.5008,0 26.1637,11.72555 8.663,11.72554 8.663,36.83924 z m -16.5383,0.35 q 0,-19.77594 -5.3378,-28.26383 -5.3377,-8.48789 -16.9757,-8.48789 -9.363,0 -14.7007,3.93768 -5.2503,3.93768 -8.0504,12.33807 -2.7126,8.31289 -2.7126,21.70097 0,18.6384 5.9502,27.4763 5.9503,8.8379 19.3384,8.8379 11.7256,0 17.0633,-8.5754 5.4253,-8.6629 5.4253,-28.9638 z"
       style="fill:#aa0000;stroke-width:26.45833397px"
       id="path877" /><path
       d="m 1491.2742,1050.0823 h -18.6384 l -34.3891,-94.67941 h 16.8008 l 20.826,61.60281 q 1.1375,3.5002 6.0378,20.7385 l 3.0626,-10.238 3.4127,-10.3254 21.5259,-61.77791 h 16.7133 z"
       style="fill:#aa0000;stroke-width:26.45833397px"
       id="path879" /><path
       d="m 1610.3672,1023.9186 q 0,13.3881 -10.1505,20.6509 -10.063,7.2629 -28.2638,7.2629 -17.6758,0 -27.3013,-5.7753 -9.5379,-5.8628 -12.4255,-18.2009 l 13.9131,-2.7126 q 2.0126,7.6129 8.3129,11.2005 6.3003,3.5002 17.5008,3.5002 11.9881,0 17.5008,-3.6752 5.6003,-3.6751 5.6003,-11.0255 0,-5.6002 -3.8502,-9.1004 -3.8502,-3.5002 -12.4256,-5.7753 l -11.288,-2.9751 q -13.5631,-3.5002 -19.3384,-6.8253 -5.6878,-3.41268 -8.9254,-8.2254 -3.2377,-4.81273 -3.2377,-11.81305 0,-12.9506 9.188,-19.68841 9.2754,-6.82532 26.9512,-6.82532 15.6632,0 24.8512,5.51276 9.2754,5.51275 11.7255,17.67582 l -14.1757,1.75008 q -1.3125,-6.30029 -7.0878,-9.62545 -5.6877,-3.41266 -15.3132,-3.41266 -10.6755,0 -15.7507,3.23765 -5.0753,3.23765 -5.0753,9.80046 0,4.02518 2.1001,6.65031 2.1001,2.62512 6.2128,4.4627 4.1127,1.83759 17.3258,5.07524 12.5131,3.15014 18.0259,5.86277 5.5127,2.6251 8.6629,5.8628 3.2376,3.2376 4.9877,7.5253 1.7501,4.2002 1.7501,9.6255 z"
       style="fill:#aa0000;stroke-width:26.45833397px"
       id="path881" /><path
       d="m 1633.2058,1050.0823 v -19.1634 h 17.0633 v 19.1634 z"
       style="fill:#aa0000;stroke-width:26.45833397px"
       id="path883" /><path
       d="m 1738.3857,1034.8566 q -4.3752,9.1004 -11.6381,13.0381 -7.1753,3.9377 -17.8508,3.9377 -17.9383,0 -26.4262,-12.0756 -8.4004,-12.0756 -8.4004,-36.5767 0,-49.52729 34.8266,-49.52729 10.763,0 17.9383,3.93768 7.1754,3.93769 11.5506,12.51308 h 0.175 l -0.175,-10.58799 v -39.28932 h 15.7507 v 110.34264 q 0,14.7882 0.525,19.5134 h -15.0507 q -0.2625,-1.4001 -0.6125,-6.4753 -0.2625,-5.0753 -0.2625,-8.7504 z m -47.7772,-32.2015 q 0,19.8634 5.2502,28.4388 5.2502,8.5754 17.0633,8.5754 13.3881,0 19.4259,-9.2754 6.0378,-9.2755 6.0378,-28.7889 0,-18.81334 -6.0378,-27.56375 -6.0378,-8.7504 -19.2509,-8.7504 -11.9005,0 -17.2383,8.83791 -5.2502,8.7504 -5.2502,28.52634 z"
       style="fill:#aa0000;stroke-width:26.45833397px"
       id="path885" /><path
       d="m 1790.4506,1006.0677 q 0,16.2758 6.7378,25.1137 6.7378,8.8379 19.6884,8.8379 10.238,0 16.3633,-4.1127 6.2128,-4.1127 8.4004,-10.413 l 13.8256,3.9377 q -8.4879,22.4011 -38.5893,22.4011 -21.0009,0 -32.0265,-12.5131 -10.938,-12.5131 -10.938,-37.1892 0,-23.45113 10.938,-35.96421 11.0256,-12.51308 31.414,-12.51308 41.7394,0 41.7394,50.31479 v 2.1001 z m 51.2774,-12.07552 q -1.3126,-14.96319 -7.6129,-21.78851 -6.3003,-6.91282 -18.1133,-6.91282 -11.463,0 -18.2009,7.70036 -6.6503,7.61285 -7.1753,21.00097 z"
       style="fill:#aa0000;stroke-width:26.45833397px"
       id="path887" /></g><path
     style="opacity:0.85;fill:#d40000;fill-opacity:1;stroke:none;stroke-width:5.29166652;stroke-linecap:round;stroke-linejoin:round;stroke-miterlimit:4;stroke-dasharray:none;stroke-dashoffset:0;stroke-opacity:1"
     id="path843"
     d="m 1629.4288,1134.0575 c -0.1614,6.9384 -0.1667,13.8847 0.082,20.8206 0.4228,12.2908 1.2555,24.5573 2.0169,36.83 1.1761,16.7004 1.252,33.444 1.3579,50.1767 0.2815,18.4452 0.1481,36.8647 -1.1425,55.2692 -2.2032,24.7805 -5.3347,49.4672 -8.7051,74.1124 -3.0179,24.7545 -7.9599,49.2075 -13.0413,73.6033 -4.1378,19.8899 -9.0741,39.5921 -15.8117,58.765 -6.4451,17.7114 -15.0304,34.4846 -24.4217,50.7847 -9.2769,15.7465 -20.8702,29.8868 -32.8862,43.5861 -11.4243,12.7005 -24.4835,23.7224 -37.7937,34.3661 -11.5947,9.4541 -23.793,18.1109 -36.2873,26.3244 -10.6851,6.5688 -21.4158,13.0696 -32.3671,19.1864 -9.375,5.4318 -19.1861,10.0149 -28.9844,14.6108 -8.7753,4.1961 -17.882,7.6067 -27.1213,10.6179 -8.1058,2.6521 -16.4528,4.4041 -24.7565,6.2917 0,0 -5.5353,-4.3959 -5.5353,-4.3959 v 0 c 8.2112,-1.9513 16.5312,-3.4853 24.5853,-6.0611 9.1508,-2.8747 18.1773,-6.1433 26.8649,-10.2328 9.7182,-4.6102 19.5612,-8.9826 28.8674,-14.4117 10.9281,-6.0127 21.5706,-12.5176 32.2501,-18.9576 12.4543,-8.0978 24.6145,-16.6476 36.1451,-26.0279 13.2079,-10.4705 26.1728,-21.3101 37.5536,-33.794 11.9232,-13.4885 23.4397,-27.4104 32.6771,-42.9235 9.335,-16.0901 17.8693,-32.6521 24.2838,-50.1511 6.7508,-19.0055 11.6364,-38.5636 15.7647,-58.297 5.0777,-24.3141 10.0255,-48.6847 13.035,-73.359 3.3632,-24.5682 6.4734,-49.1793 8.6706,-73.8826 1.2817,-18.3156 1.3986,-36.646 1.1221,-55.0017 -0.1032,-16.6672 -0.1772,-33.3455 -1.3636,-49.9797 -0.77,-12.3034 -1.6068,-24.6011 -2.0408,-36.9227 -0.254,-7.1086 -0.2566,-14.2276 -0.098,-21.3391 0,0 7.0794,0.3921 7.0794,0.3921 z"
     inkscape:connector-curvature="0" /><path
     style="opacity:0.85;fill:#d40000;fill-opacity:1;stroke:none;stroke-width:79.3749978;stroke-linecap:round;stroke-linejoin:round;stroke-miterlimit:4;stroke-dasharray:none;stroke-dashoffset:0;stroke-opacity:1"
     id="path849"
     d="m 1394.7654,1556.8329 c -2.5773,7.0134 -5.0204,14.0726 -7.6441,21.0714 -4.356,11.2966 -8.4009,22.709 -12.7142,34.0217 -4.259,11.1856 -8.1015,22.5236 -12.1954,33.7696 -3.8386,10.6422 -8.1417,21.0963 -12.6933,31.4498 -3.6062,8.2497 -7.9023,16.1498 -12.8269,23.6788 -2.2834,3.7867 -6.4592,7.3411 -6.511,12.0558 1.3706,3.0666 5.0605,4.0636 7.9936,5.0374 6.3718,1.5864 12.683,3.3722 19.041,5.0243 8.0536,2.0449 16.2913,3.1782 24.4328,4.7827 8.5619,1.9002 17.028,4.127 25.4823,6.4481 8.6945,2.7977 17.1861,6.1482 25.7559,9.2917 6.9397,2.9146 13.9574,5.6365 21.1188,7.9557 3.0176,0.9999 6.0863,1.8317 9.1474,2.6842 0,0 -5.6443,4.2687 -5.6443,4.2687 v 0 c -3.094,-0.8893 -6.1887,-1.7799 -9.2386,-2.8134 -7.1567,-2.4324 -14.1726,-5.2326 -21.1826,-8.0562 -8.4744,-3.1569 -16.9137,-6.4256 -25.5751,-9.0487 -8.3797,-2.3079 -16.8062,-4.4199 -25.3104,-6.2253 -8.2229,-1.5198 -16.4951,-2.8317 -24.5886,-4.9746 -6.4343,-1.7325 -12.9314,-3.2711 -19.2696,-5.3206 -4.3121,-1.8407 -8.4311,-4.1025 -9.2497,-9.1466 0.1958,-5.5284 3.6061,-9.7156 6.8264,-13.9954 4.8786,-7.3331 9.1504,-15.0237 12.6889,-23.0998 4.53,-10.2819 8.8514,-20.6476 12.657,-31.2239 4.1147,-11.257 7.9458,-22.6176 12.2061,-33.8213 4.3214,-11.3017 8.356,-22.7095 12.704,-34.0011 2.6207,-6.9987 5.0814,-14.05 7.6126,-21.0782 0,0 6.977,1.2653 6.977,1.2653 z"
     inkscape:connector-curvature="0" /></svg>