<?xml version="1.0" encoding="UTF-8" standalone="no"?>
<svg
   viewBox="0 0 29 29"
   shape-rendering="crispEdges"
   version="1.1"
   id="svg2"
   sodipodi:docname="Lernziele.svg"
   width="29"
   height="29"
   inkscape:version="1.4 (e7c3feb100, 2024-10-09)"
   xmlns:inkscape="http://www.inkscape.org/namespaces/inkscape"
   xmlns:sodipodi="http://sodipodi.sourceforge.net/DTD/sodipodi-0.dtd"
   xmlns="http://www.w3.org/2000/svg"
   xmlns:svg="http://www.w3.org/2000/svg">
  <defs
     id="defs2" />
  <sodipodi:namedview
     id="namedview2"
     pagecolor="#ffffff"
     bordercolor="#cccccc"
     borderopacity="1"
     inkscape:showpageshadow="0"
     inkscape:pageopacity="1"
     inkscape:pagecheckerboard="0"
     inkscape:deskcolor="#d1d1d1"
     inkscape:zoom="21.756757"
     inkscape:cx="14.501242"
     inkscape:cy="14.501242"
     inkscape:window-width="1920"
     inkscape:window-height="1031"
     inkscape:window-x="0"
     inkscape:window-y="49"
     inkscape:window-maximized="1"
     inkscape:current-layer="svg2" />
  <path
     stroke="#000000"
     d="m 0,0.5 h 7 m 3,0 h 2 m 3,0 h 5 m 2,0 h 7 m -29,1 h 1 m 5,0 h 1 m 2,0 h 3 m 5,0 h 1 m 2,0 h 1 m 1,0 h 1 m 5,0 h 1 m -29,1 h 1 m 1,0 h 3 m 1,0 h 1 m 1,0 h 1 m 3,0 h 1 m 1,0 h 1 m 1,0 h 1 m 3,0 h 1 m 1,0 h 1 m 1,0 h 3 m 1,0 h 1 m -29,1 h 1 m 1,0 h 3 m 1,0 h 1 m 1,0 h 1 m 1,0 h 2 m 5,0 h 1 m 4,0 h 1 m 1,0 h 3 m 1,0 h 1 m -29,1 h 1 m 1,0 h 3 m 1,0 h 1 m 1,0 h 2 m 1,0 h 5 m 3,0 h 2 m 1,0 h 1 m 1,0 h 3 m 1,0 h 1 m -29,1 h 1 m 5,0 h 1 m 1,0 h 4 m 1,0 h 6 m 3,0 h 1 m 5,0 h 1 m -29,1 h 7 m 1,0 h 1 m 1,0 h 1 m 1,0 h 1 m 1,0 h 1 m 1,0 h 1 m 1,0 h 1 m 1,0 h 1 m 1,0 h 7 m -21,1 h 4 m 1,0 h 1 m 1,0 h 1 m 4,0 h 1 m -21,1 h 1 m 1,0 h 5 m 2,0 h 1 m 1,0 h 1 m 2,0 h 5 m 3,0 h 5 m -27,1 h 1 m 3,0 h 2 m 2,0 h 1 m 1,0 h 1 m 6,0 h 8 m 3,0 h 1 m -28,1 h 2 m 2,0 h 4 m 1,0 h 2 m 3,0 h 3 m -18,1 h 2 m 1,0 h 3 m 1,0 h 1 m 1,0 h 1 m 4,0 h 3 m 2,0 h 2 m 2,0 h 1 m 1,0 h 1 m 1,0 h 1 m -28,1 h 3 m 3,0 h 3 m 1,0 h 3 m 3,0 h 2 m 1,0 h 1 m 5,0 h 2 m -25,1 h 1 m 1,0 h 2 m 1,0 h 4 m 2,0 h 2 m 2,0 h 3 m 1,0 h 2 m 1,0 h 1 m 3,0 h 1 m -29,1 h 1 m 5,0 h 3 m 2,0 h 1 m 1,0 h 3 m 4,0 h 1 m 1,0 h 2 m 1,0 h 2 m -27,1 h 1 m 1,0 h 1 m 2,0 h 1 m 1,0 h 1 m 4,0 h 2 m 4,0 h 3 m 2,0 h 2 m 2,0 h 1 m -28,1 h 1 m 2,0 h 7 m 1,0 h 2 m 1,0 h 1 m 4,0 h 1 m 3,0 h 1 m 1,0 h 2 m -27,1 h 1 m 1,0 h 2 m 1,0 h 1 m 4,0 h 1 m 1,0 h 1 m 2,0 h 2 m 2,0 h 2 m 1,0 h 3 m 1,0 h 1 m 1,0 h 1 m -29,1 h 1 m 1,0 h 5 m 3,0 h 2 m 3,0 h 1 m 1,0 h 1 m 2,0 h 2 m 1,0 h 1 m 2,0 h 1 m -27,1 h 1 m 1,0 h 1 m 1,0 h 1 m 2,0 h 2 m 2,0 h 2 m 1,0 h 1 m 1,0 h 1 m 4,0 h 1 m 1,0 h 2 m 2,0 h 1 m -28,1 h 1 m 1,0 h 1 m 3,0 h 1 m 1,0 h 2 m 1,0 h 2 m 2,0 h 3 m 1,0 h 6 m 1,0 h 3 m -21,1 h 4 m 1,0 h 4 m 1,0 h 1 m 1,0 h 1 m 3,0 h 5 m -29,1 h 7 m 2,0 h 1 m 2,0 h 9 m 1,0 h 1 m 1,0 h 3 m -27,1 h 1 m 5,0 h 1 m 1,0 h 1 m 1,0 h 2 m 1,0 h 1 m 4,0 h 3 m 3,0 h 1 m 3,0 h 1 m -29,1 h 1 m 1,0 h 3 m 1,0 h 1 m 1,0 h 1 m 1,0 h 2 m 2,0 h 2 m 4,0 h 5 m 1,0 h 2 m -28,1 h 1 m 1,0 h 3 m 1,0 h 1 m 1,0 h 1 m 7,0 h 2 m 2,0 h 1 m 2,0 h 1 m 1,0 h 4 m -29,1 h 1 m 1,0 h 3 m 1,0 h 1 m 1,0 h 1 m 2,0 h 2 m 2,0 h 1 m 2,0 h 1 m 2,0 h 7 m -28,1 h 1 m 5,0 h 1 m 6,0 h 4 m 1,0 h 6 m 1,0 h 1 m 1,0 h 1 m -28,1 h 7 m 1,0 h 2 m 1,0 h 1 m 3,0 h 1 m 1,0 h 1 m 1,0 h 1 m 3,0 h 4"
     id="path2" />
</svg>
