<?xml version="1.0" encoding="UTF-8"?>
<svg xmlns="http://www.w3.org/2000/svg" clip-rule="evenodd" fill-rule="evenodd" image-rendering="optimizeQuality" shape-rendering="geometricPrecision" text-rendering="geometricPrecision" viewBox="0 0 21000 13902">
 <defs>
  <style type="text/css">
    .fil0 {fill:gray}
    .fil1 {fill:#CCCCCC}
  </style>
 </defs>
  <path class="fil0" d="m5402 1923l70 308 1 13-3 13-6 14-9 12-439 477 5 5 14 8 732 371 15 7 17 3 17 1 18-2 17-5 16-7 15-9 12-12 556-615 10-13 6-13 2-14-1-13 63 308 1 13-3 13-6 14-9 12-432 480 5 7 10 10 14 9 747 379 16 6 17 3 18 1 17-2 17-5 17-7 14-9 13-12 552-626 10-13 6-14 2-13-1-14 55 307 1 13-3 14-5 13-10 13-422 481 3 9 8 12 11 11 14 9 762 387 16 6 17 4h18l18-2 17-4 17-8 14-9 13-12 549-638 9-13 6-14 2-14-1-13 46 305 2 14-2 14-6 13-9 14-545 635-12 11-15 10-16 7-17 5-18 2-17-1-18-3-16-7-757-386-14-8-11-11-7-12-4-13-58-299-126 143-12 12-14 9-17 7-17 5-17 2-18-1-17-3-15-6-742-378-14-9-10-11-7-11-4-13-62-285-117 130-13 12-14 9-16 7-17 5-17 2-18-1-16-3-16-6-727-371-13-8-10-11-7-11-4-13-65-268-109 118-12 11-15 9-16 7-16 4-17 2h-17l-17-4-15-6-601-306 63 243-63-243-112-57-12-8-10-10-7-11-4-13-68-258-102 109-12 11-15 9-15 7-17 4-17 2-17-1-16-3-15-6-1073-546-13-8-9-10-6-11-91-308 7 11 9 10 13 8 1080 547 15 6 16 3 17 1 17-2 17-4 16-7 15-9 12-11 561-593 10-13 6-13 3-13-1-12 77 309 1 13-3 13-6 13-10 12-442 470 10 7 717 363 15 6 17 4h17l17-2 17-4 16-7 15-9 12-12 559-604 10-13 6-13 3-13-1-13zm2475 1275l39 229-39-229-241-120-13-8-11-11-7-11-5-13-52-296-129 145-12 11-14 9-16 7-17 4-17 2h-17l-17-3-16-7-733-364-13-9-11-10-7-11-4-13-57-282-121 133-12 11-14 9-16 7-17 5-17 2-17-1-16-3-16-6-718-357-13-9-10-10-7-11-4-12-59-266-112 121-12 11-14 9-16 7-17 4-16 2h-17l-16-4-16-5-704-351-13-8-9-10-7-11-4-12-62-254-106 112-12 11-14 8-16 7-16 4-17 2h-17l-16-3-14-6-691-344-12-7-10-10-6-11-4-12-83-310 3 11 7 11 9 10 13 8 695 344 15 5 16 3 17 1 17-2 16-4 16-7 14-9 12-10 550-578 10-12 6-12 3-13-1-12 73 312 1 13-3 12-6 13-9 12-424 446 3 2 709 351 15 6 16 3 17 1 17-2 17-5 16-6 14-9 12-11 548-587 9-12 6-13 2-13v-13l66 312v13l-2 12-6 13-9 12-421 454 1 1 14 8 723 358 16 6 16 3 17 1 17-2 17-4 16-7 14-9 13-11 544-598 9-12 6-13 2-13v-13l58 311 1 13-2 13-6 13-9 12-415 457 1 2 11 10 13 9 738 365 16 6 17 3 17 1 18-2 17-5 16-7 14-9 12-11 541-608 9-12 6-14 2-13-1-13 51 310 1 13-2 13-5 14-9 12-407 459 1 2 8 12 10 10 14 9 754 373 16 6 17 3 17 1 18-2 17-5 16-7 14-9 13-12 537-618 9-13 6-13 2-14-2-13 44 309 1 13-2 14-6 13-9 13-533 616-12 12-14 9-16 7-17 4-17 2h-18l-16-4-16-6-508-252zm496 1545l-14-9-11-11-8-13-4-13-50-302 4 13 8 13 11 10 14 10 779 395 16 6 18 4h18l18-2 18-4 16-8 15-10 12-12 545-649 9-13 6-14 2-15-2-14 39 305 1 14-2 14-5 14-9 13-541 647-12 12-15 10-16 7-17 5-18 2-18-1-18-4-16-6-773-394zm1134 577l-15-9-11-11-8-13-5-13-42-301 5 13 8 13 12 11 14 9 795 404 17 7 18 3 19 1 18-2 17-5 17-7 15-10 12-13 541-661 9-13 6-15 1-14 30 303-2 14-5 14-9 14-537 658-12 13-15 9-16 8-17 5-19 2-18-1-18-4-16-6-607-310 31 238-31-238-182-93zm1159 591l-15-10-11-11-9-13-5-14-2-14-32-300 1 15 6 14 8 13 12 11 15 10 812 412 17 7 19 3 18 1 19-2 17-5 17-7 14-11 13-12 537-673 8-14 5-13-5-13-2-15-21-302 2 14 6 14 9 13 12 11 15 9 819 406 17 7 18 3 19 1 18-2 18-5 16-7 14-11 12-12 521-664 9-14 4-15 2-14 8 304-1 15-5 14-9 14-516 661-12 13-14 10-17 7-17 5-18 2-19-1-18-3-17-7-812-405-15-9-12-11-6-8 18 279-1 15-5 15-9 14-532 670-13 13-14 10-17 7-17 5-18 2h-19l-18-4-17-7-806-411zm1183 602l-15-9-12-12-9-13-6-14-2-15-23-298 2 15 6 14 8 14 13 11 15 10 830 421 18 7 18 4 19 1 19-2 17-5 17-8 15-10 12-13 532-686 9-14 2-5-2-2-9-13-6-14-2-14-11-301 2 15 6 14 9 13 13 11 15 10 837 414 18 7 18 4h19l19-2 17-5 17-7 14-10 12-13 516-677 8-14 5-15 1-15-2 303-1 15-5 15-8 14-511 674-12 12-15 10-16 8-17 5-19 2-18-1-19-4-18-7-830-413-15-9-5-5 10 269-2 15-5 15-8 14-528 683-12 13-15 10-16 8-18 5-18 2-19-1-18-4-18-7-823-420zm1840-203zm-630 820l-16-10-12-12-9-13-6-15-2-15-14-296 3 16 6 14 9 14 12 11 16 10 848 431 18 7 19 4 19 1 19-2 18-5 17-8 15-11 12-13 527-699 8-14v-1l-4-3-13-11-9-14-6-14-3-15-1-299 3 15 6 14 10 14 12 11 16 10 855 424 18 7 19 4h19l19-2 18-5 16-7 15-11 12-13 510-689 8-15 5-15v-15l-11 301-1 15-5 15-8 14-506 687-12 13-14 10-16 8-18 5-19 2-19-1-18-4-18-7-848-422-6-4 1 265-1 15-5 15-9 15-522 696-12 13-15 10-16 8-18 5-19 2-19-1-19-4-17-7-842-429zm1235 629l-16-10-12-12-10-13-6-15-3-16-3-294 3 16 6 15 9 13 13 13 16 10 868 440 18 7 20 4 19 1 19-2 18-5 17-8 15-11 12-13 521-713 8-14-2-1-16-10-13-12-10-13-6-15-3-15 10-297 2 15 7 15 10 13 13 12 16 10 874 433 19 7 19 4 19 1 19-2 18-5 17-8 14-11 12-13 505-703 8-14 4-16-22 300-5 15-8 14-500 700-12 13-14 11-17 8-18 5-18 2-20-1-19-4-18-7-860-428-9 262-1 16-4 15-9 15-517 709-12 14-14 10-17 8-18 5-19 2h-19l-19-5-18-7-612-312v232-232l-249-127zm-10737-4181l-13-8-10-11-7-12-76-270-97 104-13 11-15 10-16 6-17 5-17 2-17-1-16-3-15-6-1386-724-12-8-10-10-6-12-98-305 7 12 9 10 13 8 1394 725 16 6 16 4h17l18-2 17-4 16-7 15-9 13-12 573-610 10-13 6-13 3-13v-14l82 307v13l-3 13-6 13-10 13-462 494 11 8 724 376 16 6 16 4h18l17-2 18-4 16-7 15-10 13-11 571-623 10-12 6-14 3-14v-13l74 305 1 13-3 14-6 14-10 12-458 500 9 9 14 9 739 384 16 7 17 3 18 1 17-2 18-5 16-7 15-10 13-12 568-633 10-13 6-14 3-14-1-13 67 304 1 13-3 14-6 14-9 13-450 504 6 10 11 11 13 9 756 392 16 7 17 3 18 1 18-2 17-5 17-7 15-10 12-12 566-644 9-14 6-14 3-14-1-14 59 303 1 14-3 14-6 14-9 13-560 642-13 12-15 10-16 7-17 5-18 2-18-1-17-3-16-7-657-342 62 266-62-266-93-48-13-9-11-11-7-12-4-13-67-284-113 126-13 12-14 9-17 7-17 5-17 2-18-1-17-3-15-6-656-343 69 267-69-267-79-41-13-9-10-10-7-12-4-13-71-272-106 116-12 12-15 9-16 7-17 5-18 2-17-1-16-3-16-6-719-376zm3232 1687l-14-9-10-11-8-12-4-14-63-300 4 14 8 13 11 11 14 9 770 401 16 6 18 4 18 1 18-2 18-5 16-8 15-10 13-12 562-656 9-14 6-14 2-15-1-14 51 301 1 15-2 14-6 14-9 14-557 654-13 12-14 10-17 7-17 5-18 2-18-1-18-3-16-7-658-343 54 265-54-265-108-56zm1122 586l-14-9-11-12-8-12-4-14-55-298 5 14 8 12 11 12 14 9 787 410 17 6 18 4 18 1 18-2 18-5 17-8 15-10 12-12 558-669 10-14 5-14 2-15-1-15 42 300 2 15-2 14-6 15-9 14-553 666-13 12-15 10-16 8-18 5-18 2-18-1-18-4-17-7-659-344 47 263-47-263-123-64zm1148 599l-14-9-12-12-8-13-5-14-46-296 5 14 8 13 12 11 15 10 804 418 17 7 18 4 19 1 18-2 18-5 17-8 15-10 13-13 553-681 9-14 6-15 2-15 33 298-2 15-5 15-10 14-548 678-13 13-15 10-16 8-18 5-18 2-19-1-18-4-17-7-798-417zm1171 612l-15-10-11-12-9-13-5-15-37-294 5 14 9 14 12 11 15 10 822 428 17 7 19 4 19 1 18-3 18-5 17-7 15-11 13-13 549-694 9-14 5-16 2-15 24 297-2 15-5 15-9 14-544 691-13 13-15 11-16 8-18 5-19 2-19-1-18-4-17-7-816-426zm1199 625l-16-10-12-12-9-13-5-15-2-15-27-293 2 15 5 15 9 14 12 12 16 10 840 437 18 7 19 4 19 1 19-2 18-5 17-8 15-11 13-13 544-708 9-14 5-16 1-15 14 294-1 16-5 15-9 15-540 704-12 13-15 11-17 8-18 5-18 2-19-1-19-4-18-7-833-436zm1223 639l-16-10-12-13-9-13-6-15-2-16-17-291 2 16 6 15 9 14 12 12 16 11 860 446 18 8 19 4 19 1 20-2 18-5 17-8 15-11 12-14 539-721 9-15 5-16 1-16 4 293-1 16-5 15-9 15-534 718-13 14-14 10-17 8-18 6-19 2-20-1-19-4-18-8-852-445zm-9651-3693l-13-9-10-11-7-12-82-272-92 99-13 12-15 9-16 7-17 5-18 2-17-1-17-3-15-7-484-259 86 266-86-266-310-166 94 285 3 13v14l-3 14-7 14-10 13-508 539 9 6 726 396 15 7 17 3 18 1 18-2 17-5 17-7 16-10 13-12 601-649 10-14 7-14 3-14v-14l-3-14 91 299 4 13v14l-3 14-7 15-10 13-501 545 6 6 13 9 1147 627 16 7 18 3 18 1 18-2 18-5 16-7 16-10 13-13 596-664 10-14 7-14 3-15-1-11-347-186-14-9-10-11-7-12-80-285-101 111-13 11-15 10-17 7-17 5-18 2-17-1-17-3-16-7-726-388zm-106-310l1 1 14 9 731 390 16 6 17 4h17l18-2 17-4 17-8 15-9 13-12 585-641 10-13 7-14 3-14-1-14 80 302 1 13-3 14-7 14-10 14-476 525 1 2 10 11 14 9 746 398 17 6 17 4 18 1 18-2 17-5 17-8 15-9 13-13 582-652 10-13 6-14 3-15-1-14 73 300v14l-3 15-6 14-10 13-469 529v1l8 12 10 12 14 9 762 406 16 7 18 4 18 1 18-2 18-5 17-8 15-10 13-12 578-664 10-14 6-15 3-14-1-15 64 299 1 14-3 15-6 14-9 14-574 661-13 13-15 10-16 7-18 5-18 2-18-1-17-3-16-7-758-405-13-10-11-11-7-13-4-13-73-284-107 121-13 12-15 10-17 7-17 5-18 2-18-1-17-4-16-6-393-210 80 293 1 15-3 14-7 15-10 13-590 662-13 12-15 10-17 8-18 5-18 2-18-1-17-4-16-7-1139-625-13-9-10-11-7-13-89-273-90 98-14 12-15 10-17 7-17 5-18 2-17-1-17-4-16-6-720-395-13-9-10-11-6-13-92-262-82 87-13 12-15 9-17 7-17 5-18 2-17-1-17-3-15-6-1084-595-12-9-10-11-6-12-113-299 6 13 9 10 13 9 1091 596 16 7 16 3 18 1 18-2 17-5 17-7 15-10 13-11 602-637 11-13 7-14 3-14v-13l-877-469-12-8-10-11-6-12-105-302 6 12 9 11 13 8 1684 897 16 7 16 3 18 1 17-2 18-5 16-7 15-9 13-12 587-628 10-13 6-14 4-14-1-13-3-13 87 303 4 13v13l-3 14-7 13-10 13-483 520zm3371 2057l-14-9-11-11-8-13-4-14-68-296 4 14 8 13 10 12 15 9 778 416 17 7 18 3 18 1 18-2 18-5 17-7 15-11 13-12 575-677 10-14 6-15 2-14-1-15 56 297 1 15-3 14-5 15-10 14-570 674-13 12-15 10-16 8-18 5-18 2-19-1-17-4-17-7-772-414zm1133 607l-14-9-11-12-8-13-5-15-59-293 4 14 8 14 11 11 15 10 795 424 18 7 18 4 18 1 19-2 18-5 17-8 15-10 13-13 571-689 9-15 6-15 2-15-1-15 47 296 1 15-2 15-6 15-9 14-566 686-13 13-15 10-17 8-17 5-19 2-18-1-18-4-17-7-790-423zm1836-203zm-676 824l-14-10-12-12-8-13-5-15-50-291 4 15 9 13 11 12 15 10 813 434 18 7 18 4 19 1 19-2 18-5 17-8 15-11 13-13 567-702 9-15 6-15 2-16-2-15 38 294 2 15-2 15-6 15-9 15-562 699-13 13-15 11-17 8-18 5-18 2-19-1-18-4-18-7-807-433zm1185 634l-16-10-11-12-9-14-5-15-41-289 5 15 8 13 12 13 15 10 832 443 18 8 18 4 20 1 19-2 18-6 17-8 15-10 13-14 562-716 10-15 5-15 2-16 28 291-2 16-5 16-10 15-557 712-12 13-16 11-16 8-19 5-19 2-19-1-18-4-18-7-824-442zm4159 739l-16-11-12-12-10-14-6-16-3-16-6-288 2 16 6 16 10 14 13 12 16 11 879 457 19 8 19 4 20 1 19-2 19-6 17-8 15-11 12-14 534-735 8-16 5-16 1-16-7 291-1 16-4 16-9 15-529 732-12 13-15 11-17 9-18 5-20 2-19-1-19-4-19-8-872-455zm1280 668l-17-11-13-13-10-14-6-16-3-16 4-286 3 16 6 16 10 14 14 13 16 11 900 467 19 8 20 4 20 1 19-2 19-6 17-8 15-11 12-14 528-751 8-15 5-16-19 287-4 17-8 15-523 747-13 14-15 11-17 8-18 5-19 3-20-1-20-5-19-8-891-464zm374-1244l-17-11-13-12-10-14-6-15-3-16 8-292 2 16 7 15 10 14 13 13 17 10 887 450 19 8 19 4 20 1 19-2 19-5 16-9 15-11 12-13 516-727 7-14-20-10-16-10-13-12-10-14-7-15-3-16v-15l20-296v16l3 16 7 15 10 13 14 13 16 10 894 443 19 7 20 4 19 1 20-2 18-5 16-8 15-11 12-14 498-716 8-15 4-16-34 298-4 15-8 15-494 713-12 14-14 10-17 8-18 5-19 3-19-1-19-4-19-8-864-429-20 275-4 16-8 15-511 723-12 14-15 10-17 9-18 5-19 2-20-1-19-4-18-8-880-448zm1293 658l-17-10-13-13-11-14-6-15-4-16 1-17 19-289-1 16 3 16 7 16 10 14 14 13 17 10 908 460 19 8 20 4 20 1 19-2 19-6 17-8 14-11 12-14 510-741 8-15v-1l-37-19-17-10-13-12-11-14-7-16-3-15v-17l32-293-1 16 4 16 7 16 11 14 13 12 17 10 1931 955 19 8 20 4 20 1 20-2 18-5 17-9 15-11 11-14 486-740 8-15 3-16-54 293-4 16-7 16-482 736-12 14-14 11-17 8-18 5-20 3-20-1-19-5-20-7-16-8-46 272-4 16-8 16-495 756-12 14-14 12-17 8-19 5-19 3-20-1-21-5-19-8-1427-727-17-11-14-13-11-14-7-16-4-17v-16l31-287v16l3 17 7 16 11 14 14 13 17 11 1441 731 19 8 21 4 20 1 20-2 19-6 17-8 14-12 12-14 499-760 8-16-1857-924-30 276-5 16-8 16-505 737-12 13-14 12-17 8-18 5-20 2-20-1-19-4-19-8-900-458zm-5894-171l-16-10-12-13-9-14-5-15-2-16-32-287 2 16 6 15 9 14 12 12 15 11 851 453 18 8 19 4 19 1 20-2 18-5 17-8 16-11 12-14 558-730 9-15 5-16 1-16 19 289-2 16-5 16-9 15-552 726-13 14-15 11-17 8-19 5-19 2-19-1-19-4-18-7-843-452zm1237 662l-15-10-13-13-9-14-6-16-2-16-21-285 2 17 5 15 10 14 12 13 16 11 870 463 19 7 19 5 20 1 19-2 19-6 17-8 16-11 12-14 552-745 9-15 5-16 2-17 7 287-1 17-5 16-9 15-547 741-13 14-15 11-17 8-19 5-19 3-19-1-20-5-18-7-863-462zm1268 679l-16-11-13-13-10-14-6-16-2-17-11-282 3 17 6 15 10 15 13 13 16 11 890 474 19 8 20 4 20 1 19-2 19-6 18-8 15-11 13-15 546-759 9-16 5-16 1-17-4 284-1 17-5 16-9 16-541 756-13 14-15 11-17 8-19 6-19 2-20-1-20-4-18-8-883-472zm3033 99l-17-11-13-13-11-15-7-16-3-16 1-17 16-283-1 17 3 16 7 16 11 15 13 13 17 11 2399 1246 20 9 21 4 20 1 20-2 19-6 18-8 15-12 12-15 512-779 9-16 4-17-44 282-4 17-8 16-508 775-12 15-15 12-17 8-19 6-20 2-21-1-20-5-20-8-2377-1241zm-1735 594l-16-11-14-14-10-15-6-16-3-17 1-279 3 17 6 16 10 15 14 13 16 11 3388 1805 20 8 21 5 21 1 20-2 20-6 17-9 16-12 12-15 527-801 8-17 4-17-37 276-4 17-8 17-523 797-12 15-15 12-18 8-19 6-20 2-21-1-20-5-20-8-3358-1796zm1642 2444l-18-12-14-14-11-16-7-18-3-18 1-18 15-267v18l3 18 7 18 11 16 14 14 18 12 957 523 21 8 21 5 21 1 20-2 20-6 18-9 16-12 12-16 543-825 9-17 4-18-31 269-4 18-9 17-538 821-13 15-15 13-18 9-19 5-21 3-21-2-20-4-20-9-949-520zm-12298-6749l-13-10-11-11-7-13-86-293 8 13 10 11 14 10 7579 4139 18 8 19 5 20 1 20-3 19-5 17-8 16-12 13-14 568-755 9-16 6-16 1-17 20 283-1 16-6 17-9 16-459 612 1 7 6 16 9 15 13 13 16 11 884 483 19 8 19 4 21 1 19-2 19-5 18-9 16-11 13-15 564-770 9-16 5-17 2-17 9 281-1 17-5 16-9 16-560 766-13 14-15 12-17 9-19 5-20 2-20-1-19-4-19-8-876-481-16-11-13-13-10-15-5-16-2-17-23-268-104 138-13 14-15 11-18 8-19 6-19 2-20-1-19-4-18-8-7520-4125zm10440 5727l-17-12-13-13-11-16-6-17-3-17-1-272 3 17 6 17 11 16 13 14 17 11 1437 785 20 8 20 5 21 1 20-2 20-6 18-9 15-12 13-15 549-807 8-17 5-17-18 273-5 17-9 17-543 802-13 15-16 12-17 9-20 6-20 2-20-1-21-5-19-8-1424-781zm-1319-722l-17-11-13-14-10-15-6-16-2-18-13-275 2 18 6 16 10 15 14 14 16 11 905 494 19 8 20 5 21 1 20-2 19-6 18-9 15-11 13-15 559-786 9-16 5-17 1-18-2 278-1 17-5 17-9 16-554 782-12 14-16 12-17 9-19 5-20 3-21-1-19-5-19-8-897-492zm-9188-11615l78 313-78-313zm4190 2032l49 310-49-310zm506 1583l-14-9-11-10-7-12-5-13-47-306 5 13 8 12 11 10 14 9 768 381 17 6 17 3 18 1 18-2 17-5 16-7 14-9 13-12 533-629 9-13 5-14 2-14 35 308-2 14-5 14-9 13-529 626-12 12-14 10-16 7-17 4-18 2h-18l-17-4-16-6-763-380zm1119 557l-14-9-11-11-8-12-5-13-38-305 5 13 8 12 11 11 14 9 785 389 17 6 18 4h18l18-2 17-5 16-7 14-10 13-12 529-640 9-13 5-14 2-14 26 306-1 15-6 13-8 14-526 638-12 12-14 9-16 8-17 4-18 2h-18l-17-4-17-6-779-388zm1145 569l-15-9-11-11-9-12-5-14-2-14-29-304 2 14 5 14 8 12 12 11 15 9 801 397 17 7 18 4h18l19-2 17-5 16-7 15-10 12-12 525-652 9-14 5-14 1-14 17 305-1 14-5 15-9 13-520 650-12 12-15 10-16 7-17 5-18 2-18-1-18-3-17-7-795-396zm1789-199zm-15-305z"/>
  <path class="fil1" d="m4654 1526l715 355 13 8 10 10 7 11 4 12 1 13-3 13-6 13-10 13-559 605-13 11-15 9-16 7-17 4-17 2-17-1-17-3-15-6-717-364-13-8-10-10-7-11-4-12v-13l3-13 6-13 10-13 561-596 12-11 14-9 16-7 17-4 17-2 17 1 16 3 15 6h2zm14373 5752l1919 930 17 10 14 13 11 14 8 15 4 16v16l-4 16-8 15-486 740-12 14-14 11-17 8-18 5-20 2-20-1-20-4-20-8-1930-955-17-10-14-12-11-14-7-15-4-16v-16l4-16 8-15 496-718 12-13 14-11 16-8 18-5 19-2 20 1 19 4 19 7 4 2zm-1307-634l889 432 17 10 14 12 11 14 7 15 4 16v16l-4 16-8 15-498 716-12 13-14 11-17 8-18 5-19 2-20-1-20-4-19-7-894-443-17-10-13-12-10-14-7-15-3-16v-16l4-16 8-15 503-705 12-13 14-10 16-8 18-5 19-2 19 1 19 4 18 7 1-1zm-1276-619l870 422 16 10 13 12 10 13 7 15 3 15v15l-4 15-8 15-505 703-12 13-14 11-17 8-18 5-19 2-19-1-19-4-18-7-874-433-16-10-13-12-10-14-6-15-3-15 1-16 5-15 8-15 509-692 12-13 14-10 16-8 18-5 19-2 19 1 19 4 18 7-2 1zm-1250-606l851 413 16 10 13 12 10 13 6 14 3 15-1 15-4 15-8 14-510 690-12 13-14 10-16 8-18 5-19 2-19-1-19-4-18-7-855-424-16-10-13-12-9-13-6-14-3-15 1-15 5-15 9-14 515-679 12-13 14-10 16-8 18-5 18-2 19 1 19 4 18 7h-3zm-1222-593l833 404 16 9 13 11 9 13 6 14 3 15-1 15-5 15-8 14-516 677-12 13-14 10-16 8-18 5-19 2-19-1-19-4-18-7-837-414-15-9-12-11-9-13-6-14-2-15 1-15 5-15 9-14 520-667 12-12 14-10 16-7 17-5 18-2 18 1 18 4 17 7 1-2zm-1198-581l815 396 15 9 12 11 9 13 6 14 2 14-1 15-5 14-9 14-521 664-12 12-14 10-16 7-18 5-18 2-19-1-18-4-17-7-819-406-15-9-12-11-9-13-5-14-2-14 1-15 5-14 9-14 524-654 12-12 14-10 16-7 17-5 18-2 18 1 18 4 17 6 2 1zm-1171-568l798 387 15 9 12 11 9 12 5 13 2 14-1 14-5 14-9 14-525 652-12 12-14 10-16 7-17 5-18 2-18-1-18-4-17-7-802-397-15-9-12-11-8-12-5-14-2-14 2-14 5-14 9-14 529-643 12-12 14-10 16-7 17-5 18-2 18 1 18 3 17 6-2 4zm-1148-557l781 379 15 9 12 11 8 12 5 13 2 14-2 14-5 14-9 13-530 641-12 12-14 10-16 7-17 5-18 2-18-1-18-4-17-6-785-389-14-9-11-11-8-12-5-13-2-14 2-14 5-14 9-13 533-631 12-12 14-9 16-7 17-5 18-2 18 1 17 3 16 6h1zm-1123-545l765 372 14 9 11 10 8 12 5 13 2 14-2 14-5 14-9 13-534 629-12 12-14 10-16 7-17 5-18 2-18-1-17-3-16-6-768-381-14-9-11-11-8-12-5-13-1-14 2-14 6-14 9-13 537-620 12-11 14-9 16-7 17-5 17-2 18 1 17 3 16 6-1-1zm-1102-534l751 364 14 8 11 10 8 12 5 13 1 13-2 14-6 13-9 13-537 618-12 12-14 9-16 7-17 5-18 2-18-1-17-3-16-6-754-373-14-9-11-10-8-12-4-13-1-13 2-14 6-13 9-13 540-609 12-11 14-9 16-7 17-4 17-2 17 1 17 3 16 6 1-1zm-1078-523l736 357 14 8 11 10 8 11 4 12 1 13-2 13-6 13-9 13-541 607-12 11-14 9-16 7-17 5-17 2-17-1-17-3-16-6-738-365-13-8-10-10-7-12-4-13-1-13 3-13 6-13 9-13 544-599 12-11 14-9 16-7 17-4 17-2 17 1 17 3 16 6-5 1zm-1059-513l721 350 13 8 10 10 7 11 4 12 1 13-2 13-6 13-9 12-544 597-12 11-14 9-16 7-17 4-17 2-17-1-17-3-16-6-724-358-13-8-10-10-7-11-4-12-1-13 3-13 6-13 10-12 547-589 12-11 14-9 16-7 16-4 17-2 17 1 16 3 15 6h1zm-1037-502l707 343 13 8 10 10 7 11 4 12 1 13-3 13-6 13-9 12-547 587-12 11-14 9-16 7-17 4-17 2-17-1-16-3-15-6-709-351-13-8-10-10-7-11-4-12v-13l3-13 6-13 10-12 550-579 12-11 14-9 15-7 16-4 17-2h17l16 3 15 6-1 1zm-1018-493l693 336 13 8 10 10 7 11 4 12v12l-3 13-6 13-9 12-550 577-12 11-14 9-16 7-16 4-17 2h-17l-16-3-15-6-695-344-13-8-10-10-6-11-3-12v-12l3-13 6-13 10-12 552-569 12-11 14-9 15-6 16-4 17-2h16l16 3 15 5h-1zm8556 9723l879 470 16 11 13 13 10 15 6 16 3 17-1 17-5 17-9 16-564 770-13 14-16 12-18 9-19 5-20 2-20-1-20-5-19-8-884-482-16-11-13-13-9-15-6-16-2-17 2-17 6-17 10-16 569-758 13-14 15-11 17-8 19-5 19-2 20 1 19 4 18 8v-2zm1293 691l900 481 17 11 14 13 10 15 7 16 3 17-1 17-5 17-9 16-558 786-13 15-16 12-18 9-19 6-20 2-20-1-20-5-19-8-905-494-17-11-13-14-10-15-6-17-2-17 1-17 5-17 9-16 563-773 13-14 15-11 17-8 19-5 20-2 20 1 20 4 19 8-1-1zm1323 708l1428 764 17 12 14 14 11 16 7 17 3 18-1 18-5 18-9 17-548 807-13 15-16 12-18 9-19 6-20 2-21-1-21-5-20-9-1436-784-17-12-14-14-10-16-7-17-3-18 1-18 5-18 9-17 556-787 13-14 15-12 18-9 19-6 20-2 20 1 20 5 19 8h3zm-10478-5604l7548 4037 16 11 13 13 9 15 6 16 2 16-2 17-5 16-9 16-568 755-13 14-16 11-18 8-19 5-20 2-20-1-19-4-18-8-7579-4140-14-10-10-11-7-13-4-14v-15l3-15 7-15 10-14 595-667 13-12 15-10 17-7 18-5 18-2 18 1 17 4 16 7zm12342 6601l952 509 18 12 15 14 11 16 8 17 4 18v18l-4 18-9 17-543 825-13 15-16 12-18 9-20 6-21 2-21-1-21-5-20-9-957-523-18-12-14-14-11-16-7-17-3-18 1-18 5-18 9-17 548-811 13-15 15-12 18-9 19-6 20-2 21 1 21 5 20 8-2 1zm-13837-7401l1144 612 14 9 10 11 7 13 4 14v14l-3 15-7 14-10 14-595 664-13 12-15 10-17 7-18 5-18 2-18-1-17-4-16-7-1147-627-13-9-10-11-7-13-3-14v-14l3-15 7-14 11-14 599-650 13-12 15-10 17-7 17-5 18-2 18 1 17 4 16 6-3 2zm-1062-568l723 387 13 9 10 11 7 12 3 13v14l-3 14-7 14-10 14-601 649-13 12-15 10-17 7-18 5-18 2-18-1-17-4-16-7-725-396-13-9-10-11-7-12-3-13v-14l4-14 7-14 11-14 603-640 13-12 15-10 16-7 17-5 18-2 17 1 17 3 15 6 2 2zm-1422-761l1088 582 13 9 10 11 6 12 3 13v14l-4 14-7 14-10 13-602 637-13 12-15 10-17 7-17 5-18 2-17-1-17-4-15-6-1091-596-13-9-9-11-6-12-3-13 1-14 4-14 7-14 11-13 605-623 13-12 15-9 16-7 17-5 17-2 17 1 16 3 15 6zm845-872l1679 876 13 9 10 10 7 12 3 13v14l-3 14-7 14-10 13-586 628-13 12-15 10-16 7-17 5-18 2-17-1-17-3-15-6-1684-897-13-9-9-10-6-12-3-13v-13l4-14 7-13 10-13 591-609 13-11 15-9 16-7 17-4 17-2 17 1 16 3 15 6-1-3zm836-863l1390 708 13 8 10 10 7 12 4 13v13l-3 13-6 13-10 13-573 610-13 11-15 9-16 7-17 5-17 2-17-1-17-3-15-6-1395-725-13-8-9-10-6-11-3-12v-13l3-13 7-13 10-13 577-595 13-11 15-9 16-7 17-4 17-2 17 1 16 3 15 6-2-1zm810-836l1077 535 13 8 10 10 7 11 4 12v13l-3 13-6 13-10 12-561 593-13 11-15 9-16 7-17 4-17 2-17-1-16-3-15-6-1080-548-13-8-9-10-6-11-3-12v-13l3-13 7-13 10-12 564-581 12-11 14-9 16-7 16-4 17-2h17l16 3 15 6-1 2zm12167 8907l3368 1757 18 11 15 14 11 16 8 17 4 18v18l-4 18-8 17-527 801-12 15-15 12-18 9-19 6-20 2-21-1-21-5-20-8-3388-1804-17-11-13-13-10-15-7-16-3-17 1-17 5-17 9-16 544-761 12-14 15-11 17-8 19-5 20-2 20 1 20 4 19 8-2-4zm1727-586l2385 1214 18 11 15 13 11 15 8 16 4 17v17l-4 17-8 16-513 780-12 15-15 12-17 9-19 6-20 2-21-1-21-5-20-8-2399-1246-17-11-14-13-10-15-7-16-3-17 1-17 5-17 9-16 525-751 12-14 15-11 17-8 18-5 19-2 20 1 20 4 19 8-1-1zm1672-588l1432 712 18 11 14 13 11 15 8 16 4 17v17l-4 17-8 16-499 760-12 14-15 11-17 8-19 5-20 2-20-1-20-4-20-8-1440-731-17-11-14-13-11-15-7-16-4-17v-17l4-17 8-16 507-742 12-14 15-11 17-8 18-5 19-2 20 1 20 4 19 8 1 1zm-4701 495l885 461 17 11 13 13 10 15 7 16 3 17-1 17-5 17-9 16-546 759-13 14-15 11-17 8-19 5-20 2-20-1-20-4-19-8-890-474-16-11-13-13-10-15-6-16-2-17 1-17 5-17 9-16 551-747 13-14 15-11 17-8 18-5 19-2 20 1 19 4 18 8 1 1zm-1272-664l866 452 16 10 13 13 10 14 6 15 3 16-1 16-5 16-9 16-552 744-13 14-15 11-17 8-19 5-19 2-20-1-19-4-18-8-870-463-16-11-13-13-9-14-6-16-2-16 2-17 5-16 9-16 556-733 13-13 15-11 17-8 18-5 19-2 19 1 19 4 18 7-1 4zm-1242-648l846 442 16 10 13 12 9 14 6 15 2 16-1 16-5 16-9 15-557 730-13 14-15 11-17 8-19 5-19 2-19-1-19-4-18-8-850-454-16-10-12-12-9-14-5-15-2-16 2-16 6-16 10-15 561-718 13-13 15-11 17-8 18-5 19-2 19 1 19 4 18 7h-4zm5888 157l903 449 17 10 14 13 11 14 7 15 4 16v16l-4 16-8 15-509 741-12 14-15 11-17 8-18 5-20 2-20-1-20-4-19-8-908-460-17-11-14-13-10-14-7-15-3-16 1-16 4-16 8-15 514-729 12-13 15-11 17-8 18-5 19-2 20 1 19 4 19 7-1 1zm-1297-644l883 439 17 10 14 12 10 14 7 15 3 16v16l-4 16-8 15-515 726-12 14-15 11-17 8-18 5-19 2-20-1-20-4-19-8-887-450-16-10-13-12-10-14-7-15-3-16 1-16 5-16 9-15 520-715 12-13 15-11 17-8 18-5 19-2 19 1 19 4 18 7h-3zm-363 1222l894 456 17 11 14 13 10 14 7 16 3 16-1 17-4 16-9 16-527 750-12 14-15 11-17 8-19 5-20 2-20-1-20-4-19-8-899-467-17-11-13-13-10-14-7-16-3-16 1-17 5-16 9-16 532-738 12-14 15-11 17-8 18-5 19-2 20 1 19 4 19 8h1zm-1283-653l874 446 16 10 13 12 10 14 6 15 3 16-1 16-5 16-9 15-533 735-12 14-15 11-17 8-18 5-19 2-20-1-19-4-19-8-879-457-16-10-13-13-10-14-6-15-3-16 1-16 5-16 9-15 538-724 12-13 15-11 17-8 18-5 19-2 19 1 19 4 18 7 2 1zm-4161-717l828 432 15 10 12 12 9 14 5 15 2 16-2 16-5 16-9 15-562 716-13 13-15 11-17 8-18 5-19 2-19-1-19-4-18-7-831-443-15-10-12-12-9-14-5-15-2-16 2-16 6-16 10-15 566-705 13-13 15-10 17-8 18-5 19-2 19 1 18 4 17 7-1-1zm-1188-620l810 423 15 10 12 12 9 13 5 15 2 15-2 15-6 15-10 15-567 702-13 13-15 11-17 8-18 5-19 2-19-1-18-4-17-7-813-434-15-10-12-12-8-14-5-15-1-15 2-16 6-15 10-15 570-692 13-13 15-10 17-8 18-5 18-2 19 1 18 4 17 7-1 2zm-1164-607l792 414 15 10 12 12 8 13 5 14 1 15-2 15-6 15-10 14-571 689-13 13-15 10-17 8-18 5-19 2-19-1-18-4-17-7-796-424-14-10-11-12-8-13-5-14-1-15 3-15 6-15 10-14 574-679 13-13 15-10 17-8 18-5 18-2 18 1 18 4 17 7zm-1138-594l775 405 14 9 11 11 8 13 5 14 1 15-2 15-6 15-10 14-575 676-13 13-15 10-17 8-18 5-18 2-18-1-18-4-17-7-778-415-14-10-11-11-8-13-4-14-1-15 3-15 6-15 10-14 578-666 13-12 15-10 17-7 18-5 18-2 18 1 17 4 16 7v-1zm-1115-582l759 397 14 9 11 11 8 13 4 14 1 14-3 15-6 14-10 14-578 664-13 12-15 10-17 7-18 5-18 2-18-1-18-4-16-7-762-406-14-9-11-11-7-13-4-14-1-14 3-15 6-14 10-14 581-654 13-12 15-10 16-7 17-5 18-2 18 1 17 4 16 7 2-1zm-1091-569l744 388 14 9 11 11 7 12 4 13 1 14-3 14-6 14-10 14-582 652-13 12-15 10-17 7-18 5-18 2-18-1-17-4-16-7-747-398-14-9-10-11-7-12-4-14v-14l3-14 7-14 10-14 584-643 13-12 15-10 16-7 17-5 18-2 18 1 17 3 16 6v4zm-1070-558l729 380 13 9 10 11 7 12 4 13v14l-3 14-6 14-10 13-585 640-13 12-15 10-17 7-17 5-18 2-18-1-17-4-16-6-731-390-13-9-10-11-7-12-3-13v-14l3-14 7-14 10-13 587-631 13-12 15-9 16-7 17-5 17-2 17 1 17 3 15 6 2 1zm9673 3608l855 436 16 10 13 12 10 14 6 15 3 16-1 16-5 16-9 15-539 721-13 14-15 11-17 8-18 5-19 2-19-1-19-4-18-7-859-447-16-10-13-12-9-14-6-15-2-16 1-16 5-16 9-15 543-710 12-13 15-10 17-8 18-5 19-2 19 1 19 4 18 7-1-2zm-1227-625l836 426 16 10 12 12 9 14 6 15 2 15-1 16-5 15-9 15-544 707-13 13-15 11-17 8-18 5-19 2-19-1-19-4-18-7-840-437-15-10-12-12-9-14-5-15-2-15 2-16 5-15 9-15 548-697 12-13 15-10 17-8 18-5 19-2 19 1 18 4 18 7h-1zm-1203-612l818 417 15 10 12 12 9 13 5 14 2 15-2 15-5 15-9 14-549 694-13 13-15 10-17 8-18 5-19 2-19-1-18-4-18-7-822-428-15-10-12-12-9-13-5-14-2-15 2-15 6-15 9-15 553-684 12-13 15-10 17-8 18-5 18-2 19 1 18 4 17 7 2 2zm-1175-598l801 408 15 9 12 11 9 13 5 14 2 15-2 15-5 15-9 14-553 681-13 13-15 10-17 8-18 5-19 2-19-1-18-4-17-7-804-418-15-10-12-12-8-13-5-14-1-15 2-15 6-15 10-14 557-671 13-12 15-10 16-7 18-5 18-2 18 1 18 4 17 7h-2zm-1152-586l784 399 15 9 11 11 8 13 5 14 1 14-2 15-6 15-9 14-558 669-13 13-15 10-17 8-18 5-18 2-18-1-18-4-17-7-787-409-14-9-11-11-8-13-5-14-1-15 2-15 6-15 10-14 561-659 13-12 15-10 16-7 17-5 18-2 18 1 18 4 17 7v-1zm-1126-573l767 391 14 9 11 11 8 12 5 14 1 14-2 14-6 14-9 14-562 657-13 12-15 10-17 7-18 5-18 2-18-1-18-4-17-7-770-401-14-9-11-11-8-13-4-14-1-14 3-15 6-14 10-14 565-647 13-12 15-10 16-7 17-5 18-2 18 1 17 3 16 6 1 4zm-1104-562l752 383 14 9 11 11 8 12 4 13 1 14-2 14-6 14-10 13-565 645-13 12-15 10-16 7-17 5-18 2-18-1-17-4-16-7-755-392-14-9-11-11-7-12-4-13-1-14 3-14 6-14 10-13 568-635 13-12 15-9 16-7 17-5 18-2 18 1 17 3 16 6h-2zm-1080-550l737 375 14 9 10 11 7 12 4 13 1 14-3 14-6 14-10 13-568 633-13 12-15 10-16 7-17 5-18 2-18-1-17-3-16-6-740-384-13-9-10-11-7-12-4-13v-14l3-14 6-14 10-13 571-624 13-12 15-9 16-7 17-5 17-2 17 1 17 3 16 6v-1zm-1060-539l722 367 13 9 10 10 7 12 4 13 1 13-3 14-6 14-10 13-572 622-13 12-15 9-16 7-17 5-18 2-17-1-17-3-16-6-724-376-13-9-10-10-7-12-3-13v-13l3-14 7-14 10-13 574-613 13-11 15-9 16-7 17-4 17-2 17 1 16 3 15 6v-2zm10763 4086l863 429 16 10 13 12 10 14 6 15 3 15-1 16-5 16-9 15-521 712-12 13-15 11-17 8-18 5-19 2-19-1-19-4-18-7-868-440-16-10-13-12-10-14-6-15-3-16 1-16 5-16 9-15 526-701 12-13 15-10 16-8 18-5 19-2 19 1 19 4 18 7h1zm-1239-616l844 420 16 10 13 12 9 13 6 14 3 15-1 15-5 15-9 15-527 699-12 13-15 11-17 8-18 5-19 2-19-1-19-4-18-7-849-431-16-10-12-12-9-13-6-15-2-15 1-15 5-15 9-15 531-688 12-13 15-10 16-8 18-5 19-2 19 1 18 4 18 7h1zm-1214-603l826 411 15 10 12 12 9 13 6 14 2 15-1 15-5 15-9 14-532 686-12 13-15 10-17 8-18 5-19 2-19-1-19-4-18-7-830-421-15-10-12-12-9-13-5-14-2-15 2-15 5-15 9-14 536-675 12-12 14-10 16-7 18-5 18-2 19 1 18 4 17 7 3-3zm-1187-589l809 402 15 9 12 11 9 13 6 14 2 15-1 15-5 15-9 14-537 673-12 13-15 10-16 8-18 5-18 2-19-1-18-4-17-7-812-412-15-9-12-11-9-13-5-14-2-15 2-15 5-15 9-14 540-663 12-12 14-10 16-7 17-5 18-2 18 1 18 4 17 7 1-2zm-1163-578l792 394 15 9 12 11 8 13 5 14 2 14-2 15-5 14-9 14-541 661-12 12-15 10-16 7-18 5-18 2-18-1-18-4-17-7-795-404-15-9-11-11-8-13-5-14-1-14 2-15 6-14 9-14 545-651 12-12 14-10 16-7 17-5 18-2 18 1 18 4 17 6-2 1zm-1137-565l775 386 14 9 11 11 8 12 5 13 2 14-2 14-5 14-9 14-545 649-12 12-15 10-16 7-17 5-18 2-18-1-18-4-17-7-778-395-14-9-11-11-8-12-5-13-1-14 2-14 6-14 9-14 548-639 12-12 14-10 16-7 17-5 18-2 18 1 17 3 16 6 1 1zm-1115-554l760 378 14 9 11 11 8 12 5 13 1 14-2 14-6 14-9 13-549 637-13 12-15 10-16 7-17 5-18 2-18-1-17-4-16-6-762-387-14-9-11-11-8-12-4-13-1-14 2-14 6-14 10-13 552-628 12-12 14-9 16-7 17-5 18-2 18 1 17 3 16 6zm-1091-542l745 370 14 9 11 10 8 12 4 13 1 14-2 14-6 14-9 13-553 626-13 12-15 9-16 7-17 5-18 2-18-1-17-3-16-6-747-379-14-9-10-11-7-12-4-13-1-14 3-14 6-14 10-13 555-617 12-11 14-9 16-7 17-4 17-2 17 1 17 3 16 6v-1zm-1070-532l729 362 13 8 10 10 7 12 4 13 1 13-3 14-6 13-9 13-556 615-13 12-15 9-16 7-17 5-17 2-17-1-17-3-16-6-732-371-13-9-10-10-7-12-4-13-1-13 3-14 6-13 10-13 559-606 12-11 14-9 16-7 17-4 17-2 17 1 17 3 15 6 2-1z"/>
</svg>