<?xml version="1.0" encoding="UTF-8" standalone="no"?>
<svg
   xmlns:dc="http://purl.org/dc/elements/1.1/"
   xmlns:cc="http://creativecommons.org/ns#"
   xmlns:rdf="http://www.w3.org/1999/02/22-rdf-syntax-ns#"
   xmlns:svg="http://www.w3.org/2000/svg"
   xmlns="http://www.w3.org/2000/svg"
   xmlns:sodipodi="http://sodipodi.sourceforge.net/DTD/sodipodi-0.dtd"
   xmlns:inkscape="http://www.inkscape.org/namespaces/inkscape"
   viewBox="0 0 541.99822 368.68411"
   version="1.1"
   id="svg26"
   sodipodi:docname="do-dont.svg"
   width="541.99823"
   height="368.68411"
   inkscape:version="0.92.2 5c3e80d, 2017-08-06">
  <metadata
     id="metadata32">
    <rdf:RDF>
      <cc:Work
         rdf:about="">
        <dc:format>image/svg+xml</dc:format>
        <dc:type
           rdf:resource="http://purl.org/dc/dcmitype/StillImage" />
        <dc:title></dc:title>
      </cc:Work>
    </rdf:RDF>
  </metadata>
  <defs
     id="defs30" />
  <sodipodi:namedview
     pagecolor="#ffffff"
     bordercolor="#666666"
     borderopacity="1"
     objecttolerance="10"
     gridtolerance="10"
     guidetolerance="10"
     inkscape:pageopacity="0"
     inkscape:pageshadow="2"
     inkscape:window-width="2048"
     inkscape:window-height="1088"
     id="namedview28"
     showgrid="false"
     fit-margin-top="0"
     fit-margin-left="0"
     fit-margin-right="0"
     fit-margin-bottom="0"
     inkscape:zoom="0.8029555"
     inkscape:cx="274.66144"
     inkscape:cy="-84.897778"
     inkscape:window-x="0"
     inkscape:window-y="27"
     inkscape:window-maximized="1"
     inkscape:current-layer="svg26" />
  <path
     style="fill:#a6c2da;stroke:#123569;stroke-width:9.76563263;stroke-linecap:round"
     inkscape:connector-curvature="0"
     id="path6"
     d="m 239.99625,214.74056 c 0,19.72493 5.16053,38.41011 14.37984,55.1025 1.69304,3.06575 6.37102,10.30519 5.48321,13.71273 l -20.00852,76.79084 73.67277,-31.02197 c 3.87364,-1.63103 11.37169,1.35949 15.36317,2.87209 18.2617,6.92029 38.44538,10.7613 59.66939,10.7613 82.04542,0 148.55928,-57.40652 148.55928,-128.21985 0,-70.81332 -66.51092,-128.21984 -148.55928,-128.21984 -82.04835,0 -148.55927,57.40652 -148.55927,128.21984 z" />
  <path
     style="fill:#ffffff;fill-opacity:0.48900003;stroke-width:2.9388001"
     inkscape:connector-curvature="0"
     id="path8"
     d="m 391.57955,97.59999 c -76.88488,0 -137.48,53.21285 -137.48,117.09355 0,17.81412 4.58306,34.62788 12.94923,49.77739 0.54691,0.99038 2.33253,3.91977 3.94916,7.25531 1.61664,3.33554 4.70473,6.41511 2.57145,14.60231 l -14.32665,55.1025 52.98951,-22.31666 c 6.49386,-2.73455 10.92616,-1.23577 14.694,-0.27537 3.76783,0.9604 7.01374,2.22085 8.90838,2.9388 16.99479,6.44038 35.85336,10.01044 55.7461,10.01044 11.51892,0 22.60995,-1.1526 33.2437,-3.39814 40.76704,-33.34362 66.39925,-81.56345 66.39925,-135.1848 0,-25.37418 -5.70891,-49.50114 -16.07171,-71.4481 -23.0352,-15.10161 -51.88157,-24.15341 -83.57359,-24.15341 z" />
  <path
     style="fill:#a7c2da;stroke-width:2.9388001"
     inkscape:connector-curvature="0"
     id="path10"
     d="m 399.68653,152.97785 c -3.93212,-0.57012 -8.10228,0.3315 -11.43135,2.59408 -3.38638,2.30167 -5.87877,6.08714 -6.47858,10.22203 -0.59981,4.13489 0.8067,8.46227 3.3229,11.53714 0.94717,1.15759 2.14503,2.0554 3.40078,2.93821 -2.02542,0.37588 -3.97062,1.15995 -5.65837,2.36838 -0.0235,0.0176 -0.0799,-0.0323 -0.10374,-0.0147 l 0.0888,0.11873 c -2.04716,1.46822 -3.4766,3.63764 -4.49107,6.0457 -0.12196,-4.88018 -2.42569,-9.85468 -6.63934,-12.12432 -0.0206,-0.009 0.0344,-0.0937 0.0147,-0.10374 l -0.10374,-0.0147 c -3.12542,-1.63486 -6.46536,-2.21321 -11.37522,-2.92528 l -0.10374,-0.0147 c 0.58306,-4.94071 0.5716,-9.3636 -1.04298,-13.33245 -1.79355,-4.40938 -6.27375,-7.81927 -10.9914,-8.50342 -3.70847,-0.5378 -7.61296,0.34854 -10.65727,2.38748 -3.1116,2.0842 -5.39651,5.69246 -5.94137,9.44942 -0.21042,1.45118 -0.45345,3.56976 -0.6674,6.06862 -1.12438,-0.23304 -3.12365,-0.77173 -3.91095,-0.88605 -3.78253,-0.54838 -7.90949,0.27243 -11.01492,2.65462 -3.00669,2.30637 -4.89839,5.92139 -5.42062,9.52495 -0.49871,3.43898 -8.8e-4,7.20917 2.13563,10.19558 2.13651,2.9864 5.45412,4.75409 8.8549,5.64249 2.72015,0.68533 4.1537,0.97039 6.17118,1.42649 -1.19785,11.87364 -2.27228,22.26465 -2.82271,26.05952 -0.17751,1.22313 -0.58453,3.42076 -1.12939,6.32048 -0.54485,2.89971 -0.95804,5.13966 -1.20461,6.84123 -0.5569,3.84042 0.89104,7.94945 3.33965,10.689 l 0.0888,0.11873 c 2.36074,2.62405 5.72684,4.33855 9.18405,4.83991 4.52781,0.65682 9.68393,-1.01389 12.67034,-4.54045 2.98641,-3.52656 4.24539,-8.01645 5.01212,-13.30483 0.10286,-0.70942 0.35295,-2.10506 0.54368,-3.74814 0.18309,-1.57108 0.28242,-2.67842 0.28889,-2.72192 0.6289,-4.33561 1.80001,-14.89119 3.03225,-26.77305 0.63919,0.0987 1.30953,0.24039 2.06715,0.40585 l 0.20836,0.0303 c 1.07355,0.19397 2.05981,0.40497 3.21241,0.5719 3.67732,0.53339 7.76754,-0.19896 10.88061,-2.46154 1.29278,-0.93924 2.27434,-2.24877 3.17655,-3.57887 -0.44729,2.617 -0.79083,4.99801 -1.51995,8.28359 -1.21402,5.46676 -2.08831,10.00191 -2.64786,13.86026 -0.35765,2.46536 -0.802,6.13857 -1.42238,11.27412 -0.006,0.0347 -0.0117,0.0691 -0.0147,0.10374 -0.57336,5.08295 -1.05327,8.72736 -1.37712,10.96173 -0.54368,3.74785 0.30563,7.82925 2.6696,10.91088 l 0.10374,0.0147 c 2.401,3.04519 6.07244,4.81376 9.64426,5.33187 3.57182,0.51811 7.59445,-0.13489 10.76159,-2.3725 l 0.10374,0.0147 c 3.25061,-2.36192 5.0374,-6.14915 5.55522,-9.71803 0.34413,-2.37278 0.84314,-6.1512 1.42238,-11.27411 0.006,-0.0485 0.009,-0.0555 0.0147,-0.10374 0.61156,-5.05797 1.06649,-8.81905 1.37712,-10.96173 0.48872,-3.36904 1.35067,-7.72934 2.52708,-13.0274 1.21519,-5.47234 2.1033,-10.10595 2.66314,-13.9643 0.53927,-3.71876 -0.56543,-7.71347 -2.81919,-10.61377 l 0.11902,-0.0888 c -0.0176,-0.0235 -0.0855,0.009 -0.10374,-0.0147 -0.83139,-1.06825 -1.91404,-1.89435 -3.01433,-2.6696 2.34399,-0.41731 4.54339,-1.18287 6.41746,-2.47094 l 0.0147,-0.10374 c 3.34083,-2.30167 5.77269,-6.0889 6.34428,-10.02895 0.5716,-3.94005 -0.59569,-8.27419 -3.21886,-11.52216 l 0.11872,-0.0888 c -0.0176,-0.0235 -0.0852,0.009 -0.10374,-0.0147 -2.48828,-3.06958 -6.21703,-5.15348 -10.11946,-5.71949 l -1.8e-4,-3e-5 z m 25.51378,28.57454 c -4.79231,-0.69502 -9.98428,1.42444 -13.17758,5.1047 -2.04688,2.40982 -2.92411,4.67445 -3.80898,7.20741 -0.88487,2.53295 -1.48468,5.10734 -1.81589,7.3902 l 0.41026,3.03607 c -0.73,-4.36206 -0.54456,5.49438 -0.59393,6.29197 -0.46404,6.29227 -1.17493,13.85262 -2.30931,22.51973 -0.81082,6.15591 -1.97076,14.15797 -3.47278,23.94534 -1.9975,13.2008 -3.1839,20.48844 -3.49982,22.66579 -0.54368,3.74786 0.40468,7.83455 2.6846,10.80685 2.25846,2.94409 5.86819,4.99655 9.71802,5.55522 3.84983,0.55866 7.89391,-0.3844 10.89589,-2.56558 3.0305,-2.20204 5.10059,-5.85115 5.64426,-9.599 l 2.73103,-18.10007 c 1.59489,0.365 3.25942,1.00419 4.81787,1.23018 10.49798,1.5226 20.4517,-0.98655 28.10492,-7.61707 7.07839,-6.10742 11.48836,-14.71487 12.95159,-24.80318 1.48203,-10.21909 0.9601,-19.27618 -1.83205,-26.94703 -3.79311,-10.26699 -12.49108,-17.11881 -23.54126,-18.72133 -3.27471,-0.47491 -6.69018,-0.50989 -10.08684,-0.0811 -0.035,0.003 -0.0691,-0.0176 -0.10374,-0.0147 -1.05268,0.12813 -2.05775,0.60569 -3.09632,0.82669 -0.40321,-0.88723 -0.63978,-1.85145 -1.21431,-2.62112 -2.23966,-2.99963 -5.80267,-4.98714 -9.40563,-5.50966 l 3e-5,-1.5e-4 z m 19.80045,35.71847 c 0.69768,0.1011 0.44553,0.10345 0.59452,0.29888 0.149,0.19543 0.60598,0.96216 0.76762,2.76894 0.0861,1.0371 -0.0558,4.78172 -0.82492,10.08508 -0.53193,3.66821 -1.59195,5.72419 -2.81155,6.92704 l -0.10374,-0.0147 c -1.33481,1.32305 -2.37161,1.78209 -5.09118,1.3877 -1.61458,-0.23422 -3.18566,-1.01418 -4.77232,-1.54258 0.75733,-5.68246 1.40446,-11.34994 1.94049,-17.04562 1.65014,-0.88547 3.33701,-1.86849 4.79554,-2.28081 2.14385,-0.63595 3.98442,-0.80405 5.50584,-0.58335 l -1.5e-4,-3e-5 z" />
  <path
     style="fill:#4d7aa6;stroke-width:2.9388001"
     inkscape:connector-curvature="0"
     id="path12"
     d="m 434.3385,261.03253 c -3.49217,-0.50635 -7.10778,-1.4453 -10.84769,-2.81684 l -3.66498,24.84139 c -0.34149,2.35515 -1.41592,4.18926 -3.22328,5.50261 -1.80736,1.31335 -3.92917,1.79325 -6.36544,1.44001 -2.43626,-0.35325 -4.33443,-1.41621 -5.69422,-3.18889 -1.35978,-1.77269 -1.86907,-3.83661 -1.52729,-6.19176 0.27683,-1.90846 1.41591,-9.47528 3.41665,-22.70076 1.50643,-9.81471 2.6696,-17.83411 3.48923,-24.05849 1.14996,-8.78848 1.96136,-16.38205 2.43333,-22.78128 0.65712,-8.81846 0.16046,-9.6331 0.0547,-8.90251 0.48872,-3.37022 2.4301,-9.37301 4.27978,-11.55095 2.14062,-2.46713 4.69297,-3.48601 7.65704,-3.05606 2.27375,0.32973 4.07053,1.378 5.38976,3.14481 1.31923,1.76681 1.82264,3.7261 1.51054,5.87819 l -0.14929,0.6001 c 2.94409,-1.14848 5.8297,-1.89082 8.65624,-2.22732 2.87297,-0.37087 5.6901,-0.35647 8.4514,0.0441 9.33921,1.35449 15.58651,6.30284 18.74249,14.84505 2.34193,6.43421 2.82419,14.40188 1.44618,23.90361 -1.28984,8.89252 -4.89633,15.89421 -10.82007,21.00537 -6.35398,5.50466 -14.09889,7.59444 -23.23504,6.26963 m 11.50776,-49.76093 c -2.55823,-0.37088 -5.24517,-0.13871 -8.06113,0.69649 -2.81008,0.79495 -5.7289,2.19558 -8.75616,4.20278 -0.72588,8.43524 -1.69833,16.85549 -2.91734,25.26075 3.4431,1.70156 6.97142,2.81449 10.58526,3.33877 4.18221,0.60657 7.60503,-0.41026 10.26817,-3.05047 2.41892,-2.38543 3.95797,-5.85204 4.61773,-10.39983 0.79495,-5.48174 1.10205,-9.31364 0.92102,-11.4957 -0.45904,-5.12439 -2.67842,-7.97532 -6.65755,-8.5525 m -49.70422,-34.19823 c -2.59878,-0.37675 -4.72559,-1.57666 -6.38102,-3.59944 -1.65542,-2.02278 -2.3002,-4.293 -1.9352,-6.81037 0.365,-2.51738 1.62839,-4.51077 3.79017,-5.98017 2.16178,-1.4694 4.54192,-2.01543 7.14041,-1.63838 2.59848,0.37705 4.70531,1.57373 6.31988,3.59063 1.65514,2.02277 2.3002,4.29299 1.9352,6.81037 -0.36499,2.51738 -1.62838,4.51106 -3.79017,5.98017 -2.12122,1.47527 -4.48108,2.02424 -7.07956,1.64719 m -1.29749,45.39623 c -0.33561,2.3146 -0.81345,6.03865 -1.43384,11.17244 -0.57982,5.13967 -1.03739,8.86695 -1.373,11.18125 -0.34149,2.35516 -1.41621,4.18926 -3.22328,5.50261 -1.80148,1.2728 -3.92036,1.73242 -6.35662,1.37918 -2.43627,-0.35324 -4.33738,-1.39593 -5.70304,-3.12806 -1.35978,-1.77268 -1.86908,-3.8366 -1.52729,-6.19176 0.33561,-2.3146 0.79318,-6.04158 1.373,-11.18125 0.62009,-5.13379 1.09823,-8.85813 1.43385,-11.17243 0.52398,-3.61385 1.38358,-8.11197 2.57879,-13.49409 1.19521,-5.38212 2.05481,-9.88025 2.5788,-13.49409 0.34149,-2.35515 1.41297,-4.16898 3.21446,-5.44178 1.80736,-1.31335 3.92917,-1.79325 6.36544,-1.44001 2.43626,0.35325 4.33444,1.4165 5.69422,3.18889 1.36566,1.73213 1.87789,3.77577 1.5364,6.13063 -0.52428,3.61385 -1.38358,8.11197 -2.57879,13.49409 -1.19521,5.38212 -2.05481,9.88025 -2.5788,13.49409 m -31.8102,-25.50879 c -0.85284,-0.12373 -1.86496,-0.29124 -3.03666,-0.50283 -1.12527,-0.24627 -2.11417,-0.43083 -2.96672,-0.55485 -1.66483,-0.24157 -3.61708,-0.35853 -5.85703,-0.35177 -1.64808,16.51047 -2.83741,27.28323 -3.5677,32.31828 -0.0767,0.5278 -0.20043,1.52582 -0.37176,2.99346 -0.16546,1.42708 -0.31298,2.58732 -0.44229,3.48071 -1.35449,9.33921 -4.97539,13.58167 -10.86327,12.72794 -2.23349,-0.32385 -4.06201,-1.29395 -5.48586,-2.91 -1.57461,-1.72096 -2.20293,-3.67761 -1.88495,-5.87025 0.21189,-1.46176 0.59099,-3.64558 1.13673,-6.55147 0.54573,-2.90588 0.92455,-5.0897 1.13673,-6.55146 0.71266,-4.91309 1.87231,-15.48278 3.47924,-31.70907 -2.49974,-0.48696 -6.26963,-1.36536 -11.30938,-2.63522 -4.99332,-1.30453 -7.14834,-4.31181 -6.46507,-9.02211 0.32974,-2.27375 1.38094,-4.09081 3.15363,-5.4506 1.77268,-1.35978 3.87716,-1.8629 6.31342,-1.50966 1.50232,0.21806 4.91838,0.96216 10.24819,2.23261 0.14782,-1.30512 0.35824,-3.4719 0.63184,-6.50033 0.21424,-2.62229 0.42495,-4.6439 0.63096,-6.0651 0.32973,-2.27375 1.4359,-4.04114 3.31879,-5.30218 1.88288,-1.26104 4.00147,-1.72067 6.35662,-1.37918 6.00955,0.87165 8.28124,6.36279 6.81478,16.47315 l -0.84608,4.97686 c 2.57057,-3e-4 4.64742,0.11432 6.23114,0.34413 4.66946,0.6771 7.8128,1.44413 9.43002,2.30049 3.08339,1.60811 4.34854,4.32063 3.79487,8.13725 -0.33561,2.31459 -1.40709,4.12842 -3.21446,5.44177 -1.80736,1.31335 -3.92917,1.79326 -6.36544,1.44001" />
  <path
     d="m 302.0042,133.1008 c 0,19.725 -5.1606,38.41 -14.38,55.104 -1.6932,3.0657 -6.3711,10.305 -5.4833,13.713 l 20.009,76.793 -73.674,-31.022 c -3.8737,-1.6311 -11.372,1.3594 -15.364,2.8721 -18.262,6.9205 -38.446,10.762 -59.669,10.762 -82.048,0 -148.5599998,-57.406 -148.5599998,-128.22 0,-70.814 66.5129998,-128.2199998 148.5599998,-128.2199998 82.047,0 148.56,57.4059998 148.56,128.2199998 z"
     id="path16"
     inkscape:connector-curvature="0"
     style="fill:#a6c2da;stroke:#123569;stroke-width:9.76580048;stroke-linecap:round" />
  <path
     d="M 53.0063,51.5141 C 37.685748,65.644732 25.786547,83.200242 19.9448,103.49559 7.3164828,147.09563 28.188134,196.76723 65.954653,221.2298 a 3.6029688,3.6029688 0 0 1 0.09169,0 C 99.563358,243.63551 150.41048,254.89963 192.69099,244.7402 144.52994,236.08014 109.65226,212.30466 86.985294,179.07565 63.221569,144.23912 53.033337,99.348948 53.006888,51.5141 Z"
     id="path18"
     inkscape:connector-curvature="0"
     style="fill:#ffffff;fill-opacity:0.43900003;stroke-width:2.9388001" />
  <g
     transform="matrix(2.9954,0,0,2.9954,-2231.7858,-1333.7992)"
     id="g24"
     style="fill:#4d7aa6;stroke:#c1d5e4">
    <path
       d="m 791.3908,460.0688 c 3.6703,-0.4522 6.9892,2.1386 7.4413,5.8089 l 0.3859,23.3839 c 0.0232,4.591 -1.7608,4.773 -3.6014,5.1083 -1.5198,0.2768 -3.1864,-0.329 -4.4129,-4.1209 l -5.6218,-22.7389 c -0.4522,-3.6703 2.1386,-6.9892 5.8089,-7.4413 z"
       id="path20"
       inkscape:connector-curvature="0"
       style="stroke-width:2.00349998" />
    <path
       transform="matrix(0.85454,-0.10528,0.10528,0.85454,108.75,133.28)"
       d="m 748.21,524.15 c 0,3.7476 -3.0381,6.7857 -6.7857,6.7857 -3.7476,0 -6.7857,-3.0381 -6.7857,-6.7857 0,-3.7476 3.0381,-6.7857 6.7857,-6.7857 3.7476,0 6.7857,3.0381 6.7857,6.7857 z"
       id="path22"
       inkscape:connector-curvature="0"
       style="stroke-width:2.4612999;stroke-linecap:round" />
  </g>
</svg>
