<?xml version="1.0" encoding="UTF-8"?>
<svg viewBox="0 0 350 420" xmlns="http://www.w3.org/2000/svg" xmlns:xlink="http://www.w3.org/1999/xlink">
 <defs>
  <filter id="ae">
   <feGaussianBlur stdDeviation="1.9002"/>
  </filter>
  <filter id="ak">
   <feGaussianBlur stdDeviation="2.1291"/>
  </filter>
  <filter id="a">
   <feGaussianBlur stdDeviation="3.0817"/>
  </filter>
  <filter id="al">
   <feGaussianBlur stdDeviation="1.9852"/>
  </filter>
  <filter id="an">
   <feGaussianBlur stdDeviation="1.8151"/>
  </filter>
  <filter id="am">
   <feGaussianBlur stdDeviation="2.2143"/>
  </filter>
  <filter id="ao">
   <feGaussianBlur stdDeviation="1.7075"/>
  </filter>
  <filter id="ap">
   <feGaussianBlur stdDeviation="1.9756"/>
  </filter>
  <filter id="d">
   <feGaussianBlur stdDeviation="2.1879"/>
  </filter>
  <filter id="aq">
   <feGaussianBlur stdDeviation="1.8704"/>
  </filter>
  <filter id="ar">
   <feGaussianBlur stdDeviation="1.6153"/>
  </filter>
  <filter id="ah">
   <feGaussianBlur stdDeviation="2.6188"/>
  </filter>
  <filter id="aj">
   <feGaussianBlur stdDeviation="2.7954"/>
  </filter>
  <filter id="ai">
   <feGaussianBlur stdDeviation="2.0032"/>
  </filter>
  <filter id="ag">
   <feGaussianBlur stdDeviation="2.1839"/>
  </filter>
  <filter id="af">
   <feGaussianBlur stdDeviation="1.7465"/>
  </filter>
  <filter id="ad">
   <feGaussianBlur stdDeviation="1.8986"/>
  </filter>
  <linearGradient id="b">
   <stop offset="0"/>
   <stop stop-opacity="0" offset="1"/>
  </linearGradient>
  <linearGradient id="c" x1="326.27" x2="487.61" gradientUnits="userSpaceOnUse">
   <stop stop-color="#afdde9" stop-opacity="0" offset="0"/>
   <stop stop-color="#afdde9" stop-opacity=".1961" offset=".5"/>
   <stop stop-color="#afdde9" stop-opacity="0" offset="1"/>
  </linearGradient>
  <linearGradient id="ac" x1="245.23" x2="282.76" y1="104.37" y2="184.4" gradientTransform="matrix(23.05 0 0 -23.05 -3856 5277.2)" gradientUnits="userSpaceOnUse">
   <stop stop-color="#ccc" offset="0"/>
   <stop stop-color="#808080" offset="1"/>
  </linearGradient>
  <linearGradient id="ab" x1="306.7" x2="3462.4" gradientUnits="userSpaceOnUse">
   <stop stop-color="#ccc" offset="0"/>
   <stop stop-color="#fff" stop-opacity=".9843" offset=".5"/>
   <stop stop-color="#ccc" stop-opacity=".9904" offset="1"/>
  </linearGradient>
  <linearGradient id="aa" x1="202.17" x2="212.59" y1="125.07" y2="118.13" gradientTransform="matrix(23.05 0 0 -23.05 -3856 5277.2)" gradientUnits="userSpaceOnUse">
   <stop stop-color="#ccc" offset="0"/>
   <stop stop-color="#999" offset="1"/>
  </linearGradient>
  <linearGradient id="z" x1="195.52" x2="216.19" y1="198.68" y2="173.8" gradientTransform="matrix(23.05 0 0 -23.05 -3832.9 5254.1)" gradientUnits="userSpaceOnUse">
   <stop stop-color="#800000" offset="0"/>
   <stop stop-color="#a00" offset="1"/>
  </linearGradient>
  <linearGradient id="y" x1="1711.1" x2="2427.8" gradientUnits="userSpaceOnUse">
   <stop stop-color="#800000" offset="0"/>
   <stop stop-color="#800000" stop-opacity="0" offset=".5"/>
   <stop stop-color="#800000" stop-opacity=".9952" offset="1"/>
  </linearGradient>
  <linearGradient id="x" x1="388.54" x2="292.38" y1="250.97" y2="260.24" gradientUnits="userSpaceOnUse">
   <stop stop-color="#b3b3b3" offset="0"/>
   <stop stop-color="#f2f2f2" offset="1"/>
  </linearGradient>
  <linearGradient id="w" x1="392.44" x2="476.21" y1="248.69" y2="229.33" gradientUnits="userSpaceOnUse">
   <stop stop-color="#ccc" offset="0"/>
   <stop stop-color="#f2f2f2" offset="1"/>
  </linearGradient>
  <linearGradient id="v" x1="373.25" x2="399.86" y1="219.46" y2="108.47" gradientUnits="userSpaceOnUse">
   <stop stop-color="#b6b6b6" offset="0"/>
   <stop stop-color="#e6e6e6" offset="1"/>
  </linearGradient>
  <linearGradient id="u" x1="157.62" x2="158.38" y1="-6.4922" y2="-66.426" gradientUnits="userSpaceOnUse">
   <stop stop-color="#fdb146" offset="0"/>
   <stop stop-color="#f0c990" offset="1"/>
  </linearGradient>
  <linearGradient id="t" x1="371.03" x2="80.409" y1="286.86" y2="291.24" gradientUnits="userSpaceOnUse">
   <stop stop-color="#5c2914" offset="0"/>
   <stop stop-color="#8a5339" offset=".5"/>
   <stop stop-color="#5c2914" offset="1"/>
  </linearGradient>
  <linearGradient id="s" x1="271.16" x2="273.39" y1="76.174" y2="229.39" gradientUnits="userSpaceOnUse">
   <stop stop-color="#ffbc6f" offset="0"/>
   <stop stop-color="#ffebbb" offset="1"/>
  </linearGradient>
  <linearGradient id="r" x1="229.74" x2="230.15" y1="212.87" y2="248.45" gradientUnits="userSpaceOnUse">
   <stop stop-color="#ffefce" offset="0"/>
   <stop stop-color="#f5c074" offset="1"/>
  </linearGradient>
  <linearGradient id="q" x1="293.22" x2="454.21" y1="266.42" y2="340.87" gradientUnits="userSpaceOnUse">
   <stop stop-color="#d40000" offset="0"/>
   <stop stop-color="#800000" offset="1"/>
  </linearGradient>
  <linearGradient id="p" x1="409.98" x2="489.15" y1="318.07" y2="230.45" gradientUnits="userSpaceOnUse">
   <stop stop-color="#800000" offset="0"/>
   <stop stop-color="#d40000" offset=".3354"/>
   <stop stop-color="#800000" offset="1"/>
  </linearGradient>
  <linearGradient id="o" x1="549.61" x2="392.63" y1="154.08" y2="79.583" gradientUnits="userSpaceOnUse">
   <stop stop-color="#dadada" offset="0"/>
   <stop stop-color="#e6e6e6" offset="1"/>
  </linearGradient>
  <radialGradient id="l" cx="281.96" cy="536.67" r="211.59" gradientTransform="matrix(1 0 0 .12178 0 471.31)" gradientUnits="userSpaceOnUse">
   <stop offset="0"/>
   <stop stop-opacity=".9529" offset=".0445"/>
   <stop stop-opacity="0" offset="1"/>
  </radialGradient>
  <radialGradient id="k" cx="486.52" cy="245.29" r="71.837" gradientTransform="matrix(.15365 -.98813 1.5397 .23942 34.094 644.99)" gradientUnits="userSpaceOnUse">
   <stop stop-color="#b6b6b6" offset="0"/>
   <stop stop-color="#ececec" offset="1"/>
  </radialGradient>
  <radialGradient id="i" cx="-264.15" cy="16.728" r="155.13" gradientTransform="matrix(1.4419 -.24687 .07401 .43225 522.34 -130.8)" gradientUnits="userSpaceOnUse">
   <stop stop-color="#ffedca" offset="0"/>
   <stop stop-color="#f7d87b" offset="1"/>
  </radialGradient>
  <radialGradient id="h" cx="172.76" cy="366.31" r="127.15" gradientTransform="matrix(1 0 0 .26815 0 288.1)" gradientUnits="userSpaceOnUse">
   <stop stop-color="#feb623" offset="0"/>
   <stop stop-color="#ffd250" offset="1"/>
  </radialGradient>
  <radialGradient id="g" cx="178.85" cy="316.76" r="76.344" gradientTransform="matrix(1.4169 -.01018 .00397 .5532 225.67 -135.41)" gradientUnits="userSpaceOnUse">
   <stop stop-color="#ab0e01" offset="0"/>
   <stop stop-color="#ab0e01" stop-opacity="0" offset="1"/>
  </radialGradient>
  <radialGradient id="f" cx="301.95" cy="144.47" r="167.37" gradientTransform="matrix(1 0 0 .4916 0 82.647)" gradientUnits="userSpaceOnUse">
   <stop stop-color="#ffb85c" offset="0"/>
   <stop stop-color="#ffb85c" stop-opacity="0" offset="1"/>
  </radialGradient>
  <radialGradient id="e" cx="101.15" cy="-277.57" r="72.612" gradientTransform="matrix(1.5666 -.45666 .14828 .5087 69.822 322.22)" gradientUnits="userSpaceOnUse">
   <stop stop-color="#ff8029" offset="0"/>
   <stop stop-color="#ffb758" offset=".5"/>
   <stop stop-color="#ffb758" stop-opacity="0" offset="1"/>
  </radialGradient>
  <radialGradient id="n" cx="212.47" cy="381.11" r="96.919" gradientTransform="matrix(1 0 0 .39997 0 228.68)" gradientUnits="userSpaceOnUse" xlink:href="#b"/>
  <radialGradient id="m" cx="485.52" cy="710.28" r="118.24" gradientTransform="matrix(1 0 0 .26153 0 524.52)" gradientUnits="userSpaceOnUse" xlink:href="#b"/>
  <radialGradient id="j" cx="111.65" cy="599.37" r="186.63" gradientTransform="matrix(.96785 0 0 .24376 3.5895 463.72)" gradientUnits="userSpaceOnUse" xlink:href="#b"/>
 </defs>
 <path d="m122.39 380.35-2.2806 6.8416 109.47 28.127 75.258-60.054-141.39-8.362z" fill="url(#n)" filter="url(#ad)" opacity=".5"/>
 <g transform="translate(-182.76 89.555)">
  <path transform="matrix(.53982 0 0 .72751 111.27 -256.41)" d="m598.72 710.28c0 13.43-50.683 24.318-113.2 24.318s-113.2-10.888-113.2-24.318 50.683-24.318 113.2-24.318 113.2 10.888 113.2 24.318z" fill="url(#m)" filter="url(#ae)" opacity=".5"/>
  <g transform="matrix(.59971 0 0 .59971 130.79 500.32)">
   <path d="m444.08-954.96c-3.9083 0.20498-37.658 0.0988-75.156 0.3005 0 0-4.3082 7.0587-3.5938 10.568 1.6083 4.8787 3.7064 6.7918 6.9688 10.25l1.4688 54.031c-0.22641 0.60171-0.39497 1.6432-0.65625 3.5312-2.7849 20.124-10.055 44.87-22 74.875-10.421 26.177-13.205 35.561-11.875 40 0.53475 1.7848 0.44809 2.1791-0.84375 4.75-6.2987 12.535-12.125 52.044-12.125 82.125 0 13.11 0.52988 18.796 2.125 22.469 0.92782 2.1362 0.98539 2.5425 0.40625 3.7188-2.6334 5.3486-1.6418 19.206 3.7188 51.437 4.9046 29.49 5.997 37.867 7.9688 61.594 3.6944 44.456 3.1284 51.964-6.9688 93.688-4.7105 19.465-5.5128 24.067-5.1875 29.844 0.4112 7.3017 2.3913 11.086 7.7188 14.875 3.5943 2.5559 7.2653 4.1625 13.938 6.0625 8.3801 2.3864 15.527 3.5719 27.719 4.5938 9.2662 0.77661 43.783 0.96098 53.75 0.28125 16.733-1.1411 29.457-3.506 38.594-7.125 7.1004-2.8124 11.178-6.0146 13.719-10.75 1.271-2.369 1.4477-3.1873 1.625-7.9375 0.2438-6.5293-0.67772-12.028-4.7812-28.719-8.3503-33.963-9.426-41.689-8.9688-63.938 0.26794-13.039 0.63178-18.874 2.75-42.219 1.2739-14.039 4.4054-35.912 8.2188-57.656 1.9091-10.886 3.4242-23.876 3.6875-31.594 0.24559-7.199 0.16964-8.2222-0.71875-10.719-0.95853-2.6937-0.97134-2.8133-0.125-5.0625 1.811-4.813 2.1962-8.9887 2.1562-23.781-0.0423-15.615-0.70088-24.648-3.125-42.219-2.5962-18.819-5.7469-32.559-8.8125-38.594-0.79763-1.5702-0.9972-2.9857-1.0625-7.5-0.1038-7.175-0.90031-9.7771-10.719-34.719-12.011-30.512-16.297-44.518-21.531-70.25-1.8984-9.3318-2.8152-15.169-3.25-20.719-0.69753-8.9037-0.83857-30.878-0.25-38.438 0.36608-4.7016 0.78842-4.2879 1.4062-5.3125 0.87115-2.5199 1.1802-2.2702 3.6875-5.7499 3.5981-2.4887 4.7182-8.4162 2.5938-13.656z" fill="#afdde9" opacity=".5"/>
   <path d="m434.3-880.12-54.656 1.125a5.9015 5.9015 0 0 1 -0.34375 1.3125c0.22402-0.59536-0.0893 0.41142-0.34375 2.25-2.886 20.855-10.322 45.974-22.375 76.25-5.1876 13.031-8.4342 21.855-10.156 27.656s-1.5431 8.4293-1.5312 8.4688c0.32681 1.0908 0.74454 2.9421 0.40625 4.8125s-0.94851 2.935-1.625 4.2812c-2.3603 4.6973-5.6722 17.762-7.875 32.687s-3.625 32.122-3.625 46.781c0 12.951 0.72625 18.056 1.625 20.125 0.5006 1.1526 1.0136 2.0813 1.2188 3.9062s-0.49478 3.8508-0.9375 4.75c-0.29502 0.5992-1.0939 4.8251-0.53125 12.625s2.1138 19.211 4.7812 35.25c4.911 29.529 6.0541 38.271 8.0312 62.063 3.7031 44.56 3.0296 53.731-7.0938 95.562-4.6965 19.407-5.316 23.068-5.0312 28.125 0.35784 6.3542 0.84117 7.2932 5.2188 10.406 2.9995 2.133 5.7784 3.3714 12.156 5.1875 8.0254 2.2853 14.589 3.4001 26.594 4.4062 8.1283 0.68124 43.871 0.89313 52.844 0.28125 16.383-1.1173 28.601-3.4976 36.812-6.75 6.3937-2.5325 8.8978-4.6372 10.719-8.0312 0.55554-1.0355 0.53737-1.0429 0.625-1.4688s0.19483-1.5915 0.28125-3.9062c0.2185-5.8518-0.51306-10.496-4.5938-27.094-8.3718-34.051-9.6179-43.002-9.1562-65.469 0.26945-13.112 0.66053-19.253 2.7812-42.625 1.3027-14.357 4.4466-36.291 8.2812-58.156 1.8629-10.622 3.3491-23.578 3.5938-30.75 0.12176-3.5693 0.16038-5.5467 0.0937-6.5312s-0.0921-0.97279-0.46875-2.0312c-0.48573-1.365-1.0091-2.4925-1.0625-4.5s0.52998-3.459 0.96875-4.625c1.512-4.0182 1.821-6.9692 1.7812-21.656-0.0419-15.455-0.65603-23.994-3.0625-41.438-2.561-18.563-6.0518-32.453-8.2188-36.719-1.2662-2.4925-1.6512-5.4234-1.7188-10.094-0.0489-3.3795-0.1182-4.7867-1.4375-9.0625s-3.9715-11.137-8.875-23.594c-12.062-30.64-16.536-45.28-21.812-71.219-1.0123-4.9762-1.7343-9.0109-2.2812-12.594z" fill="#280b0b"/>
   <path d="m444.08-959.99c-3.9083 0.20498-37.658 0.0988-75.156 0.3005 0 0-4.3082 7.0587-3.5938 10.568 1.6083 4.8787 3.7064 6.7918 6.9688 10.25l1.4688 54.031c-0.22641 0.60171-0.39497 1.6432-0.65625 3.5312-2.7849 20.124-10.055 44.87-22 74.875-10.421 26.177-13.205 35.561-11.875 40 0.53475 1.7848 0.44809 2.1791-0.84375 4.75-6.2987 12.535-12.125 52.044-12.125 82.125 0 13.11 0.52988 18.796 2.125 22.469 0.92782 2.1362 0.98539 2.5425 0.40625 3.7188-2.6334 5.3486-1.6418 19.206 3.7188 51.437 4.9046 29.49 5.997 37.867 7.9688 61.594 3.6944 44.456 3.1284 51.964-6.9688 93.688-4.7105 19.465-5.5128 24.067-5.1875 29.844 0.4112 7.3017 2.3913 11.086 7.7188 14.875 3.5943 2.5559 7.2653 4.1625 13.938 6.0625 8.3801 2.3864 15.527 3.5719 27.719 4.5938 9.2662 0.77661 43.783 0.96098 53.75 0.28125 16.733-1.1411 29.457-3.506 38.594-7.125 7.1004-2.8124 11.178-6.0146 13.719-10.75 1.271-2.369 1.4477-3.1873 1.625-7.9375 0.2438-6.5293-0.67772-12.028-4.7812-28.719-8.3503-33.963-9.426-41.689-8.9688-63.938 0.26794-13.039 0.63178-18.874 2.75-42.219 1.2739-14.039 4.4054-35.912 8.2188-57.656 1.9091-10.886 3.4242-23.876 3.6875-31.594 0.24559-7.199 0.16964-8.2222-0.71875-10.719-0.95853-2.6937-0.97134-2.8133-0.125-5.0625 1.811-4.813 2.1962-8.9887 2.1562-23.781-0.0423-15.615-0.70088-24.648-3.125-42.219-2.5962-18.819-5.7469-32.559-8.8125-38.594-0.79763-1.5702-0.9972-2.9857-1.0625-7.5-0.1038-7.175-0.90031-9.7771-10.719-34.719-12.011-30.512-16.297-44.518-21.531-70.25-1.8984-9.3318-2.8152-15.169-3.25-20.719-0.69753-8.9037-0.83857-30.878-0.25-38.438 0.36608-4.7016 0.78842-4.2879 1.4062-5.3125 0.87115-2.5199 1.1802-2.2702 3.6875-5.7499 3.5981-2.4887 4.7182-8.4162 2.5938-13.656z" fill="url(#c)"/>
   <path d="m378.6-382.11c-19.365-1.2828-33.423-4.2522-41.373-8.7387-4.8957-2.763-8.6332-7.3899-9.4761-11.731-0.15242-0.7851-0.40899-2.0788-0.57013-2.875l-0.29296-1.4475 1.3385 1.6887c6.4267 8.1082 16.411 12.383 34.451 14.751 12.426 1.6312 64.306 1.7615 81.201 0.204 19.376-1.7862 34.979-7.4771 41.825-15.255 0.90583-1.0291 1.4641-1.4368 1.2407-0.9061s-0.42139 1.3449-0.43989 1.8093-0.21707 0.84436-0.44122 0.84436-0.28247 0.20245-0.12958 0.44988-0.23729 1.6152-0.86713 3.0393c-4.224 9.5511-24.522 16.016-57.17 18.209-8.5419 0.57359-40.416 0.5468-49.296-0.0415z" fill="#aef"/>
   <path d="m444.08-959.99c-3.9083 0.20498-37.658 0.0988-75.156 0.3005 0 0-4.3082 7.0587-3.5938 10.568 1.6083 4.8787 3.7064 6.7918 6.9688 10.25l1.4688 54.031c-0.22641 0.60171-0.39497 1.6432-0.65625 3.5312-2.7849 20.124-10.055 44.87-22 74.875-10.421 26.177-13.205 35.561-11.875 40 0.53475 1.7848 0.44809 2.1791-0.84375 4.75-6.2987 12.535-12.125 52.044-12.125 82.125 0 13.11 0.52988 18.796 2.125 22.469 0.92782 2.1362 0.98539 2.5425 0.40625 3.7188-2.6334 5.3486-1.6418 19.206 3.7188 51.437 4.9046 29.49 5.997 37.867 7.9688 61.594 3.6944 44.456 3.1284 51.964-6.9688 93.688-4.7105 19.465-5.5128 24.067-5.1875 29.844 0.4112 7.3017 2.3913 11.086 7.7188 14.875 3.5943 2.5559 7.2653 4.1625 13.938 6.0625 8.3801 2.3864 15.527 3.5719 27.719 4.5938 9.2662 0.77661 43.783 0.96098 53.75 0.28125 16.733-1.1411 29.457-3.506 38.594-7.125 7.1004-2.8124 11.178-6.0146 13.719-10.75 1.271-2.369 1.4477-3.1873 1.625-7.9375 0.2438-6.5293-0.67772-12.028-4.7812-28.719-8.3503-33.963-9.426-41.689-8.9688-63.938 0.26794-13.039 0.63178-18.874 2.75-42.219 1.2739-14.039 4.4054-35.912 8.2188-57.656 1.9091-10.886 3.4242-23.876 3.6875-31.594 0.24559-7.199 0.16964-8.2222-0.71875-10.719-0.95853-2.6937-0.97134-2.8133-0.125-5.0625 1.811-4.813 2.1962-8.9887 2.1562-23.781-0.0423-15.615-0.70088-24.648-3.125-42.219-2.5962-18.819-5.7469-32.559-8.8125-38.594-0.79763-1.5702-0.9972-2.9857-1.0625-7.5-0.1038-7.175-0.90031-9.7771-10.719-34.719-12.011-30.512-16.297-44.518-21.531-70.25-1.8984-9.3318-2.8152-15.169-3.25-20.719-0.69753-8.9037-0.83857-30.878-0.25-38.438 0.36608-4.7016 0.78842-4.2879 1.4062-5.3125 0.87115-2.5199 1.1802-2.2702 3.6875-5.7499 3.5981-2.4887 4.7182-8.4162 2.5938-13.656z" fill="url(#c)"/>
   <path d="m433.39-896.16c-0.16283-7.7913-0.0639-19.398 0.22085-25.913 0.2837-6.4902 0.39798-11.918 0.25395-12.062-0.46909-0.46923-21.241-1.115-24.884-0.77363l-3.5451 0.33219 0.40985 5.1559c0.42761 5.3792 0.0871 39.298-0.4428 44.108l-0.30466 2.7653 11.277 0.139c6.2023 0.0764 12.634 0.18907 14.293 0.25029l3.0164 0.11123-0.29494-14.113z" fill="#fff" opacity=".5"/>
   <g transform="translate(507.53 -148.86)" fill="#fff" opacity=".5">
    <path d="m-138.23-785.54c-0.46439-0.291-0.84434-0.762-0.84434-1.0467 0-0.33306 0.25635-0.30483 0.71904 0.0791 1.2613 1.0468 6.5704 1.1154 19.618 0.25337 13.8-0.91169 24.974-0.84283 41.745 0.25729 7.2697 0.47688 10.321 0.50353 12.061 0.10534 2.1213-0.48542 2.2432-0.46768 1.3653 0.19845-1.0533 0.79918-5.4437 0.74565-25.989-0.31691-7.1839-0.37152-13.058-0.37249-20.506-3e-3 -18.094 0.89682-27.248 1.0506-28.169 0.47334z"/>
    <path d="m-136.9-787.51c-1.7555-1.0291-4.1012-3.5096-4.1012-4.337 0-0.648 0.66456-0.88734 3.2568-1.1729 5.6035-0.61726 18.202-0.32593 31.241 0.7224 19.788 1.591 37.334 1.27 40.58-0.74249 1.4788-0.91678 3.0562-4.6256 3.411-8.0204l0.3086-2.9525 0.95795 2.3628c2.1244 5.24 0.9984 11.145-2.5997 13.634-1.8138 1.2546-2.3856 1.2563-21.429 0.064-9.1378-0.57207-26.554-0.5777-34.739-0.0107-14.172 0.98077-15.907 1.0273-16.887 0.45298z"/>
   </g>
   <path d="m397.68587-886.75391-1.09375.062c-.0118.2195-.0182.4242-.0625.5937-.1046.4003-.16578.076-.1875-.5937l-1.0625.031-.1875,1.6562h-3.15625c-4.57066,0-16.45291.9721-17.625,1.4375-.83766.3326-1.10183,1.0707-1.59375,4.625-2.7824,20.10279-10.00332,44.69409-21.90625,74.59374-10.37027,26.04953-13.16709,35.39548-11.84375,39.8125 .5322,1.77618.4731,2.16032-.8125,4.71875-6.26808,12.47413-12.0625,51.78352-12.0625,81.71875 0,13.04671.53763,18.68903 2.125,22.34375 .92331,2.12585.95132,2.57945.375,3.75-2.62064,5.32266-1.61583,19.11203 3.71875,51.1875 4.88075,29.34697 5.97533,37.66982 7.9375,61.28125 3.67648,44.23988 3.11058,51.69775-6.9375,93.21875-4.69094,19.38396-5.48333,23.94019-5.15625,29.6875 .42137,7.4043 2.47261,11.27086 8.15625,15.3125 3.55409,2.52736 7.2457,4.14346 13.875,6.03125 8.33943,2.37476 15.42947,3.5456 27.5625,4.5625 9.22122.77285 43.58112.92643 53.5.25 20.40221-1.39138 34.89876-4.58007 44.0625-9.71875 3.37986-1.89529 6.72511-5.24734 8.46875-8.5 1.26466-2.35906 1.44857-3.21097 1.625-7.9375 .24264-6.49763-.66636-11.95312-4.75-28.5625-8.30974-33.79856-9.39242-41.48484-8.9375-63.625 .26669-12.97562.64211-18.769 2.75-42 1.26776-13.97101 4.3614-35.73663 8.15625-57.375 1.89981-10.83314 3.42548-23.78877 3.6875-31.46875 .24441-7.16409.16534-8.17178-.71875-10.65625-.95389-2.68063-.96719-2.82422-.125-5.0625 1.80227-4.78961 2.19605-8.93551 2.15625-23.65625-.0421-15.53886-.7126-24.5143-3.125-42-2.58362-18.72722-5.69926-32.40073-8.75-38.40625-.7937-1.56258-.9975-2.94508-1.0625-7.4375-.10334-7.14018-.91675-9.77322-10.6875-34.59375-8.2459-20.9469-13.49087-36.31125-16.6875-48.78125-2.81935-10.99799-5.71881-25.33799-7.09375-34.59379l-1.28125-.094 .125,1.4375-1.625-.2812c-4.48698-.771-13.06238-1.2929-25.8125-1.5626l-14.09375-.2812 .15625-1.125zm6.96875,2.3438c6.80372-.075 13.38359.01 18.1875.3124 8.60768.5421 16.02948,1.3108 16.375,1.6563 .0854.085 1.2422,5.4657 2.5625,11.9687 4.96689,24.46339 9.46748,38.98964 21.28125,69.00004 8.6826,22.0563 10.41391,27.40779 10.78125,33.1875l.25,4.125-3.71875.3125c-2.05469.17367-4.72691.3125-5.90625.3125-2.01359,0-2.09888-.048-1.75-1.0625 .64721-1.88198.66433-11.01054.0312-12.21875-.47679-.91007-.52922-.2291-.375,3.9375 .21693,5.8597-.44245,8.91526-2.21875,10.3125-1.70548,1.34157-1.97424,1.19829-1.5-.84375 1.7449-7.51397-2.53444-32.4117-9.4375-55.09375-4.35777-14.3186-5.04645-16.7509-6.875-23.5312-2.1753-8.0662-4.47433-19.23049-5.40625-26.28129-.41926-3.1724-.83184-4.6875-1.25-4.6875-.39982,0-.59375.6617-.59375,1.9062 0,1.0563.14569,1.9356.34375,1.9376s.3948,1.3515.4375,3c.0724,2.7923 1.65813,12.35379 3.25,19.56239 .37908,1.7165 1.04204,4.7382 1.46875,6.7188s1.09711,4.7976 1.46875,6.25c.69328,2.70957 6.90585,30.3455 9.34375,41.5625 2.29986,10.58172 2.98723,16.00865 2.8125,22.25-.0882,3.14927-.34495,5.90819-.5625,6.125-.5263.52449-16.11995,1.34662-17.75.9375-2.04619-.51356-2.77605-2.45446-2.25-6.09375 1.73665-12.01392-1.48519-38.93493-7.75-64.75005-2.9881-12.3128-5.13087-23.0965-6.0625-30.49999-.74025-5.8822-.8794-6.4743-1.15625-4.5937-.17494,1.1884-.23055-.052-.0937-2.75 .20132-3.972.11765-5.0386-.46875-5.625-.64552-.6455-.74441-.6345-1,.031-.15766.4109-.26005,2.8217-.21875,5.375 .0652,4.0133.13161,4.3254.4375,2.25 .20493-1.3906.26036.038.125,3.375-.26595,6.55879.39482,17.82209 1.78125,29.74999 .93101,8.00922 1.35484,10.9921 3.3125,23.5312 2.74658,17.59216 3.55105,26.08139 3.59375,38.25 .0228,6.51302-.13162,12.03688-.34375,12.25s-7.22325.367-15.59375.375c-16.87749.016-17.95416-.12355-19.125-2.8125-.49874-1.14539-.6466-1.27528-.6875-.53125-.0336.61257-.31541.28765-.78125-.9375-1.52869-4.02012.42383-29.05929 4.15625-53.34375 2.91118-18.9412 3.42751-24.7367 3.625-41.0312 .0995-8.21649.004-13.99569-.21875-13.18759l-.40625,1.4376-.0625-1.4063c-.11437-2.8197-.53915-.7672-1.25,5.9687-1.29333,12.25519-2.6931,19.59049-7.6875,40.09379-3.4645,14.2228-3.90275,16.2149-5.28125,25.4375-2.53623,16.96826-2.88198,32.87557-.84375,38.0625l1,2.53125-3.1875-.0937c-6.76104-.14744-16.71671-.8635-18.40625-1.34375s-1.78305-.63799-2.09375-3.125c-1.01546-8.12747 3.49692-32.8436 9.6875-53 3.08154-10.0336 6.77873-24.02595 7.0625-26.68755 .0607-.5688.27166-1.306.46875-1.625s.15469-.5624-.125-.5624-.56055.2046-.59375.4687c-.11595.9277-.17192,1.2116-.46875,1.6875-.16468.2641-.5881,1.7905-.90625,3.375-.6238,3.1067-4.82902,18.2696-7.125,25.6875-5.7402,18.54547-10.05354,43.81116-8.84375,51.71875 .44917,2.9358.23852,3.61237-.71875,2.40625-3.57906-4.50933-1.18966-25.87321 5.75-51.5 .78663-2.9049 3.32787-11.1198 5.65625-18.25 3.79699-11.6275 9.125-31.08704 9.125-33.34374 0-.4778.29888-1.1097.65625-1.4063 .45551-.3781.57271-1.2672.40625-3-.18808-1.957-.0925-2.4021.40625-2.0937 .46047.2844.54778.1756.3125-.4375-.17688-.4611-.34375-1.3615-.34375-2 0-.712-.27711-1.1563-.71875-1.1563-.43357,0-.71875.422-.71875,1.0938 0,1.6324-3.58976,15.92664-5.8125,23.15624-2.38821,7.7679-5.18086,15.8518-9.1875,26.40625-5.30087,13.9636-7.75029,22.43175-9.78125,34.125-1.57432,9.06409-2.06434,21.66921-1,25.59375l.71875,2.5625-2.25-.28125c-1.22346-.1525-4.09136-.4156-6.40625-.59375-3.98825-.30692-4.24167-.37762-4.53125-1.53125-.9552-3.80599 2.44286-14.83597 12.0625-39 11.83342-29.72515 18.9471-53.87685 21.875-74.28129 .56062-3.9067.60309-3.9564 2.09375-4.1875 5.60734-.8694 17.59796-1.4694 28.9375-1.5937zm-25.5,5.6562c-.39612,0-.75.3225-.75.7188s.35388.7187.75.7187 .71875-.3227.71875-.7187-.32262-.7188-.71875-.7188zm17.75,0c-.47909,0-.69325.4342-.65625,1.3125 .0433,1.0256.119,1.0896.3125.3437 .24911-.9602.24334-.9603.625,0 .33234.836.37695.8057.40625-.3437 .0222-.8686-.21373-1.3125-.6875-1.3125zm-18.34375,4c.0505-.051.11086.027.1875.2188 .13869.3466.12825.7466-.0312.9062s-.2707-.1189-.25-.625c.0115-.2797.0433-.4495.0937-.5zm-.5,2.9062c.0505-.05.14213,0 .21875.1876 .1387.3466.0971.7779-.0625.9374s-.2707-.1501-.25-.6562c.0115-.2797.0433-.4184.0937-.4688zm57.6875.1876c.0373-.02.1106.043.15625.2187 .12184.4672.10027,1.1124-.0312,1.4375s-.22875-.052-.21875-.8438c.006-.4952.0316-.7789.0937-.8124zm.5,3.8437c.0373-.02.0793.044.125.2187 .12173.4672.10026,1.1124-.0312,1.4376s-.22875-.052-.21875-.8438c.006-.4951.0629-.779.125-.8125zm-57.375,2.3437c-.18716-.047-.27425.2119-.3125.7188-.0582.7729.0532.8842.46875.4688 .36337-.3634.37498-.7188.0625-1.0313-.0781-.078-.15636-.1406-.21875-.1563zm57.84375,1c.0373-.02.0793.075.125.25 .12182.4672.13156,1.1124 0,1.4376s-.22875-.052-.21875-.8438c.006-.4952.0316-.8102.0937-.8438zm-18.78125,2.2188c.0505-.051.11088,0 .1875.1875 .1387.3466.12825.778-.0312.9375s-.2707-.1189-.25-.625c.0115-.2797.0433-.4495.0937-.5zm-39.34375.4688c-.0433,0-.11946.02-.1875.062-.26105.1613-.46875.5015-.46875.75 0,.69059.33705.55059.65625-.2812 .12298-.3204.12977-.5281 0-.5312zm58.53125.5c.0505-.05.11087,0 .1875.1874 .1387.34669.12826.77799-.0312.93759s-.2707-.1501-.25-.65629c.0115-.2797.0433-.4184.0937-.4687zm-17.65625,1.93739c.029.011.0605.0741.0937.1563 .13319.3301.13319.8574 0,1.1875s-.25.0659-.25-.5938c0-.4952.0694-.7824.15625-.75zm-41.375.4376c-.0433,0-.0882.0205-.15625.0624-.26105.1613-.46875.5015-.46875.75 0,.6906.33705.5506.65625-.2812 .12298-.3204.0984-.5281-.0312-.5312zm59.53125.5c.0505-.05.11087,0 .1875.1874 .1387.3467.12826.778-.0312.9376s-.2707-.1189-.25-.625c.0115-.2798.0433-.4496.0937-.5zm-41.21875.0937c.0816-.1344.0949,2.015 0,5.25-.26691,9.101-1.30027,18.643-3.59375,33.5625-2.90123,18.8735-4.40265,34.31478-4.46875,45.65625-.0353,6.06096.15003,10.26982.5,11.40625 .30499.99031.51335,1.78525.46875,1.78125-.46655-.0422-1.28304-.98203-1.875-2.15625-1.17449-2.32965-1.8125-7.29853-1.8125-14.1875 .003-11.60831 1.41608-23.4305 5.78125-48.5 1.58453-9.1 3.29715-19.7575 3.8125-23.7188s1.03515-7.9819 1.15625-8.9062c.0151-.1155.0196-.1683.0312-.1875zm-18.6875,1.25c-.22053.042-.76416,1.4585-1.1875,3.5-.32856,1.5845-.7058,3.3746-.84375,3.9687-.14433.6214-.0249,1.0938.28125,1.0938 .2927,0 .53125-.6624.53125-1.4375s.17915-1.8886.40625-2.5 .56044-1.975.75-3.0313c.20491-1.1418.19482-1.6186.0625-1.5937zm42.0625,1.25c.16137.1738.84192,2.8965 1.625,6.5937 .89499,4.2252 2.6073,11.7638 3.8125,16.7813 6.78142,28.2321 9.71433,57.60722 6.75,67.3125-.41542,1.36018-1.20221,2.97332-1.75,3.59375-.86255.97686-.93652.98783-.625.15625 .64931-1.73328.7907-18.91536.21875-26.09375-.99573-12.49665-2.72449-24.73455-6-42.21875-1.91838-10.2401-4.0932-24.1683-4.0625-26.0313 .001-.0829.008-.1183.0312-.0937zm-25.28125,2.25c.029.011.0605.043.0937.125 .13319.3301.13319.8574 0,1.1875s-.25.066-.25-.5938c0-.4951.0694-.751.15625-.7187zm24.46875,2.7187c.0992.1358.40655,1.8171 1,5.4376 .64931,3.9611 1.93147,11.4441 2.875,16.5937 3.40866,18.6037 5.04599,29.9791 6.03125,42.34375 .65848,8.26345.3394,22.37939-.5625,24.90625l-.625,1.71875-7.90625.3125c-8.71394.34366-16.89579.30221-23.03125-.125-3.44477-.23985-4.1493-.43131-4.9375-1.40625-1.41015-1.74419-1.07359-2.0451.90625-.875 1.76219,1.04206 2.11714,1.04805 17.5,1.03125 12.02777-.0131 15.87916-.15952 16.34375-.625 .45931-.46022.5908-3.56543.5625-12.71875-.0388-12.45664-.80991-20.66907-3.59375-38.5-1.96871-12.6098-2.36435-15.53278-3.28125-23.5312-.51461-4.4895-1.07547-9.9741-1.21875-12.2188-.10186-1.5956-.13969-2.4493-.0625-2.3438zm-24.75.1563c.30382-.088-1.30106,10.7868-3.34375,21.875-3.20916,17.4201-4.35913,25.1498-5.46875,36.6875-.92868,9.65544-.99028,25.87782-.0937,29.6875h.0312l.625,2.75-3.875-.0625c-2.144-.0405-7.69107-.2897-12.3125-.53125-7.39377-.38647-8.52999-.53558-9.375-1.375-.95948-.95313-.94669-.97131.3125-.5 1.44284.54005 22.35353,1.8027 22.78125,1.375 .15498-.15498-.18673-1.52581-.78125-3.0625-.90695-2.34414-1.12475-4.02675-1.3125-10.375-.24881-8.41197.34377-16.46997 2.0625-27.96875 1.39737-9.3486 1.70452-10.7767 5.9375-28.3125 1.84861-7.6583 3.67242-15.4327 4.0625-17.2812 .41655-1.9742.66493-2.8816.75-2.9063zm-23.6875,8.5313c.10131.1011-1.22198,4.4-2.9375,9.5312-5.7767,17.2782-9.47838,32.2783-11.75,47.4375-1.07615,7.18175-1.51231,18.95035-.8125,22.25 .44246,2.08616 1.19581,1.99001-7.1875,1.15625-2.95277-.29367-5.53379-.71474-5.75-.9375s.56164-.30423 1.75-.15625c4.95142.6166 9.5167.84629 9.75.46875 .13731-.22216-.0328-1.59144-.40625-3.03125-1.74739-6.73632-.18958-22.62112 3.6875-37.46875 1.98142-7.5879 3.3129-11.60555 7.625-23.03125 2.04318-5.4137 4.19123-11.3256 4.78125-13.125s1.14873-3.195 1.25-3.0937zm71.875,5.3437c.0505-.051.11086.027.1875.2187 .1387.3466.12825.7468-.0312.9063s-.2707-.1189-.25-.625c.0115-.2797.0433-.4495.0937-.5zm1.46875,5.28125c.35353-.3536 5.52454,17.42965 8.25,28.34375 5.47814,21.93751 7.36187,37.91151 4.875,41.3125-.46171.63142-1.8645.90872-6.5625,1.25-8.68778.63111-15.9935.56902-16.6875-.125-.31689-.31689-.59375-1.0922-.59375-1.71875v-1.125l1.3125,1.03125c1.28204,1.01925 1.55138,1.04574 9.4375.71875 4.46705-.18523 8.66004-.51381 9.28125-.75 1.65747-.63016 2.0625-2.292 2.0625-8.28125-.003-7.65662-.73781-11.82635-6.6875-38.28125-3.47578-15.4547-4.8762-22.1864-4.6875-22.375zm-57.7812,68.25 .75,1.3125c1.34207,2.4028 3.9433,2.93721 3.34375.6875-.22394-.84041-.14305-.79476.4375.21875 1.40596,2.4545 2.50224,2.57685 20.21875,2.53125 17.80999-.0459 18.14291-.10834 20.34375-2.90625 .61752-.78501 1-.99437 1-.5625 0,.38571.51378,1.1758 1.125,1.75 1.00645.94553 1.68599,1.0514 7.09375,1.125l5.96875.0937-4.09375.34375c-2.24469.20252-15.65292.49745-29.78125.625-24.16983.2182-35.87064-.0676-46.5625-1.09375-3.54546-.34027-2.75071-.36843 3.59375-.125 4.48938.17225 10.20999.3125 12.71875.3125 4.97562,0 4.84546.12562 4.15625-2.96875l-.3125-1.34375zm83.21875.53125c4.2085-.0545 3.25802.51064-2.5.90625-2.52729.17363-5.03434.42262-5.5625.5625-.85293.22588-.88971.16803-.25-.46875 .52057-.5182 2.24022-.76406 6.1875-.9375 .81313-.0357 1.52379-.0547 2.125-.0625zm-112.75.34375c.12994.0281.34387.2173.65625.5 .48293.43705 1.18718.77225 1.5625.78125s1.08115.33104 1.59375.71875c.85807.64896.73217.71875-1.5625.71875-2.47658,0-2.46875.005-2.46875-1.5 0-.89823.002-1.26567.21875-1.21875zm-16.34375.4375c.0517-.0614.72519.12047 1.5.375s2.69676.57997 4.28125.75c1.9269.20675 2.58694.43165 1.96875.65625-.89288.32443 8.12651,1.29413 23.71875,2.53125 10.44565.82817 59.55094.80003 70.59375-.0312 13.2365-.99649 22.16379-1.95247 22.75-2.4375 .29649-.24532 2.26237-.64505 4.375-.90625 3.53772-.43742 3.90738-.42141 4.65625.4375 3.74818,4.29886 9.14976,31.29582 11.75,58.75 1.12552,11.88286 1.16406,36.37661.0625,41.5625-.83136,3.91381-2.1839,7.56762-2.25,6.0625-.0328-.74587-.33591-.85038-1.84375-.65625-.99034.1275-5.15673.6642-9.25,1.21875-9.87997,1.33853-20.2761,2.30415-34.5625,3.1875-14.47244.89487-45.73303.87798-59.3125-.0312-12.19592-.81665-32.34075-2.83802-40.5625-4.0625-3.48798-.51947-6.90957-.9375-7.625-.9375-1.03486,0-1.40729-.32096-1.84375-1.5625-1.10309-3.13805-1.59375-9.33342-1.59375-21 0-24.67531 3.71801-54.81124 8.96875-72.96875 1.36444-4.7185 3.3615-9.91826 4.21875-10.9375zm132.90625.84375c-.20752,0-.375.42873-.375.9375s.16748.81574.375.6875 .375-.55696.375-.9375-.16754-.6875-.375-.6875zm-120.65625.53125c.1668.007.29523.0452.375.125 .15956.15959-.11888.2709-.625.25-.55938-.0231-.66426-.12797-.28125-.28125 .17331-.0693.36445-.10067.53125-.0937zm105.65625.0312c1.0892-.0209 1.12137.0318.25.40625-.52816.22696-1.73197.3877-2.65625.375l-1.6875-.0312 1.46875-.34375c.79224-.20159 1.96479-.39355 2.625-.40625zm-8.65625.9375c.56567,0 1.13337.009 1.5625.0625 .85827.10645.15402.1875-1.5625.1875s-2.38951-.081-1.53125-.1875c.42913-.0533.96558-.0625 1.53125-.0625zm18.5,1.875-3.125.21875c-1.71652.11926-4.8561.43923-6.96875.6875-10.54595,1.23931-25.06255,1.57157-57.375,1.34375-26.25036-.18507-35.04914-.4031-41.28125-1.03125-11.05208-1.11396-13.18729-1.26621-12.6875-.8125 .75152.6823 10.98172,1.75053 25.40625,2.625 6.40367.38821 65.80843.26186 72.75-.15625 10.73758-.64677 17.50739-1.37256 20.65625-2.1875zm-137.46875,103.4375c.10496-.10498 3.42988.22201 7.375.75 10.82497,1.4487 29.35356,3.24766 41.96875,4.0625 21.699,1.4016 53.66069.78993 77.5625-1.46875 9.19395-.86882 22.66876-2.50357 23.9375-2.90625 .6306-.20013.83722-.0743.6875.375-.57658,1.72966-23.24222,4.37537-48.625,5.6875-8.11362.41941-39.82999.52512-46.09375.15625l-11.53125-.65625c-17.52133-1.01043-42.35133-3.88304-44.34375-5.125-.61709-.38467-1.04246-.77003-.9375-.875zm152.9375,1.46875c.22143.0468.48894.50941.9375,1.46875 .76583,1.63793.88265,3.06986.84375,10.53125-.0451,8.71125-1.20884,19.24574-3.5625,32.65625-3.78557,21.56934-6.8883,43.40125-8.15625,57.375-2.10793,23.231-2.48333,29.02438-2.75,42-.45499,22.14016.62777,29.82644 8.9375,63.625 4.08369,16.60938 4.99264,22.06487 4.75,28.5625-.17663,4.73094-.35917,5.55771-1.625,7.90625-.77775,1.44289-2.22182,3.43256-3.21875,4.40625-2.50747,2.44903-13.15406,7.57165-14.28125,6.875-.2177-.13454-.54177-.005-.71875.28125s-.61642.41642-.96875.28125-.69815-.0832-.78125.125-1.00618.5219-2.0625.6875c-1.30499.2046-1.70811.15575-1.21875-.15625 .39612-.25256 1.10035-.46375 1.5625-.46875 .46214-.004.84375-.1862.84375-.40625 0-.7134-1.60017-.49118-5.03125.71875-6.23802,2.19979-16.98447,4.05427-28.5625,4.9375-7.42763.56646-37.88295.57512-44.65625,0-12.55118-1.06569-19.87071-2.43816-27.5-5.09375-2.62886-.91507-4.89432-1.54324-5.03125-1.40625s-.72179.0168-1.28125-.28125c-.9165-.48822-.93745-.46974-.34375.25 .36247.43934.94874.78125 1.3125.78125s.65625.2376.65625.5-.46832.36077-1.0625.25-1.09375-.2102-1.09375-.25-.35176-.13505-.78125-.21875c-1.81976-.35455-3.09024-.93464-3.6875-1.65625-.38079-.46005-.4929-.50092-.28125-.0937 .27368.52643.1471.58278-.5625.28125-.50546-.21473-1.8464-.7042-2.96875-1.09375s-2.03125-.89223-2.03125-1.125-.32263-.4375-.71875-.4375-.71875-.20467-.71875-.46875-.309-.46875-.6875-.46875-1.76443-1.04817-3.0625-2.3125c-3.0731-2.99333-4.41725-6.49638-4.75-12.34375-.32707-5.74731.46531-10.30353 5.15625-29.6875 10.04809-41.521 10.58274-48.97887 6.90625-93.21875-1.9709-23.71671-2.91454-30.98978-8.125-62.65625-1.45566-8.8467-3.0903-19.76061-3.65625-24.25-1.22836-9.74354-1.46188-20.59546-.5-23.90625 .36437-1.25438.7272-2.28125.8125-2.28125s.67469.21143 1.28125.46875c2.04923.86926 27.79341,3.71853 44.78125,4.9375 5.41433.38851 18.01306.59375 33.71875.59375 13.78863,0 24.70253.14042 24.25.3125s-10.72806.3428-22.84375.375c-21.12051.0562-22.09728.12143-23.375,1.03125-1.59841,1.13816-1.90625,1.16497-1.90625.21875 0-.92992-.95988-.91608-2.3125.0312-.97258.68126-1.0777.66203-1.34375-.0312-.54497-1.42008-2.17178-1.74861-11.15625-2.40625-4.92952-.36083-11.88119-.92268-15.46875-1.25-6.41209-.58504-6.55126-.59411-8,.4375-1.83257,1.30494-2.02447,1.31991-1.6875.0312 .23715-.90693.11773-.99143-.96875-.71875-.71547.17958-1.30815.0758-1.40625-.21875-.0932-.27963-1.6454-.60382-3.4375-.71875-2.09137-.13411-3.12716-.0256-2.9375.28125 .16253.26297.96984.46475 1.8125.46875 2.54978.0109 3.79758.51489 3.1875,1.25-.36193.43611-1.29288.5604-3,.40625-2.57339-.23237-2.11384.34336.78125.96875 1.13924.2461 1.31728.4952 1.0625,1.375-2.33821,8.07456-1.04442,28.87555 3.375,55.0625 .89183,5.28442 4.15174,26.84771 5.9375,39.125 .76824,5.28162 1.74232,13.40983 2.15625,18.03125s.85308,9.39376.96875,10.625c.27781,2.95685-.5275,26.26464-1.1875,34.21875-.65195,7.85728-3.02435,25.70602-4.34375,32.6875-.54895,2.9049-1.44107,7.53965-1.96875,10.3125s-1.8242,8.70236-2.875,13.15625-1.77053,8.40198-1.625,8.78125 .0766.58145-.15625.4375c-.57892-.35776-1.13349,1.97921-.75,3.1875 .19969.62901.13832.85767-.1875.65625-.61901-.38253-1.30192,2.75133-.78125,3.59375 .24545.39717.17329.48033-.25.21875-.46959-.29021-.58712-.071-.40625.875 .13214.69145.0697,1.13963-.15625,1s-.40625.17202-.40625.6875c0,1.29391 1.31466,1.70592 1.6875.53125 .16137-.51232.16463-1.17101 0-1.4375s-.0579-.46875.25-.46875 .43893-.33914.28125-.75-.11189-.62715.0937-.5c1.02829.63552 11.70846-34.76777 15.15625-50.21875 4.75999-21.33159 6.19765-33.01623 6.21875-50.8125 .0205-17.19382-1.36612-31.32618-5.6875-58.34375-2.07928-12.99965-5.01897-32.98294-5.78125-39.34375-1.50613-12.56763-1.42843-28.38219.15625-30.78125 .23263-.3522 3.21396-.27012 9.71875.3125 5.14957.46124 11.39748,1.02942 13.90625,1.25l4.5625.40625-.0312,3.34375c-.0162,1.84856-.32903,6.15032-.6875,9.5625-1.09205,10.39536-.23962,25.13636 4.28125,74 3.09632,33.46674 3.35162,42.79894 1.9375,75.84375-.80785,18.87698-2.66041,39.64708-5.3125,59.6875-.28853,2.18055-.40657,4.27951-.25,4.6875 .1804.47014.0889.61569-.25.40625-.36796-.22749-.4528.23603-.3125,1.4375 .11211.96035.0519,1.71875-.125,1.71875s-.47101,1.34949-.65625,3-.64958,4.52183-1.03125,6.34375-.5742,3.39455-.4375,3.53125 .26245-.15013.28125-.65625c.0328-.89538.0286-.88237.375,0 .23762.60527 1.5171-3.7105 3.8125-12.96875 6.99737-28.22304 10.68741-47.738 13.625-71.75 .97825-7.99661 1.0884-10.91058 1.0625-29.28125-.0306-21.79802-.0475-21.95857-4-66.25-2.06329-23.12125-2.4425-29.53187-2.4375-41.21875 .003-10.34636.86119-19.36122 1.9375-20.4375 .31709-.31711 7.31116-.477 19.9375-.4375 16.92133.053 19.60839.14641 20.625.8125 2.13186,1.39684 2.3909,3.65076 2.375,19.5-.0159,15.89239-.0653,16.64714-4.0625,55.46875-3.83243,37.22145-3.9945,39.86581-3.6875,62.65625 .33874,25.14804 1.6003,43.10523 4.6875,67.46875 2.16138,17.05669 4.14748,30.05578 4.28125,27.84375 .0902-1.49186.26765-1.01397.75,2.15625 .34153,2.24469.687,5.06164.75,6.25l.0937,2.15625 .34375-2.65625 .3125-2.625 .0625,2.59375c.0431,1.43041.20514,2.48232.34375,2.34375 .23301-.23307-.84696-29.50644-1.4375-38.8125-.52518-8.27572-1.22042-25.16728-1.6875-41.28125-.76824-26.50416.14294-42.6021 4.5625-80.40625 4.19956-35.9226 5.5-51.08166 5.5-63.40625 0-9.50405-.78158-15.73107-2.40625-19.09375-.52255-1.08159-.9375-1.98895-.9375-2.03125s2.31738-.23481 5.15625-.40625 8.98206-.73599 13.65625-1.28125c6.41611-.74846 8.74934-.87048 9.5-.46875 .54684.2926 1.17295.43737 1.375.3125 .57598-.35598.6925,1.33478.6875,8.5625-.006,8.71393-1.21989,18.43858-5.90625,47.0625-8.49457,51.88395-8.86005,55.0711-8.84375,75.875 .0214,27.02603 2.59712,48.86115 9.125,77.3125 1.51477,6.60202 2.84463,12.47145 2.96875,13.0625s.44306.96356.6875.8125c.25985-.1606.28634.26407.0937,1.03125-.24742.98602-.17067,1.21679.28125.9375 .45844-.28334.51124-.002.25,1.1875s-.17719,1.47082.28125,1.1875c.45192-.27931.49742-.0483.25.9375-.19321.76982-.13659,1.19291.125,1.03125 .24525-.15159.72769,1.19427 1.0625,2.96875 .45448,2.40875.69152,2.99077.96875,2.28125 .35676-.91324.37435-.91544.40625-.0312 .0186.50612.15465.81412.28125.6875s-.41497-3.4616-1.1875-7.40625c-2.01602-10.29459-4.14411-23.92166-5.75-36.8125-.76695-6.1566-1.51797-12.27335-1.6875-13.59375s-.3125-3.40187-.3125-4.65625c-.001-1.27297-.21829-2.28125-.5-2.28125-.68334,0-.19459,6.58829 1.53125,20.40625 1.22563,9.81313 1.6678,13.53435 1.65625,14.0625-.0657-.15745-.25211-.85312-.46875-1.875-1.85605-8.75509-4.36093-28.25723-5.59375-43.40625-.92313-11.34328-.79973-36.43801.21875-45.125 1.4026-11.96299 3.14305-24.35173 5.125-36.25 6.38915-38.35647 8.38914-52.05671 9.09375-62.90625 .48799-7.51371-.0438-15.10075-1.1875-17.3125-.85246-1.64847-.45459-2.3593 1.34375-2.375 1.22457-.0107 1.01957-.87461-.25-1.0625-.59419-.0879.81195-.45824 3.125-.8125 2.84642-.43593 4.3659-.88745 4.65625-1.40625 .13015-.23256.24214-.34056.375-.3125zm-10.8125,2.625c.83624,0 1.42248.0926 1.3125.1875-.57358.49458-2.84375.74312-2.84375.3125 0-.26912.69502-.5 1.53125-.5zm-4.375.5625c.39463-.0429.81871-.005 1.0625.0937 .32511.13153-.0828.22875-.875.21875s-1.06088-.12826-.59375-.25c.11679-.0304.27471-.0482.40625-.0625zm-137.625.0937c-.19256.0659-.4815.4124-.71875.875-.54981,1.0721-.54836,1.07359.28125.28125 .47722-.45586.75469-.96406.59375-1.125-.0402-.0402-.0921-.0533-.15625-.0312zm139.84375.875c.62047-.1522 1.71171.78445 2.59375,2.25 .91522,1.52061 1.08499,2.64432 1.28125,8.375 .12479,3.64324-.0223,9.36384-.34375,12.71875-.78758,8.21786-1.83448,15.08011-7.21875,48.125-5.00347,30.7078-6.35425,40.79863-7.1875,52.8125-1.29576,18.68218.0964,45.82588 3.59375,69.25 .66884,4.47977 1.13626,8.23878 1.03125,8.34375-.48212.48216-4.33002-24.10351-5.34375-34.15625-1.94225-19.26028-2.14911-42.11985-.53125-55.90625 1.05095-8.95564 3.5345-25.26423 7.75-50.90625 6.74233-41.01239 7.92761-56.04472 4.6875-59.625-.43924-.48539-.6991-.98837-.5625-1.125 .0669-.0669.16136-.13451.25-.15625zm-2.1875.21875 1.125,1.40625c1.2938,1.61899 1.23033,1.96302-.21875,1.1875-.79138-.42354-2.97254-.3276-9.53125.4375-4.67419.54527-10.81633,1.14099-13.65625,1.3125-3.02622.18278-5.34814.54141-5.625.875-.31972.38528-.17038,1.20842.46875,2.53125 1.61886,3.35067 2.40625,9.56914 2.40625,19.0625 0,12.32458-1.33169,27.48365-5.53125,63.40625-4.43252,37.91501-5.33972,53.88719-4.5625,80.65625 .46262,15.93449.70423,21.24486 1.96875,46.8125 .29399,5.94181.42673,11.54447.3125,12.46875-.15321,1.23955-.22455,1.35496-.28125.4375-.0423-.68416-.51207-5.84621-1.03125-11.5-2.44414-26.61578-3.5409-48.91624-3.5625-71.5-.0194-20.25258.0691-22.04021 3.78125-59.78125 4.03704-41.04529 5.06547-58.36387 4.125-69.65625-.66078-7.93437-1.42307-11.16517-3.15625-13.4375-.90465-1.1861-1.07428-1.73359-.625-1.875 .34541-.10871 3.11933-.31105 6.15625-.46875s10.44119-.77469 16.46875-1.34375zm-15.28125.25c.30666-.05.68993-.006.9375.0937 .3301.13319.0352.25-.625.25s-.92384-.11681-.59375-.25c.0825-.0333.17903-.0772.28125-.0937zm-108.25.34375-.65625,2.78125c-2.36881,10.37298-1.00726,25.13079 6.96875,76.03125 2.23734,14.27822 4.7561,34.88311 5.3125,43.34375 .51054,7.76274.0217,24.53336-1.03125,35.0625-.82479,8.24763-2.8187,21.30105-4.5625,29.875-1.57268,7.73232-4.14749,18.4745-4.46875,18.78125-.0281-.22831.70264-4.41107 1.625-9.28125 1.94513-10.27015 4.25179-26.91966 5-35.9375 .94604-11.39777 1.47065-31.77313.96875-38.15625-1.01633-12.92488-5.00924-42.43811-8.625-63.84375-2.84928-16.86808-4.78625-34.3874-4.78125-43.09375 .004-9.26579.8707-13.35787 3.1875-14.875zm4.75.0937c1.01846-.0541 2.66256.0847 5.84375.375 3.58756.32732 10.60219.91591 15.59375,1.28125 9.95786.72881 10.84941,1.01152 9.84375,3.21875-.53628,1.17696-.58113,1.20011-1.40625.375-.65147-.65148-2.00619-.93454-5.59375-1.1875-2.60144-.18342-8.94418-.74207-14.09375-1.21875s-9.51665-.68856-9.71875-.5-.70568,1.94289-1.125,3.90625c-.60897,2.85121-.71093,5.40102-.5,12.6875 .33831,11.68847 1.80155,23.58525 6.78125,54.71875 1.95766,12.23916 4.00114,27.45931 4.875,36.5 1.2335,12.76188 1.13733,32.44975-.21875,43.28125-2.0981,16.75795-5.44608,32.62819-10.65625,50.5625-4.88487,16.8145-6.34633,20.40329-2.625,6.46875 4.43444-16.60473 7.85149-34.60246 9.5625-50.375 1.0882-10.03118 1.84778-27.91388 1.5-35.53125-.49479-10.83701-3.13538-31.68074-7.4375-59.0625-4.70084-29.91934-5.99581-42.02483-5.65625-52.5625 .26855-8.33409.81559-10.63633 2.90625-12.125 .69715-.49641 1.10654-.75836 2.125-.8125zm98.0625.0312c.30459,0 .61268.0335.84375.0937 .46213.12079.0805.21875-.84375.21875s-1.3059-.098-.84375-.21875c.23107-.0604.53916-.0937.84375-.0937zm-7.6875.46875c.39162,0 .79666.0365 1.09375.0937 .59417.11449.0946.21875-1.09375.21875s-1.65668-.1043-1.0625-.21875c.2971-.0572.67088-.0937 1.0625-.0937zm-50.90625,2.34375h19.4375c12.77661,0 19.80617.19399 20.53125.53125 .60661.28213 1.50545,1.04996 2,1.71875l.90625,1.21875-1.09375-.59375c-1.53124-.8195-40.06245-.93756-40.875-.125-1.28314,1.28315-1.94272,6.75623-2.1875,18.03125-.27219,12.53904.12726,20.58067 2.28125,44.53125 3.90479,43.41809 4.01635,44.97325 4.03125,66.5 .0125,18.05169-.1226,21.07992-1.09375,29.03125-2.21391,18.12598-5.77708,38.38051-9.96875,56.65625-1.18107,5.14958-2.20677,9.57967-2.3125,9.84375-.50181,1.25332-.18162-1.12835 1.125-7.9375 6.46768-33.70459 9.64393-65.61344 9-90.71875-.27478-10.71341-1.00288-20.62235-3.21875-43.46875-5.35955-55.25816-5.88098-68.93802-3-79.75 .69535-2.6096 1.08599-3.23154 2.625-4.25zm42.8125.0625c.19399-.002.48885.0436.84375.15625 3.89735,1.23696 5.64191,12.82986 4.8125,31.71875-.55216,12.57424-1.15218,19.62081-4.28125,49.46875-1.30115,12.41181-2.62967,25.3482-2.96875,28.78125-.82601,8.36157-.82835,50.21858 0,64.59375 .89561,15.54269 1.91065,29.76082 2.78125,39.1875 1.19268,12.91365.57189,12.62973-1.15625-.53125-3.73834-28.46944-5.37-52.47717-5.375-78.8125-.003-16.0115.48139-22.95388 3.84375-55.625 3.94076-38.291 4.0404-39.63581 4.0625-55 .0217-14.92426-.36165-18.72169-2.21875-22-.77251-1.36364-.92573-1.93226-.34375-1.9375zm-47.21875.4375-.4375,1.78125c-2.08626,8.47111-2.0827,8.27648-2.0625,21.5 .0226,14.70855.4441,20.39748 4.71875,64.8125 1.38518,14.3924 2.518,30.81591 2.96875,43.21875 .54008,14.86179-1.40412,39.8902-4.8125,61.9375-1.97484,12.77445-3.74341,22.09243-3.40625,18 .11965-1.45245.55093-5.88253.9375-9.84375 1.9952-20.44466 2.50252-28.71134 3.1875-51.59375 .65213-21.78656.24491-31.44734-2.46875-60.75-4.93432-53.28179-5.63976-68.02984-3.78125-79.4375 .69174-4.24577 2.30728-7.94318 3.875-8.875zm78.49995,164.375c-.0505.0505-.0823.22031-.0937.5-.0208.50612.0904.78455.25.625s.17001-.55963.0312-.90625c-.0766-.19151-.13703-.26923-.1875-.21875zm0,2.28125c-.0772-.0171-.119.15659-.125.46875-.008.41816.13643.88647.3125,1.0625 .58578.58578.73578-.0797.21875-.96875-.20924-.35983-.32902-.5454-.40625-.5625zm1.53125,31.84375c.029.0108.0605.0737.0937.15625 .13319.3301.13319.85739 0,1.1875s-.25.0664-.25-.59375c0-.49514.0694-.78235.15625-.75zm-118.6875,4.78125c.0505-.0505.11086-.004.1875.1875 .1387.34662.12825.77795-.0312.9375s-.2707-.11888-.25-.625c.0115-.27968.0433-.44952.0937-.5zm121.46875,3.34375c.0505-.0505.11087.0272.1875.21875 .13869.34662.12825.7467-.0312.90625s-.2707-.11888-.25-.625c.0115-.27968.0433-.44952.0937-.5zm-86.34375,7.875c.0373-.0201.0794.0748.125.25 .12182.46718.10026,1.11244-.0312,1.4375s-.22875-.0515-.21875-.84375c.006-.49515.0629-.81025.125-.84375zm89.71875,9.90625c.0505-.0505.11087-.004.1875.1875 .1387.34662.12826.77794-.0312.9375s-.2707-.11888-.25-.625c.0115-.27969.0433-.44952.0937-.5zm-36.90625,1.625c.0373-.0201.0793.0436.125.21875 .12183.46719.13156,1.14369 0,1.46875s-.26-.0828-.25-.875c.006-.49516.0629-.779.125-.8125zm37.375.78125c.0505-.0505.11087-.004.1875.1875 .1387.34663.12825.77794-.0312.9375s-.2707-.15012-.25-.65625c.0115-.27969.0433-.41827.0937-.46875zm-91.21875.9375c.0505-.0505.11087.0272.1875.21875 .1387.34662.12826.74671-.0312.90625s-.2707-.11888-.25-.625c.0115-.27969.0433-.44952.0937-.5zm55.8125,2.15625c.0263.0151.0323.072.0625.1875 .1208.46214.1208,1.22537 0,1.6875s-.21875.0805-.21875-.84375c0-.6932.0775-1.07654.15625-1.03125zm36.46875,1.25c.029.0108.0605.0737.0937.15625 .13316.3301.13316.85739 0,1.1875s-.25.0665-.25-.59375c0-.49513.0694-.78235.15625-.75zm-35.96875,6.625c.0249.0194.0339.10145.0625.25 .11447.59418.11447,1.56206 0,2.15625s-.21875.0946-.21875-1.09375c0-.89128.0816-1.37074.15625-1.3125zm-1.5,2.03125c-.0869-.0324-.125.2236-.125.71875 0,.66018.0856.92385.21875.59375s.13319-.8574 0-1.1875c-.0333-.0825-.0649-.11421-.0937-.125zm52.4375,2.75c-.0961.0584-.25094.28564-.53125.65625-.38769.51183-.70975.72837-.71875.5s-1.38605.86929-3.0625,2.4375-4.68001,3.71658-6.6875,4.75c-2.00398,1.0316-3.5951,1.93615-3.5,2.03125 .49758.49757 8.54432-4.30513 10.71875-6.40625 1.38644-1.33965 2.5-2.37275 2.5-2.28125 0,1.07745-2.45466,4.38945-4.4375,5.96875-8.3683,6.66531-26.64122,11.13004-52.625,12.875-9.50648.63601-37.96789.63947-47.84375,0-31.27351-2.02496-46.19033-7.17314-50.59375-17.5-.50047-1.17362-.18592-.98711 1.625,1.0625 1.98421,2.2457 6.50585,5.30078 9.125,6.15625 .52816.17252-.59113-.58663-2.46875-1.65625s-4.45648-3.08468-5.75-4.5c-1.29135-1.41294-2.5467-2.5967-2.78125-2.625s-.62018-.33483-.84375-.6875c-.87684-1.38334-.38408,1.07669.65625,3.3125 1.31133,2.81817 5.15863,6.69994 8.625,8.65625 7.93682,4.4793 21.9249,7.4094 41.21875,8.6875 8.83709.58545 40.53078.6333 49.03125.0625 32.8349-2.20503 53.02245-8.75189 57.375-18.59375 .81461-1.84199 1.15648-2.7841 1.0625-2.90625-.0141-.0183-.0617-.0195-.0937,0zm-110.625.0937c.0505-.0505.14211-.004.21875.1875 .1387.34662.097.77796-.0625.9375s-.2707-.11888-.25-.625c.0115-.27969.0433-.44952.0937-.5zm89.75,2.25c-.1866-.005-.4432.12889-.6875.375-.47065.47419-.4343.54184.25.28125 .47357-.18029.74158-.44591.59375-.59375-.037-.037-.0941-.0607-.15625-.0625zm20.5,6.6875c-.13202,0-.97914.73196-1.875,1.65625s-1.50707,1.6875-1.375,1.6875 .97915-.76322 1.875-1.6875 1.50707-1.65625 1.375-1.65625zm-144.21875,1.4375c-.26408,0-.14612.21273.25.46875s.92342.46875 1.1875.46875 .14612-.21274-.25-.46875-.92342-.46875-1.1875-.46875zm-13.6875.46875c-.0248.0248.10765.21298.40625.59375 .36247.46215.74405.84375.84375.84375 .39521,0 .14353-.37274-.65625-1-.38079-.29861-.56897-.46228-.59375-.4375z" fill="#93aca7" opacity=".5"/>
   <g transform="matrix(1.0544 0 0 1 -21.713 2.0964)">
    <path d="m404.78534-975.52762c-10.64271.0859-21.06414.73944-27.9375,1.96875-4.17729.74711-8.30531,2.24096-8.125,2.9375 .0549.21202-.0741,1.09337-.28125,1.96875s-.10753,4.30679.21875,7.625l.59375,6.03125 1.40625.28125c.87695.17538 1.375.56624 1.375,1.09375 0,.76546.26075.79578 3.3125.21875 12.48679-2.3611 57.12132-1.95726 65.78125.59375 .64757.19076.84375-.0303.84375-.96875 0-.81359.2339-1.16206.65625-1 .49507.18997.58084-.41724.4375-2.78125-.1342-2.21367-.0258-2.84066.34375-2.3125 .27847.39805.496,1.65343.5,2.78125s.20209,2.03125.4375,2.03125c.52202,0 1.0973-5.47601 1.1875-11.25 .0805-5.15089-.30165-5.61593-5.5625-6.8125-7.4446-1.69323-21.50401-2.51675-35.1875-2.40625z" fill="#a00"/>
    <path d="m407.85-971.59c12.451-5e-3 24.873 0.1296 27.156 0.4375 2.3558 0.31766-5.9614 0.4806-27.5 0.5-23.05 0.0209-29.913-0.102-27.031-0.46875 2.4326-0.30965 14.924-0.46416 27.375-0.46875z" fill="#d5fff6"/>
    <path d="m373.00409-970.43387c.21863,0 .42789.0581.59375.125 .3317.13386.0697.21875-.59375.21875s-.95672-.0849-.625-.21875c.16586-.0669.40637-.125.625-.125z" fill="#a00"/>
    <path d="m441.94159-970.43387c.26235.003.49293.0589.65625.125 .32667.13221-.0476.22775-.84375.21875s-1.0632-.12765-.59375-.25c.23472-.0611.5189-.097.78125-.0937z" fill="#a00"/>
    <path d="m370.91-970c0.69662 0 0.72127 0.078 0 0.875-0.54545 0.60269-0.8125 1.7559-0.8125 3.625 0 2.6344-0.54571 3.5598-1.1562 1.9688-0.9513-2.479 0.25911-6.4688 1.9688-6.4688z" fill="#a00"/>
    <path d="m404.84784-962.52762c.30292-.18723.46875.88811.46875,2.875 0,1.78812-.19612,3.15625-.46875,3.15625s-.5-1.28568-.5-2.875c0-1.57654.23465-2.99225.5-3.15625z" fill="#800000"/>
    <path d="m414.47284-962.52762c.30292-.18723.5.88811.5,2.875 0,1.78812-.22737,3.15625-.5,3.15625s-.46875-1.28568-.46875-2.875c0-1.57654.20338-2.99225.46875-3.15625z" fill="#800000"/>
    <path d="m396.16034-962.27762c.27217,0 .46875,1.35587.46875,3.125 0,3.15843-.0374,3.40011-.625,2.8125-.51706-.51705-.37478-5.9375.15625-5.9375z" fill="#800000"/>
    <path d="m406.06659-962.09012c.0226.0325.0677.15747.0937.40625 .10415.99513.10415,2.62986 0,3.625s-.1875.17777-.1875-1.8125c0-1.4927.0259-2.31629.0937-2.21875z" fill="#800000"/>
    <path d="m415.72284-962.09012c.0226.0325.0677.15747.0937.40625 .10414.99513.10414,2.62986 0,3.625s-.1875.17777-.1875-1.8125c0-1.4927.0259-2.31629.0937-2.21875z" fill="#800000"/>
    <path d="m388.06659-962.05892c.23731.10593.375,1.13646.375,2.875s-.0858,3.1875-.1875,3.1875c-.76415,0-1.05405-5.57295-.3125-6.03125 .0379-.0234.0911-.0464.125-.0312z" fill="#800000"/>
    <path d="m423.75409-962.05892c.23464.0629.3785.89307.375,2.28125-.004,1.40885-.21152,2.8832-.46875,3.28125-.32987.51041-.46375-.14335-.46875-2.25-.004-1.6429.20338-3.11725.46875-3.28125 .0374-.0231.0602-.0402.0937-.0312z" fill="#800000"/>
    <path d="m419.87909-962.02772 .65625,1.4375c.36454.79611.6754,2.05149.6875,2.78125 .0209,1.27536-.4162,1.67755-1.09375,1-.17685-.1769-.30275-1.43229-.28125-2.78125l.0312-2.4375z" fill="#800000"/>
    <path d="m380.87909-961.90272c.0448-.069.0823.22383.15625.84375 .22325,1.8713-.46691,5.72075-.9375,5.25-.19906-.19909-.31615-1.66692-.28125-3.28125 .0551-2.54696.0978-2.71539.40625-1.25l.375,1.6875 .125-1.9375c.0603-.82657.11145-1.24354.15625-1.3125z" fill="#800000"/>
    <path d="m433.53534-961.87152c.0264.0152.0634.0714.0937.1875 .12141.46439.12141,1.22311 0,1.6875s-.21875.085-.21875-.84375c0-.69664.0459-1.07678.125-1.03125z" fill="#800000"/>
    <path d="m432.34784-961.80902c.26537,0 .4572.49667.4375,1.09375s-.22501,2.05583-.4375,3.25c-.16538.92953-.25314,1.44653-.3125,1.46875-.0571-.13861-.0955-.93775-.125-2.53125-.035-1.8898.15752-3.28125.4375-3.28125z" fill="#800000"/>
    <path d="m440.91034-961.68402c.44786-.14788.58975.645.53125,3.09375l-.0937,3.3125-.3125-2.65625-.3125-2.65625-.25,2.65625-.25,2.65625 .0312-3.09375c.0289-2.01675.26362-3.18292.65625-3.3125z" fill="#800000"/>
    <path d="m397.34784-961.62152c.0307-.0745.0858.0621.125.4375 .10429,1.00107.10655,2.51847 0,3.375s-.1885.0451-.1875-1.8125c.001-1.16099.0113-1.87582.0625-2z" fill="#800000"/>
    <path d="m424.87909-961.62152c.0307-.0745.0546.0621.0937.4375 .10429,1.00107.10655,2.51847 0,3.375s-.1885.0451-.1875-1.8125c.001-1.16099.0425-1.87582.0937-2z" fill="#800000"/>
    <path d="m428.78534-961.55902 .5625,1.375c.31146.74704.5625,1.88511.5625,2.53125 0,1.35264-1.20325,1.60101-1.5.3125-.10692-.46441-.0688-1.60245.0937-2.53125l.28125-1.6875z" fill="#800000"/>
    <path d="m373.28534-961.40277c.0548-.0699.0799.20325.0937.8125 .018.79611-.14523,2.43085-.34375,3.625l-.34375,2.15625-.40625-2.78125c-.21203-1.53799-.22728-2.92897-.0625-3.09375s.30615.31977.34375,1.09375c.0579,1.19071.14513,1.10172.4375-.53125 .14544-.81233.22649-1.2114.28125-1.28125z" fill="#800000"/>
    <path d="m389.16034-961.15277c.0307-.0745.0546.0621.0937.4375 .10429,1.00105.10655,2.54972 0,3.40625s-.1885.0138-.1875-1.84375c.001-1.16099.0425-1.87582.0937-2z" fill="#800000"/>
    <path d="m401.19159-961.15277c.10624.003.28507.20578.53125.53125 .3896.51511.6875,1.65319.6875,2.53125 0,1.51499-.41452,1.99173-1.125,1.28125-.17686-.1769-.28925-1.31497-.28125-2.53125 .009-1.28081.0104-1.8169.1875-1.8125z" fill="#800000"/>
    <path d="m410.84784-961.15277c.10624.003.28508.20578.53125.53125 .38962.51511.6875,1.65319.6875,2.53125 0,1.51499-.41453,1.99173-1.125,1.28125-.17687-.1769-.3205-1.31497-.3125-2.53125 .009-1.28081.0417-1.8169.21875-1.8125z" fill="#800000"/>
    <path d="m384.41034-961.05907c.32782-.11233.83487.93198 1.125,2.84375 .24271,1.59933.18403,2.21875-.25,2.21875-.80293,0-1.1875-1.14329-1.1875-3.53125 0-.98808.11581-1.46385.3125-1.53125z" fill="#800000"/>
    <path d="m392.50409-961.05907c.10891-.0591.26566.0243.5.21875 .41563.34492.75,1.39436.75,2.46875 0,1.75842-.38496,2.30255-1.125,1.5625-.17692-.1769-.34375-1.28632-.34375-2.46875 0-1.16018.0372-1.68274.21875-1.78125z" fill="#800000"/>
    <path d="m376.25-960.84c0.61747 0 1.5625 2.2217 1.5625 3.6562 0 1.1215-0.66208 1.595-1.125 0.8125-0.49942-0.84442-0.85279-4.4688-0.4375-4.4688z" fill="#800000"/>
    <path d="m437.06659-960.59032c.24802-.079.51801.75154.8125,2.53125 .27088,1.63702.19172,2.0625-.375,2.0625-.91907,0-1.28738-1.45244-.875-3.46875 .14382-.70322.28869-1.07758.4375-1.125z" fill="#800000"/>
    <path d="m370.19-960.12 0.46875 1.625c0.50813 1.7655 0.39157 3.7755-0.1875 3.1875-0.19908-0.2021-0.36775-1.3775-0.34375-2.5938l0.0625-2.2188z" fill="#800000"/>
    <path d="m381.31659-956.77782c.0507-.0507.14174-.005.21875.1875 .13937.3483.0978.77718-.0625.9375s-.2709-.11638-.25-.625c.0116-.28104.043-.44927.0937-.5z" fill="#800000"/>
   </g>
  </g>
  <g transform="matrix(.05675 0 0 -.05675 166.74 304.53)">
   <path transform="matrix(7.2696 -.05506 -.12845 -8.9212 63.55 5200.1)" d="m493.55 536.67c0 14.231-94.734 25.768-211.59 25.768s-211.59-11.537-211.59-25.768 94.734-25.768 211.59-25.768 211.59 11.537 211.59 25.768z" fill="url(#l)" opacity=".5"/>
   <path d="m780.01 2761.1 428.06-1292.3h1744.6l428.55 1291.4s-373.08 401.39-622.39 485.5c-433.7 146.3-940.77 134.33-1373-16.154-241.06-83.922-605.75-468.45-605.75-468.45z" fill="#890000"/>
   <path d="m780.01 2738.1 428.06-1292.3h1744.6l428.55 1291.4s-373.08 401.39-622.39 485.5c-433.7 146.3-940.77 134.33-1373-16.153-241.06-83.922-605.75-468.45-605.75-468.45z" fill="url(#ac)"/>
   <g transform="matrix(2.8812 0 0 2.8812 -3856 -3222.5)" filter="url(#ak)" opacity=".5">
    <path d="m2084.3 2393.9-15.417-710.61 47.654-7.0079 15.417 728.83z"/>
    <path transform="matrix(8,0,0,-8,0,2950)" d="m260.87 69.511-4.2048-1.752-2.1024 93.906 4.38-3.1536z"/>
    <path transform="matrix(8,0,0,-8,0,2950)" d="m256.53 67.847 4.4238 1.7958 5.475-1.4454-3.5478-1.0512z"/>
   </g>
   <g transform="matrix(2.8812 0 0 2.8812 -3856 -3222.5)">
    <path d="m2084.3 2393.9-15.417-710.61 47.654-7.0079 15.417 728.83z" fill="#f7d333"/>
    <path transform="matrix(8,0,0,-8,0,2950)" d="m260.87 69.511-4.2048-1.752-2.1024 93.906 4.38-3.1536z" fill="#efb319"/>
    <path transform="matrix(8,0,0,-8,0,2950)" d="m256.53 67.847 4.4238 1.7958 5.475-1.4454-3.5478-1.0512z" fill="#fcec3d"/>
   </g>
   <g transform="matrix(2.8783 -.12989 .12989 2.8783 -4108.7 -2956.8)" filter="url(#a)" opacity=".5">
    <path transform="matrix(8,0,0,-8,0,2950)" d="m251.48 75.145 4.2121-1.7344-0.99107 92.17-5.1907 1.1362z"/>
    <path transform="matrix(8,0,0,-8,0,2950)" d="m244.93 74.416 6.5373 0.59816-1.219 91.804-5.9464-6.6897z"/>
    <path transform="matrix(8,0,0,-8,0,2950)" d="m244.93 74.46 6.7013 0.70079 4.2048-1.7082-5.8254-0.4818z"/>
   </g>
   <path transform="matrix(23.027 -1.0392 -1.0392 -23.027 -3725.5 5534.2)" d="m251.48 75.145 4.2121-1.7344-0.99107 92.17-5.1907 1.1362z" fill="#efb319"/>
   <path transform="matrix(23.027 -1.0392 -1.0392 -23.027 -3725.5 5534.2)" d="m244.93 74.416 6.5373 0.59816-1.219 91.804-5.9464-6.6897z" fill="#f7d333"/>
   <path transform="matrix(23.027 -1.0392 -1.0392 -23.027 -3725.5 5534.2)" d="m244.93 74.46 6.7013 0.70079 4.2048-1.7082-5.8254-0.4818z" fill="#fcec3d"/>
   <g transform="matrix(2.8672 -.28385 .28385 2.8672 -4325.2 -2706.3)" filter="url(#a)" opacity=".5">
    <path transform="matrix(8,0,0,-8,0,2950)" d="m229.69 77.22 10.162 80.416 7.0079 1.5768-11.038-82.694-6.8328-2.1024z"/>
    <path transform="matrix(8,0,0,-8,0,2950)" d="m235.64 76.519 3.1536-2.2776 11.914 87.074-4.918-1.6068z"/>
    <path transform="matrix(8,0,0,-8,0,2950)" d="m228.91 74.551 6.7602 2.0086 3.0992-2.1612-5.5519-1.9992z"/>
   </g>
   <path transform="matrix(22.938 -2.2708 -2.2708 -22.938 -3487.8 5752.1)" d="m229.69 77.22 10.162 80.416 7.0079 1.5768-11.038-82.694-6.8328-2.1024z" fill="#f7d333"/>
   <path transform="matrix(22.938 -2.2708 -2.2708 -22.938 -3487.8 5752.1)" d="m235.64 76.519 3.1536-2.2776 11.914 87.074-4.918-1.6068z" fill="#efb319"/>
   <path transform="matrix(22.938 -2.2708 -2.2708 -22.938 -3487.8 5752.1)" d="m228.91 74.551 6.7602 2.0086 3.0992-2.1612-5.5519-1.9992z" fill="#fcec3d"/>
   <g transform="matrix(2.7481 -.86578 .86578 2.7481 -5259.8 -1255.3)" filter="url(#a)" opacity=".5">
    <path transform="matrix(8,0,0,-8,0,2950)" d="m213.58 131.88-15.362-39.147 6.442-5.4509 28.741 64.42z"/>
    <path d="m1633.3 2247.8 15.857 19.821 238.4-573.32-79.825 36.16z"/>
    <path transform="matrix(8,0,0,-8,0,2950)" d="m198.23 92.945 2.1939-4.8635 5.9528-2.7765-1.7221 3.6625z"/>
   </g>
   <g transform="matrix(2.7481 -.86578 .86578 2.7481 -5259.8 -1255.3)">
    <path transform="matrix(8,0,0,-8,0,2950)" d="m213.58 131.88-15.362-39.147 6.442-5.4509 28.741 64.42z" fill="#f7d333"/>
    <path d="m1633.3 2247.8 15.857 19.821 238.4-573.32-79.825 36.16z" fill="#efb319"/>
    <path transform="matrix(8,0,0,-8,0,2950)" d="m198.23 92.945 2.1939-4.8635 5.9528-2.7765-1.7221 3.6625z" fill="#fcec3d"/>
   </g>
   <g transform="matrix(2.8812 0 0 2.8812 -3856 -3222.5)" filter="url(#a)" opacity=".5">
    <path transform="matrix(8,0,0,-8,0,2950)" d="m213.58 131.88-15.362-39.147 6.442-5.4509 28.741 64.42z"/>
    <path d="m1633.3 2247.8 15.857 19.821 238.4-573.32-79.825 36.16z"/>
    <path transform="matrix(8,0,0,-8,0,2950)" d="m198.68 92.287 1.752-4.2048 5.256-2.1024-1.0512 4.5552z"/>
   </g>
   <g transform="matrix(2.8812 0 0 2.8812 -3856 -3222.5)">
    <path transform="matrix(8,0,0,-8,0,2950)" d="m213.58 131.88-15.362-39.147 6.442-5.4509 28.741 64.42z" fill="#f7d333"/>
    <path d="m1633.3 2247.8 15.857 19.821 238.4-573.32-79.825 36.16z" fill="#efb319"/>
    <path transform="matrix(8,0,0,-8,0,2950)" d="m198.68 92.287 1.752-4.2048 5.256-2.1024-1.0512 4.5552z" fill="#fcec3d"/>
   </g>
   <g transform="matrix(2.88 .08419 -.08419 2.88 -3681.5 -3359.1)" filter="url(#al)" opacity=".5">
    <path transform="matrix(8,0,0,-8,0,2950)" d="m266.83 74.241 6.6576 79.891 5.0808-0.876-6.6576-77.263z"/>
    <path transform="matrix(8,0,0,-8,0,2950)" d="m271.73 76.168 4.9056-2.1024 6.4824 79.19-4.7304 0.5256z"/>
    <path transform="matrix(8,0,0,-8,0,2950)" d="m266.83 74.416 5.256 1.752 4.7304-1.9272-5.6064-0.87599z"/>
   </g>
   <path transform="matrix(23.04 .67351 .67351 -23.04 -3929.9 5137)" d="m266.83 74.241 6.6576 79.891 5.0808-0.876-6.6576-77.263z" fill="#f7d333"/>
   <path transform="matrix(23.04 .67351 .67351 -23.04 -3929.9 5137)" d="m271.73 76.168 4.9056-2.1024 6.4824 79.19-4.7304 0.5256z" fill="#efb319"/>
   <path transform="matrix(23.04 .67351 .67351 -23.04 -3929.9 5137)" d="m266.83 74.416 5.256 1.752 4.7304-1.9272-5.6064-0.87599z" fill="#fcec3d"/>
   <g transform="matrix(2.8812 0 0 2.8812 -3856 -3222.5)" filter="url(#an)" opacity=".5">
    <path transform="matrix(8,0,0,-8,0,2950)" d="m284 78.446-6.8327 1.5768 1.9272 71.306 7.1831-4.9056z"/>
    <path transform="matrix(8,0,0,-8,0,2950)" d="m277.16 79.848-3.8544-1.5768 2.4528 75.861 3.504-1.9272z"/>
    <path transform="matrix(8,0,0,-8,0,2950)" d="m273.13 78.534 6.3072-2.0148 4.818 2.19-6.9203 1.314z"/>
   </g>
   <path transform="matrix(23.05 0 0 -23.05 -3856 5277.2)" d="m284 78.446-6.8327 1.5768 1.9272 71.306 7.1831-4.9056z" fill="#f7d333"/>
   <path transform="matrix(23.05 0 0 -23.05 -3856 5277.2)" d="m277.16 79.848-3.8544-1.5768 2.4528 75.861 3.504-1.9272z" fill="#efb319"/>
   <path transform="matrix(23.05 0 0 -23.05 -3856 5277.2)" d="m273.13 78.534 6.3072-2.0148 4.818 2.19-6.9203 1.314z" fill="#fcec3d"/>
   <g transform="matrix(-2.8812 0 0 2.8812 8301.7 -3182.5)" filter="url(#am)" opacity=".5">
    <path transform="matrix(8,0,0,-8,0,2950)" d="m229.69 77.22 10.162 80.416 7.0079 1.5768-11.038-82.694-6.8328-2.1024z"/>
    <path transform="matrix(8,0,0,-8,0,2950)" d="m235.64 76.519 3.1536-2.2776 11.914 87.074-4.918-1.6068z"/>
    <path transform="matrix(8,0,0,-8,0,2950)" d="m228.91 74.551 6.7602 2.0086 3.0992-2.1612-5.5519-1.9992z"/>
   </g>
   <path transform="matrix(-23.05 0 0 -23.05 8301.7 5317.2)" d="m229.69 77.22 10.162 80.416 7.0079 1.5768-11.038-82.694-6.8328-2.1024z" fill="#f7d333"/>
   <path transform="matrix(-23.05 0 0 -23.05 8301.7 5317.2)" d="m235.64 76.519 3.1536-2.2776 11.914 87.074-4.918-1.6068z" fill="#efb319"/>
   <path transform="matrix(-23.05 0 0 -23.05 8301.7 5317.2)" d="m228.91 74.551 6.7602 2.0086 3.0992-2.1612-5.5519-1.9992z" fill="#fcec3d"/>
   <g transform="matrix(2.8714 .23788 -.23788 2.8714 -1981.8 -3591)" filter="url(#ao)" opacity=".5">
    <path d="m1803.8 2277.5 45.589-25.768 19.822-483.64-61.446 57.482z"/>
    <path d="m1849.3 2251.7 29.732 13.875 13.875-525.27-33.696 39.643z"/>
    <path d="m1802.8 2275.4 47.571-23.786 30.723 13.875-20.813 23.786-28.741 6.9375z"/>
   </g>
   <g transform="matrix(2.8714 .23788 -.23788 2.8714 -1981.8 -3591)">
    <path d="m1803.8 2277.5 45.589-25.768 19.822-483.64-61.446 57.482z" fill="#efb319"/>
    <path d="m1849.3 2251.7 29.732 13.875 13.875-525.27-33.696 39.643z" fill="#f7d333"/>
    <path d="m1802.8 2275.4 47.571-23.786 30.723 13.875-20.813 23.786-28.741 6.9375z" fill="#fcec3d"/>
   </g>
   <g transform="matrix(-2.7653 -.9054 -.80924 3.0939 9369.1 -2031.2)" filter="url(#ap)" opacity=".5">
    <path transform="matrix(8,0,0,-8,0,2950)" d="m213.58 131.88-15.362-39.147 6.442-5.4509 28.741 64.42z"/>
    <path d="m1633.3 2247.8 15.857 19.821 238.4-573.32-79.825 36.16z"/>
    <path transform="matrix(8,0,0,-8,0,2950)" d="m198.68 92.287 1.752-4.2048 5.256-2.1024-1.0512 4.5552z"/>
   </g>
   <g transform="matrix(-2.7653 -.9054 -.80924 3.0939 9369.1 -2031.2)">
    <path transform="matrix(8,0,0,-8,0,2950)" d="m213.58 131.88-15.362-39.147 6.442-5.4509 28.741 64.42z" fill="#f7d333"/>
    <path d="m1633.3 2247.8 15.857 19.821 238.4-573.32-79.825 36.16z" fill="#efb319"/>
    <path transform="matrix(8,0,0,-8,0,2950)" d="m198.68 92.287 1.752-4.2048 5.256-2.1024-1.0512 4.5552z" fill="#fcec3d"/>
   </g>
   <g transform="matrix(-2.8812 0 0 2.8812 8087.4 -3216.8)" filter="url(#d)" opacity=".5">
    <path transform="matrix(8,0,0,-8,0,2950)" d="m213.58 131.88-15.362-39.147 6.442-5.4509 28.741 64.42z"/>
    <path d="m1633.3 2247.8 15.857 19.821 238.4-573.32-79.825 36.16z"/>
    <path transform="matrix(8,0,0,-8,0,2950)" d="m198.68 92.287 1.752-4.2048 5.256-2.1024-1.0512 4.5552z"/>
   </g>
   <g transform="matrix(-2.8812 0 0 2.8812 8087.4 -3216.8)">
    <path transform="matrix(8,0,0,-8,0,2950)" d="m213.58 131.88-15.362-39.147 6.442-5.4509 28.741 64.42z" fill="#f7d333"/>
    <path d="m1633.3 2247.8 15.857 19.821 238.4-573.32-79.825 36.16z" fill="#efb319"/>
    <path transform="matrix(8,0,0,-8,0,2950)" d="m198.68 92.287 1.752-4.2048 5.256-2.1024-1.0512 4.5552z" fill="#fcec3d"/>
   </g>
   <g transform="matrix(-2.6917 -1.105 -1.0331 3.0265 9616 -2215.1)" filter="url(#aq)" opacity=".5">
    <path transform="matrix(8,0,0,-8,0,2950)" d="m213.58 131.88-15.362-39.147 6.442-5.4509 28.741 64.42z"/>
    <path d="m1633.3 2247.8 15.857 19.821 238.4-573.32-79.825 36.16z"/>
    <path transform="matrix(8,0,0,-8,0,2950)" d="m198.68 92.287 1.752-4.2048 5.256-2.1024-1.0512 4.5552z"/>
   </g>
   <g transform="matrix(-2.6917 -1.105 -1.0331 3.0265 9616 -2215.1)">
    <path transform="matrix(8,0,0,-8,0,2950)" d="m213.58 131.88-15.362-39.147 6.442-5.4509 28.741 64.42z" fill="#f7d333"/>
    <path d="m1633.3 2247.8 15.857 19.821 238.4-573.32-79.825 36.16z" fill="#efb319"/>
    <path transform="matrix(8,0,0,-8,0,2950)" d="m198.68 92.287 1.752-4.2048 5.256-2.1024-1.0512 4.5552z" fill="#fcec3d"/>
   </g>
   <g transform="matrix(2.8812 0 0 2.8812 -3902.1 -3222.5)" filter="url(#a)" opacity=".5">
    <path transform="matrix(8,0,0,-8,0,2950)" d="m229.69 77.22 10.162 80.416 7.0079 1.5768-11.038-82.694-6.8328-2.1024z"/>
    <path transform="matrix(8,0,0,-8,0,2950)" d="m235.64 76.519 3.1536-2.2776 11.914 87.074-4.918-1.6068z"/>
    <path transform="matrix(8,0,0,-8,0,2950)" d="m228.91 74.551 6.7602 2.0086 3.0992-2.1612-5.5519-1.9992z"/>
   </g>
   <path transform="matrix(23.05 0 0 -23.05 -3902.1 5277.2)" d="m229.69 77.22 10.162 80.416 7.0079 1.5768-11.038-82.694-6.8328-2.1024z" fill="#f7d333"/>
   <path transform="matrix(23.05 0 0 -23.05 -3902.1 5277.2)" d="m235.64 76.519 3.1536-2.2776 11.914 87.074-4.918-1.6068z" fill="#efb319"/>
   <path transform="matrix(23.05 0 0 -23.05 -3902.1 5277.2)" d="m228.91 74.551 6.7602 2.0086 3.0992-2.1612-5.5519-1.9992z" fill="#fcec3d"/>
   <g transform="matrix(2.8812 0 0 2.8812 -3902.1 -3176.4)" filter="url(#ar)" opacity=".5">
    <path d="m1803.8 2277.5 45.589-25.768 19.822-483.64-61.446 57.482z"/>
    <path d="m1849.3 2251.7 29.732 13.875 13.875-525.27-33.696 39.643z"/>
    <path d="m1802.8 2275.4 47.571-23.786 30.723 13.875-20.813 23.786-28.741 6.9375z"/>
   </g>
   <g transform="matrix(2.8812 0 0 2.8812 -3902.1 -3176.4)">
    <path d="m1803.8 2277.5 45.589-25.768 19.822-483.64-61.446 57.482z" fill="#efb319"/>
    <path d="m1849.3 2251.7 29.732 13.875 13.875-525.27-33.696 39.643z" fill="#f7d333"/>
    <path d="m1802.8 2275.4 47.571-23.786 30.723 13.875-20.813 23.786-28.741 6.9375z" fill="#fcec3d"/>
   </g>
   <g transform="matrix(2.8812 0 0 2.8812 -3576.2 -3388.1)" filter="url(#d)" opacity=".5">
    <path transform="matrix(8,0,0,-8,0,2950)" d="m213.58 131.88-15.362-39.147 6.442-5.4509 28.741 64.42z"/>
    <path d="m1633.3 2247.8 15.857 19.821 238.4-573.32-79.825 36.16z"/>
    <path transform="matrix(8,0,0,-8,0,2950)" d="m198.68 92.287 1.752-4.2048 5.256-2.1024-1.0512 4.5552z"/>
   </g>
   <g transform="matrix(1.585 0 0 1.585 -531.32 -88.139)" filter="url(#ah)" opacity=".5">
    <path transform="matrix(8,0,0,-8,0,2950)" d="m176.91 152.7 11.893 4.4598 8.4241 94.647-16.848-5.9464z"/>
    <path transform="matrix(8,0,0,-8,0,2950)" d="m188.8 156.66 6.9375-2.4777 9.4152 96.63-7.9286 1.9821z"/>
    <path transform="matrix(8,0,0,-8,0,2950)" d="m176.95 152.73 11.563 4.7304 7.5335-3.6792-9.9863-3.6792z"/>
   </g>
   <path transform="matrix(12.68 0 0 -12.68 -531.32 4587.5)" d="m176.91 152.7 11.893 4.4598 8.4241 94.647-16.848-5.9464z" fill="#f7d333"/>
   <path transform="matrix(12.68 0 0 -12.68 -531.32 4587.5)" d="m188.8 156.66 6.9375-2.4777 9.4152 96.63-7.9286 1.9821z" fill="#efb319"/>
   <path transform="matrix(12.68 0 0 -12.68 -531.32 4587.5)" d="m176.95 152.73 11.563 4.7304 7.5335-3.6792-9.9863-3.6792z" fill="#fcec3d"/>
   <g transform="matrix(2.8812 0 0 2.8812 -3576.2 -3388.1)">
    <path transform="matrix(8,0,0,-8,0,2950)" d="m213.58 131.88-15.362-39.147 6.442-5.4509 28.741 64.42z" fill="#f7d333"/>
    <path d="m1633.3 2247.8 15.857 19.821 238.4-573.32-79.825 36.16z" fill="#efb319"/>
    <path transform="matrix(8,0,0,-8,0,2950)" d="m198.68 92.287 1.752-4.2048 5.256-2.1024-1.0512 4.5552z" fill="#fcec3d"/>
   </g>
   <g transform="matrix(1.585 0 0 1.585 -531.32 -88.139)" filter="url(#aj)" opacity=".5">
    <path d="m1724.5 2029.7 3.9643-947.47 83.25 15.857-19.822 911.79z"/>
    <path d="m1789.9 2011.9 48.052 20.643 23.305-886.84-48.981-49.638z"/>
    <path d="m1724 2032.3 67.276-22.425 50.457 22.425-44.851 30.835z"/>
   </g>
   <g transform="matrix(1.585 0 0 1.585 -531.32 -88.139)">
    <path d="m1724.5 2029.7 3.9643-947.47 83.25 15.857-19.822 911.79z" fill="#efb319"/>
    <path d="m1789.9 2011.9 48.052 20.643 23.305-886.84-48.981-49.638z" fill="#f7d333"/>
    <path d="m1724 2032.3 67.276-22.425 50.457 22.425-44.851 30.835z" fill="#fcec3d"/>
   </g>
   <g transform="matrix(-2.7832 -.84867 -.74581 3.1098 8744.2 -2709.5)" filter="url(#ai)" opacity=".5">
    <path transform="matrix(8,0,0,-8,0,2950)" d="m213.58 131.88-15.362-39.147 6.442-5.4509 28.741 64.42z"/>
    <path d="m1633.3 2247.8 15.857 19.821 238.4-573.32-79.825 36.16z"/>
    <path transform="matrix(8,0,0,-8,0,2950)" d="m198.68 92.287 1.752-4.2048 5.256-2.1024-1.0512 4.5552z"/>
   </g>
   <g transform="matrix(2.8783 -.12989 .12989 2.8783 -3934.9 -3887.5)" filter="url(#ag)" opacity=".5">
    <path transform="matrix(8,0,0,-8,0,2950)" d="m251.48 75.145 4.2121-1.7344-0.99107 92.17-5.1907 1.1362z"/>
    <path transform="matrix(8,0,0,-8,0,2950)" d="m244.93 74.416 6.5373 0.59816-1.219 91.804-5.9464-6.6897z"/>
    <path transform="matrix(8,0,0,-8,0,2950)" d="m244.93 74.46 6.7013 0.70079 4.2048-1.7082-5.8254-0.4818z"/>
   </g>
   <path transform="matrix(23.027 -1.0392 -1.0392 -23.027 -3551.7 4603.6)" d="m251.48 75.145 4.2121-1.7344-0.99107 92.17-5.1907 1.1362z" fill="#efb319"/>
   <path transform="matrix(23.027 -1.0392 -1.0392 -23.027 -3551.7 4603.6)" d="m244.93 74.416 6.5373 0.59816-1.219 91.804-5.9464-6.6897z" fill="#f7d333"/>
   <path transform="matrix(23.027 -1.0392 -1.0392 -23.027 -3551.7 4603.6)" d="m244.93 74.46 6.7013 0.70079 4.2048-1.7082-5.8254-0.4818z" fill="#fcec3d"/>
   <g transform="matrix(-2.7832 -.84867 -.74581 3.1098 8744.2 -2709.5)">
    <path transform="matrix(8,0,0,-8,0,2950)" d="m213.58 131.88-15.362-39.147 6.442-5.4509 28.741 64.42z" fill="#f7d333"/>
    <path d="m1633.3 2247.8 15.857 19.821 238.4-573.32-79.825 36.16z" fill="#efb319"/>
    <path transform="matrix(8,0,0,-8,0,2950)" d="m198.68 92.287 1.752-4.2048 5.256-2.1024-1.0512 4.5552z" fill="#fcec3d"/>
   </g>
   <path d="m3185.8 2658.1s-142.07-20.007-157.75-65.548c-65.374-189.92-150.34-392.28-296.77-533.75-183.48-177.28-409.2-314.03-681.42-348.63-267.89-34.053-554.89 150.7-705.19 399.05-74.15 122.53-69.031 273.47-134.7 399.05-23.996 45.891-211.77 101.56-211.77 101.56l62.667-434.35-39.617 296.05s113.58-26.861 137.58-72.752c65.667-125.58 83.136-311.05 185.84-427.87 191.68-218.01 398.94-309.81 636.04-319.1 267.71-10.483 541.02 128.61 744.8 302.53 148.08 126.38 237.16 309.97 302.53 499.9 14.281 41.488 128.66 60.817 149.83 64.108l7.9235 139.74z" fill="url(#ab)"/>
   <path d="m781.39 2748.4 45.689-254.14 205.6-85.666-34.266 199.89z" fill="url(#aa)"/>
   <path d="m1045.4 2448.5 270.57-2167.7-149.42 116.27-363.45 2221.1z" fill="url(#z)"/>
   <path d="m3182.8 2661.3-6.0576-145.38 189.8 109.04 16.154 123.17z" fill="#a7a7a7"/>
   <path d="m1312.2 290.83s519.13 121.34 783.44 122.33c277.62 1.0396 823.82-122.33 823.82-122.33l145.38 177.69 121.15 2051.5s-142.51-20.052-158.19-65.593c-65.374-189.92-154.1-373.4-302.18-499.77-203.79-173.92-476.9-313.07-744.61-302.59-237.1 9.2842-444.82 100.73-636.5 318.74-102.71 116.81-120.1 302.48-185.76 428.06-23.996 45.891-137.3 72.69-137.3 72.69z" fill="#c41c23"/>
   <path d="m3065.7 468.52 298.84 2156.5-185.76-107.02z" fill="#a00"/>
   <path transform="matrix(2.8812 0 0 2.8812 -3856 -3222.5)" d="m2345.7 1236.2c-24.513 5.5037-186.67 41.194-280.09 40.844-82.957-0.3103-220.55-30.436-258.97-39.187l-95.5 716.09c8.3979-3.995 15.717-9.6659 15.875-9.9687 20.453-39.115 26.176-105.66 66.531-151.56 68.73-78.171 145.91-112.42 231.75-115.78 98.57-3.8598 196.09 46.542 268.88 108.66 54.636 46.628 86.289 112.99 109.38 180.06-0.8334-2.4215-0.2174-0.296 3.625 1.75s9.7481 4.2218 15.656 5.9062c1.809 0.5157 3.1814 0.7204 4.9375 1.1562l-40.594-687.28-41.469-50.688z" fill="url(#y)" opacity=".4816"/>
  </g>
  <path d="m292.67 264.45-2.9429-11.196 82.78-46.228 18.679 45.153-81.098 44.078z" fill="url(#x)"/>
  <path d="m325.07 288.33 65.848-36.283 68.67 11.288-45.69 38.03z" fill="#b6b6b6"/>
  <path d="m372.51 207.03 117.18 17.739-11.826 41.927-86.811-14.782z" fill="url(#w)"/>
  <path d="m488.99 225.35-116.5-18.054 42.57-78.679 101.1 5.3213z" fill="url(#k)"/>
  <path d="m372.87 207.67-15.204-2.4706 39.91-99.394 18.244 22.806z" fill="url(#v)"/>
  <g transform="matrix(.38286 0 0 .38286 300.6 164.69)">
   <path transform="matrix(1.0409 -.0768 .09395 1.3665 68.305 -509.34)" d="m314.59 614.71c0 32.858-83.558 59.494-186.63 59.494s-186.63-26.636-186.63-59.494 83.558-59.494 186.63-59.494 186.63 26.636 186.63 59.494z" fill="url(#j)" opacity=".6321"/>
   <g transform="translate(74.979 375.68)">
    <path d="m14.983-101.64s-7.5698 16.879-5.7628 25.356c3.2037 15.03 15.665 27.278 27.662 36.882 6.5778 5.2658 15.32 7.0236 23.051 10.373 9.1657 3.9709 17.725 10.505 27.662 11.526 10.119 1.0398 19.8-5.4492 29.967-5.7628 12.003-0.3702 23.727 4.9876 35.73 4.6103 12.125-0.38122 23.845-4.4809 35.73-6.9154 14.248-2.9187 28.368-6.4476 42.645-9.2205 11.098-2.1556 22.493-2.8766 33.424-5.7628 9.8699-2.606 19.731-5.7143 28.814-10.373 6.6374-3.4044 13.332-7.2429 18.441-12.678 4.6029-4.8969 8.9539-10.719 10.373-17.288 2.1234-9.8284-3.4577-29.967-3.4577-29.967z" fill="url(#u)"/>
    <path d="m319.26-114.32-304.28 9.2188s-4.0222 8.9742-5.5 17.125c5.3737 10.478 14.777 19.354 23.938 26.688 6.5778 5.2658 15.331 7.0254 23.062 10.375 9.1657 3.9709 17.72 10.51 27.656 11.531 10.119 1.0398 19.802-5.4677 29.969-5.7812 12.003-0.3702 23.716 5.0024 35.719 4.625 12.125-0.38122 23.866-4.503 35.75-6.9375 14.248-2.9187 28.348-6.4459 42.625-9.2188 11.098-2.1556 22.506-2.8638 33.438-5.75 9.8699-2.606 19.729-5.7162 28.812-10.375 6.6374-3.4044 13.328-7.2522 18.438-12.688 4.6029-4.8969 8.9558-10.712 10.375-17.281 0.642-2.9717 0.55567-6.8912 0.15625-10.906l-0.15625-0.625z" fill="url(#i)"/>
   </g>
   <path d="m88.019 266.63c1.8842-13.748 24.86-12.866 38.304-16.3 26.977-6.889 83.129-8.1499 83.129-8.1499s112.47 1.63 115.73 1.63 37.215-2.6272 51.344 7.3349c4.7671 3.361 8.1499 15.485 8.1499 15.485v17.93l-243.68 24.45s-56.045-19.975-52.974-42.379z" fill="#400700"/>
   <path d="m92.185 292.88s1.2499 6.0824 2.8814 8.6442c2.7007 4.2406 6.7151 7.6624 10.949 10.373 3.4849 2.231 7.399 4.3069 11.526 4.6103 4.1356 0.30402 7.9553-2.9047 12.102-2.8814 9.5042 0.0534 18.261 5.5129 27.662 6.9154 7.4194 1.107 15.168-0.54348 22.475 1.1526 5.7003 1.323 10.305 6.4243 16.136 6.9154 5.7105 0.48094 11.068-3.0432 16.712-4.034 6.8532-1.2029 13.789-2.1979 20.746-2.3051 4.8171-0.0743 9.7662-0.14054 14.407 1.1526 2.4826 0.69174 4.3991 2.9005 6.9154 3.4577 6.7544 1.4958 13.85-0.0223 20.746-0.57628 5.7952-0.46554 11.731-0.59759 17.288-2.3051 3.2847-1.0092 5.811-4.1826 9.2205-4.6103 4.4862-0.56277 8.7498 3.2694 13.255 2.8814 6.6104-0.56931 12.396-4.7574 18.441-7.4917 4.6964-2.1242 9.1578-4.7403 13.831-6.9154 8.3466-3.8851 17.658-5.901 25.356-10.949 3.5231-2.3102 6.9482-5.0967 9.2205-8.6442 1.3106-2.0461 2.5801-4.5012 2.3051-6.9154-0.45854-4.0262-2.5839-8.8502-6.3391-10.373-6.4331-2.6089-13.476 3.348-20.17 5.1865-12.544 3.4452-24.598 8.993-37.458 10.949-43.306 6.5878-87.728 5.8018-131.39 2.3051-20.62-1.6513-41.111-5.57-61.086-10.949-8.6842-2.3387-16.809-6.4232-25.356-9.2205-4.5642-1.4937-13.831-4.034-13.831-4.034z" fill="url(#t)"/>
   <path d="m384.33 282.92c-6.5908 3.0415-22.687 10.479-33.062 15.5-6.5615 3.1754-12.624 7.5452-19.562 9.7812-8.1191 2.6167-16.892 2.5188-25.281 4.0625-7.9122 1.4559-15.6 4.3371-23.625 4.9062-8.6883 0.61616-17.361-2.0491-26.062-1.6562-7.139 0.3223-14.073 3.1864-21.219 3.2812-19.441 0.2582-38.525-5.1538-57.844-7.3438-10.851-1.2301-21.835-1.3774-32.594-3.25-7.7245-1.3444-15.016-6.1646-22.844-5.7188-4.6347 0.26398-8.4943 5.889-13.031 4.9062-3.3793-0.73199-4.1921-5.9215-7.3438-7.3438-2.1788-0.9832-5.1205-1.5396-8.25-1.8438 0.42301 1.2619 0.93241 2.5016 1.4688 3.3438 2.7007 4.2406 6.7033 7.6331 10.938 10.344 3.4849 2.231 7.4046 4.3216 11.531 4.625 4.1356 0.30402 7.9471-2.8983 12.094-2.875 9.5042 0.0534 18.256 5.5037 27.656 6.9062 7.4194 1.107 15.161-0.53979 22.469 1.1562 5.7003 1.323 10.325 6.4152 16.156 6.9062 5.7105 0.48094 11.074-3.0405 16.719-4.0312 6.8532-1.2029 13.762-2.2053 20.719-2.3125 4.8171-0.0743 9.7653-0.13686 14.406 1.1562 2.4826 0.69174 4.4212 2.9115 6.9375 3.4688 6.7544 1.4958 13.854-0.0398 20.75-0.59375 5.7952-0.46554 11.724-0.5737 17.281-2.2812 3.2847-1.0092 5.8092-4.1973 9.2188-4.625 4.4862-0.56277 8.7453 3.263 13.25 2.875 6.6104-0.56931 12.392-4.7345 18.438-7.4688 4.6964-2.1242 9.1707-4.7624 13.844-6.9375 8.3466-3.8851 17.645-5.8891 25.344-10.938 3.5231-2.3102 6.9464-5.1087 9.2188-8.6562 1.0282-1.6053 2.0296-3.4522 2.2812-5.3438z" fill="#400700"/>
   <path d="m88.735 265.23 0.8125 6.6562s4.3709 1.611 5.8125 3.3125c1.7725 2.092 0.33931 6.6024 2.8438 7.7188 2.6731 1.1915 5.2311-3.342 8.1562-3.25 5.4024 0.17 9.6538 4.8906 14.656 6.9375 9.1865 3.7589 18.587 12.528 28.125 9.7812 2.5138-0.72385 2.4577-5.2045 4.9062-6.125 3.6149-1.359 7.664 1.0774 11.406 2.0312 5.4072 1.3783 10.296 5.1809 15.875 5.3125 4.5131 0.10645 9.2663-6.1782 13.031-3.6875 3.6605 2.4216-2.7166 12.686 1.6562 13.062 3.6801 0.31643 0.17445-8.5482 3.25-10.594 4.55-3.0262 10.953 0.56169 16.312 1.625 7.3733 1.4627 14.085 6.8533 21.594 6.5 7.1782-0.33778 12.916-6.7452 19.969-8.125 9.3232-1.8241 20.359-4.8971 28.5 0 2.4956 1.5013 1.5981 6.2174 4.0938 7.7188 3.142 1.8901 7.7685 1.7325 11 0 3.4501-1.8497 3.1459-7.7626 6.5-9.7812 4.6819-2.8178 10.861-2.0057 16.312-1.625 4.0426 0.28234 7.8007 3.4473 11.812 2.875 5.1278-0.73151 8.7156-5.6916 13.469-7.75 7.2935-3.1585 15.824-3.1517 22.812-6.9375 3.5498-1.923 9.2812-7.7812 9.2812-7.7812-0.82429-0.92128-1.7961-1.6748-2.9062-2.125-6.4331-2.6089-13.462 3.349-20.156 5.1875-12.544 3.4452-24.608 8.9811-37.469 10.938-43.306 6.5878-87.711 5.8092-131.38 2.3125-20.62-1.6513-41.119-5.5581-61.094-10.938-8.6842-2.3387-16.827-6.4214-25.375-9.2188-4.5642-1.4937-13.812-4.0312-13.812-4.0312z" fill="#400700"/>
   <g transform="translate(65.199 -116.58)">
    <path d="m57.864 372.61s-5.3369 16.698-4.8899 25.265c0.34031 6.5223 2.6781 12.957 5.7049 18.745 3.0476 5.8274 8.9857 9.7615 12.225 15.485 5.2934 9.353 11.41 30.155 11.41 30.155s14.693-14.598 23.635-19.56c8.2632-4.5846 18.474-4.6768 26.895-8.9649 8.3299-4.2418 14.306-12.44 22.82-16.3 12.963-5.8773 27.426-8.1389 41.564-9.7798 12.683-1.472 25.551 0.61566 38.304 0 8.451-0.40797 17.144-4.8218 25.265-2.445 9.2841 2.7175 16.081 10.989 22.82 17.93 5.4125 5.5744 13.855 18.745 13.855 18.745l8.1499-9.7798 1.63-31.785-15.485-16.3-146.7-24.45z" fill="#fcdd83"/>
    <path d="m107.59 390.53s11.734 16.145 8.125 23.656c-1.7488 3.6403-7.4049 3.5155-11.406 4.0625-3.7778 0.51643-8.3191-3.0504-11.406-0.8125-4.5344 3.287 0.35181 12.835-4.0625 16.281-1.713 1.3375-4.7316-1.2184-6.5312 0-2.687 1.8192-4.8806 5.1565-6.6562 9 3.62 9.3334 6.6562 19.531 6.6562 19.531s14.683-14.601 23.625-19.562c0.68737-0.38137 1.4128-0.70705 2.125-1.0312 1.1083-3.9957 2.6829-7.9548 5.2188-11.188 3.5883-4.5744 11.387-5.3245 13.844-10.594 2.528-5.4224 2.2363-12.79-0.8125-17.938-3.7276-6.2937-18.719-11.406-18.719-11.406z" fill="#fedd5c"/>
    <path d="m145.06 359.56-87.188 13.031s-5.3532 16.715-4.9062 25.281c0.0551 1.056 0.18949 2.1072 0.34375 3.1562 3.9 0.40023 7.6219 0.69344 11.062 0.90625 7.7169 0.47732 14.335-6.2987 22-7.3125 9.1726-1.2132 18.627 3.3436 27.719 1.625 7.6439-1.4449 13.555-8.2779 21.188-9.7812 12.272-2.4173 24.992 1.5136 37.5 1.625 10.598 0.0944 21.184-0.67666 31.781-0.8125 8.4208-0.10794 16.828 0 25.25 0 13.583 0 28.449-5.7614 40.75 0 7.6857 3.5998 11.502 12.57 16.312 19.562 4.4119 6.4129 4.2098 17.408 11.406 20.375 2.2935 0.94545 5.1584 0.56982 7.625-0.5625l1.3438-26.344-15.5-16.281-146.69-24.469z" fill="url(#h)"/>
   </g>
   <g transform="translate(-231.6 186.96)">
    <path d="m373.41 63.393s30.465 17.22 47.269 21.19c24.875 5.8761 51.136 5.3658 76.609 3.26 21.027-1.7384 43.644-2.5301 61.939-13.04 6.671-3.8322 15.485-17.115 15.485-17.115l-64.384-22.82-131.21 4.8899z" fill="#ff5527"/>
    <path d="m510.34 34.878-122.62 4.5625c5.0151 7.3746 13.37 18.411 20.75 22.312 12.81 6.7722 28.741 3.7889 43.188 4.9062 13.012 1.0064 26.168 3.1882 39.125 1.625 10.67-1.2872 21.409-4.0582 30.969-8.9688 5.5454-2.8486 12.981-8.869 18.656-13.781l-30.062-10.656z" fill="url(#g)"/>
    <path d="m375.85 52.768-0.8125 0.0312-5.6875 23.625s30.445 17.218 47.25 21.188c24.875 5.8761 51.153 5.3871 76.625 3.2812 21.027-1.7384 43.642-2.5528 61.938-13.062 6.671-3.8322 20.766-19.131 20.766-19.131l-1.8026-11.561c-2.133 2.2973-12.918 16.205-14.964 17.38-18.295 10.51-40.91 11.293-61.938 13.031-25.472 2.1059-51.75 2.6261-76.625-3.25-16.805-3.9697-47.25-21.188-47.25-21.188l2.5-10.344z" fill="#ff6749"/>
    <path d="m404.55 59.724 8.068 16.136h24.204l21.899 2.3051 8.068-9.2205h-20.746l-19.594-5.7628z" fill="#fff" opacity=".4181"/>
    <path d="m521.88 62.63-8.5298 15.482-18.298-1.149-16.903 1.2268-4.7105-9.4488 15.684 0.98491 15.681-4.7359z" fill="#fff" opacity=".4181"/>
   </g>
   <path d="m88.759 202.87s-8.1094 11.519-7.3349 17.93c0.44321 3.6683 5.9549 5.3133 6.5199 8.9649 0.52548 3.3959-2.9912 6.3541-3.26 9.7798-0.51703 6.5896 4.6471 13.097 3.26 19.56-1.0278 4.7884-9.8395 7.628-8.1499 12.225 1.3647 3.7126 9.0279 0.1021 11.41 3.2599 3.4355 4.5545-2.9992 12.262 0 17.115 2.2355 3.6171 7.5433 3.9353 11.41 5.7049 3.2113 1.4697 6.2957 4.6518 9.7798 4.0749 6.0763-1.0061 9.729-7.6519 13.855-12.225 4.6963-5.2054 9.7383-10.56 12.225-17.115 1.8408-4.8527-2.4586-12.288 1.63-15.485 9.2913-7.2654 23.256 4.5084 35.044 4.8899 7.3511 0.23789 14.735-0.51258 22.005-1.63 4.6893-0.72079 10.812 0.38052 13.855-3.2599 3.3145-3.9661-4.1469-14.037 0.81499-15.485 4.4868-1.3088 4.4423 8.564 8.1499 11.41 1.8412 1.4133 4.2361 2.0308 6.5199 2.445 3.7422 0.6786 7.6557-0.60922 11.41 0 7.6318 1.2385 14.308 8.0708 22.005 7.3349 4.9644-0.47464 8.0534-7.25 13.04-7.3349 8.2611-0.14061 13.834 10.181 22.005 11.41 6.007 0.90326 11.907-4.055 17.93-3.26 5.6622 0.74753 9.8377 6.48 15.485 7.3349 3.7986 0.57503 7.7344-2.7487 11.41-1.63 3.4965 1.0642 4.9522 5.5649 8.1499 7.3349 3.4606 1.9156 7.7456 1.7703 11.41 3.26 3.7157 1.5106 6.8993 7.2642 10.595 5.7049 1.8222-0.76885 0.87314-3.8777 1.63-5.7049 1.0703-2.584 1.3395-6.7516 4.0749-7.3349 3.9853-0.84985 6.2849 5.2396 9.7798 7.3349 3.8568 2.3122 7.8532 6.7588 12.225 5.7049 3.0112-0.72592 3.7168-4.9597 5.7049-7.3349 2.3459-2.8026 6.7956-4.535 7.3349-8.1499 0.66352-4.4476-5.4468-7.7354-5.7049-12.225-0.19727-3.4306 4.4522-6.557 3.26-9.7798-1.0992-2.9713-6.6882-2.0792-8.1499-4.8899-1.7592-3.3829 1.1861-7.615 0.81499-11.41-0.30143-3.0827-1.1165-6.1668-2.445-8.9649-1.0023-2.1111-2.26-4.2328-4.0749-5.7049-3.6847-2.9887-13.04-5.7049-13.04-5.7049z" fill="#d3e888"/>
   <path d="m227.38 251.14c7.5532 8.271 21.482 6.7813 32.599 8.1499 4.314 0.53108 8.7662-0.7935 13.04 0 7.4405 1.3815 13.647 8.758 21.19 8.1499 3.7618-0.3033 6.0078-5.5834 9.7798-5.7049 4.8571-0.15652 8.4925 4.8058 13.04 6.5199 4.9943 1.8826 10.176 4.6246 15.485 4.0749 3.6254-0.37533 7.1164-2.4019 9.7798-4.8899 3.9154-3.6576 4.0481-10.407 8.1499-13.855 1.7769-1.4934 6.5034-0.12394 6.5199-2.445 0.0477-6.7094-16.834-0.90315-18.745-7.3349-0.66552-2.2402 3.7703-3.3879 4.0749-5.7049 0.30259-2.3013-1.718-4.3156-2.445-6.5199-1.2388-3.7565-3.26-11.41-3.26-11.41h-83.944l-30.97-5.7049s-2.6379 27.539 5.7049 36.674z" fill="#a9d53a"/>
   <path d="m228.2 234.03s-16.87-0.59561-22.005 4.8899c-2.4418 2.6086-1.8328 7.0274-1.63 10.595 0.35168 6.1849 6.4799 11.942 4.8899 17.93-1.1833 4.4558-5.4964 8.0749-9.7798 9.7798-9.09 3.6182-20.102 2.4074-29.34-0.81498-1.2825-0.44739-2.0819-1.7689-3.26-2.445-4.8574-2.7877-9.899-6.1146-15.485-6.5199-7.5575-0.5483-14.954 8.4817-22.005 5.7049-3.2956-1.298-2.8664-6.8462-5.7049-8.9649-3.1699-2.3659-8.3054-0.80877-11.41-3.26-3.9141-3.0904-6.6358-8.102-7.3349-13.04-0.66509-4.6975 1.4748-9.459 3.26-13.855s7.3349-12.225 7.3349-12.225z" fill="#dee05c"/>
   <path d="m88.019 230.05c7.2113 3.1723 15.851-1.2151 23.635 0 7.0455 1.0998 13.315 5.5141 20.375 6.5199 20.178 2.8748 40.778-2.8384 61.124-1.63 11.237 0.66742 22.271 3.2971 33.414 4.8899 11.676 1.6689 23.284 5.7903 35.044 4.8899 11.312-0.86601 21.357-8.26 32.599-9.7798 11.848-1.6017 23.904 0.67915 35.859 0.81499 8.9643 0.10185 18.016 1.2434 26.895 0 7.8344-1.0973 14.91-6.3881 22.82-6.5199 3.3598-0.056 6.5783 3.4656 9.7798 2.445 7.1589-2.2821 12.129-10.043 14.67-17.115 4.8686-13.553 2.6256-29.211-0.815-43.194-3.6284-14.747-11.12-28.709-20.375-40.749-9.5006-12.36-21.099-24.001-35.044-30.97-8.4357-4.2152-18.712-2.8824-27.71-5.7049-7.8963-2.477-14.783-7.806-22.82-9.7798-10.319-2.5344-21.166-2.0372-31.784-2.445-11.401-0.43786-22.82 0.11409-34.229 0-13.585-0.13583-27.273-2.5369-40.749-0.81498-8.9576 1.1446-17.327 5.111-26.08 7.3349-11.88 3.0187-25.128 2.2254-35.859 8.1499-11.772 6.499-20 18.126-28.525 28.525-8.0728 9.8473-16.284 20.034-21.19 31.784-3.6334 8.7022-4.7492 18.328-5.7049 27.71-0.82598 8.1079-1.8725 16.518 0 24.45 0.97695 4.1384 3.2941 7.9071 5.7049 11.41 2.5072 3.6429 4.9169 7.9991 8.9649 9.7798z" fill="url(#s)"/>
   <path d="m88.019 230.05c7.2113 3.1723 15.851-1.2151 23.635 0 7.0455 1.0998 13.315 5.5141 20.375 6.5199 20.178 2.8748 40.778-2.8384 61.124-1.63 11.237 0.66742 22.271 3.2971 33.414 4.8899 11.676 1.6689 23.284 5.7903 35.044 4.8899 11.312-0.86601 21.357-8.26 32.599-9.7798 11.848-1.6017 23.904 0.67915 35.859 0.81499 8.9643 0.10185 18.016 1.2434 26.895 0 7.8344-1.0973 14.91-6.3881 22.82-6.5199 3.3598-0.056 6.5783 3.4656 9.7798 2.445 7.1589-2.2821 12.129-10.043 14.67-17.115 4.8686-13.553 2.6256-29.211-0.815-43.194-3.6284-14.747-11.12-28.709-20.375-40.749-9.5006-12.36-21.099-24.001-35.044-30.97-8.4357-4.2152-18.712-2.8824-27.71-5.7049-7.8963-2.477-14.783-7.806-22.82-9.7798-10.319-2.5344-21.166-2.0372-31.784-2.445-11.401-0.43786-22.82 0.11409-34.229 0-13.585-0.13583-27.273-2.5369-40.749-0.81498-8.9576 1.1446-17.327 5.111-26.08 7.3349-11.88 3.0187-25.128 2.2254-35.859 8.1499-11.772 6.499-20 18.126-28.525 28.525-8.0728 9.8473-16.284 20.034-21.19 31.784-3.6334 8.7022-4.7492 18.328-5.7049 27.71-0.82598 8.1079-1.8725 16.518 0 24.45 0.97695 4.1384 3.2941 7.9071 5.7049 11.41 2.5072 3.6429 4.9169 7.9991 8.9649 9.7798z" fill="url(#f)"/>
   <path d="m75.867 168.75c-1.0728 5.2591-1.7086 10.654-2.25 15.969-0.82598 8.1079-1.8725 16.506 0 24.438 0.97695 4.1384 3.308 7.9035 5.7188 11.406 2.5072 3.6429 4.9208 8.0005 8.9688 9.7812 7.2113 3.1723 15.841-1.2151 23.625 0 7.0455 1.0998 13.315 5.5254 20.375 6.5312 20.178 2.8748 40.779-2.8647 61.125-1.6562 11.237 0.66742 22.263 3.3134 33.406 4.9062 11.676 1.6689 23.302 5.7753 35.062 4.875 11.312-0.86601 21.351-8.2614 32.594-9.7812 11.848-1.6017 23.888 0.70791 35.844 0.84375 8.9643 0.10185 18.028 1.2434 26.906 0 7.8345-1.0973 14.903-6.3994 22.812-6.5312 3.3598-0.056 6.5797 3.4581 9.7812 2.4375 7.1589-2.2821 12.147-10.054 14.688-17.125 3.0254-8.4218 3.2978-17.64 2.25-26.781-2.7446 6.2974-7.3494 12.552-13.656 14.562-3.2015 1.0206-6.4214-2.4935-9.7812-2.4375-7.9098 0.1318-15.009 5.434-22.844 6.5312-8.8782 1.2434-17.911 0.10185-26.875 0-11.955-0.13584-24.027-2.4142-35.875-0.8125-11.243 1.5198-21.282 8.9152-32.594 9.7812-11.76 0.90033-23.355-3.2373-35.031-4.9062-11.144-1.5928-22.201-4.2076-33.438-4.875-20.346-1.2084-40.947 4.4998-61.125 1.625-7.0595-1.0058-13.33-5.4314-20.375-6.5312-7.7839-1.2151-16.414 3.1723-23.625 0-4.048-1.7807-6.4615-6.1383-8.9688-9.7812-2.4108-3.5028-4.7106-7.2678-5.6875-11.406-0.85265-3.6119-1.0927-7.326-1.0312-11.062z" fill="url(#r)"/>
   <path d="m81.838 170.73c-1.0238-19.405 15.292-37.433 30.255-49.832 11.708-9.7019 28.055-11.971 42.713-16.017 19.18-5.2941 39.051-7.7346 58.73-10.678 20.086-3.0044 41.042-12.903 60.51-7.1188 13.324 3.9589 28.479 13.258 32.035 26.695 3.8892 14.7-8.124 29.716-16.017 42.713-8.2859 13.643-17.383 29.259-32.035 35.594-25.053 10.833-54.771-5.0774-81.866-1.7797-22.571 2.7471-44.323 25.119-65.849 17.797-14.827-5.0436-27.65-21.734-28.475-37.374z" fill="url(#e)" filter="url(#af)"/>
   <g transform="matrix(.52684 0 0 .52684 65.879 302.98)" fill="#fffcfa">
    <path d="m263.58-248.66c1.3862 2.5586 2.8476 9.5062 1.0086 10.503s-6.2818-4.3358-7.6681-6.8944 0.0726-5.8447 0.81972-6.4368c1.123-0.88997 4.4535 0.27005 5.8398 2.8286z"/>
    <path d="m231.46-220.32c-1.5496 2.4631-6.887 7.1446-8.6573 6.0309s0.69672-7.601 2.2463-10.064 5.1288-2.8038 6.0112-2.4432c1.3264 0.54207 1.9494 4.0134 0.3998 6.4765z"/>
    <path d="m60.253-225.24c1.6418 2.4026 3.8092 9.1633 2.0823 10.343s-6.6941-3.6674-8.3359-6.07-0.52831-5.8212 0.15403-6.487c1.0257-1.0006 4.4577-0.18896 6.0995 2.2136z"/>
    <path d="m58.686-268.64c-1.4098 2.5456-6.478 7.5174-8.3077 6.5041s0.27194-7.628 1.6818-10.174 4.9645-3.0854 5.8657-2.7745c1.3546 0.46728 2.17 3.8984 0.76019 6.4441z"/>
    <path d="m217.63-295.29c1.59 2.4372 3.6121 9.2428 1.8603 10.386s-6.614-3.8099-8.204-6.2472-0.4035-5.8312 0.29294-6.4822c1.0469-0.97845 4.4607-0.0934 6.0507 2.3438z"/>
    <path d="m304.96-239.33c1.976 2.1362 5.1104 8.5064 3.5751 9.9267s-7.1591-2.6472-9.1352-4.7834-1.3754-5.681-0.79791-6.4395c0.86801-1.1401 4.382-0.83994 6.358 1.2962z"/>
    <path d="m136.02-224.43c-1.96 2.1509-8.0398 5.8169-9.5858 4.4082s2.0274-7.3587 3.9873-9.5096 5.5432-1.8546 6.3481-1.3439c1.2099 0.76768 1.2104 4.2944-0.74958 6.4453z"/>
    <path d="m137.92-308.59c1.96 2.1509 5.0465 8.5445 3.5005 9.9532s-7.139-2.7008-9.099-4.8518-1.3327-5.6912-0.74959-6.4453c0.87654-1.1336 4.3881-0.80705 6.3481 1.3439z"/>
    <path d="m231.43-257.42c-1.7629 2.3152-7.4963 6.5024-9.1604 5.2353s1.3714-7.5086 3.1343-9.8238 5.3583-2.3356 6.2051-1.8978c1.2728 0.65813 1.5839 4.1711-0.17902 6.4863z"/>
    <path d="m142.49-263.35c-2.0591 2.0562-8.3049 5.4318-9.7828 3.9518s2.3717-7.255 4.4308-9.3113 5.6243-1.5915 6.4043-1.0434c1.1724 0.82381 1.0068 4.3466-1.0523 6.4029z"/>
    <path d="m175.21-250.48c1.6137 2.4216 3.7022 9.207 1.9617 10.367s-6.6509-3.7452-8.2646-6.1667-0.46045-5.827 0.2296-6.4847c1.0372-0.98863 4.4596-0.13701 6.0733 2.2846z"/>
    <path d="m184.2-288.87c-1.4946 2.4968-6.727 7.2955-8.5216 6.2212s0.52813-7.6146 2.0227-10.111 5.0654-2.9168 5.9556-2.5758c1.3381 0.51254 2.0378 3.9692 0.5432 6.466z"/>
   </g>
   <g transform="matrix(.52684 0 0 .52684 86.253 263.05)" fill="#fffcfa">
    <path d="m263.58-248.66c1.3862 2.5586 2.8476 9.5062 1.0086 10.503s-6.2818-4.3358-7.6681-6.8944 0.0726-5.8447 0.81972-6.4368c1.123-0.88997 4.4535 0.27005 5.8398 2.8286z"/>
    <path d="m231.46-220.32c-1.5496 2.4631-6.887 7.1446-8.6573 6.0309s0.69672-7.601 2.2463-10.064 5.1288-2.8038 6.0112-2.4432c1.3264 0.54207 1.9494 4.0134 0.3998 6.4765z"/>
    <path d="m60.253-225.24c1.6418 2.4026 3.8092 9.1633 2.0823 10.343s-6.6941-3.6674-8.3359-6.07-0.52831-5.8212 0.15403-6.487c1.0257-1.0006 4.4577-0.18896 6.0995 2.2136z"/>
    <path d="m58.686-268.64c-1.4098 2.5456-6.478 7.5174-8.3077 6.5041s0.27194-7.628 1.6818-10.174 4.9645-3.0854 5.8657-2.7745c1.3546 0.46728 2.17 3.8984 0.76019 6.4441z"/>
    <path d="m217.63-295.29c1.59 2.4372 3.6121 9.2428 1.8603 10.386s-6.614-3.8099-8.204-6.2472-0.4035-5.8312 0.29294-6.4822c1.0469-0.97845 4.4607-0.0934 6.0507 2.3438z"/>
    <path d="m304.96-239.33c1.976 2.1362 5.1104 8.5064 3.5751 9.9267s-7.1591-2.6472-9.1352-4.7834-1.3754-5.681-0.79791-6.4395c0.86801-1.1401 4.382-0.83994 6.358 1.2962z"/>
    <path d="m136.02-224.43c-1.96 2.1509-8.0398 5.8169-9.5858 4.4082s2.0274-7.3587 3.9873-9.5096 5.5432-1.8546 6.3481-1.3439c1.2099 0.76768 1.2104 4.2944-0.74958 6.4453z"/>
    <path d="m137.92-308.59c1.96 2.1509 5.0465 8.5445 3.5005 9.9532s-7.139-2.7008-9.099-4.8518-1.3327-5.6912-0.74959-6.4453c0.87654-1.1336 4.3881-0.80705 6.3481 1.3439z"/>
    <path d="m231.43-257.42c-1.7629 2.3152-7.4963 6.5024-9.1604 5.2353s1.3714-7.5086 3.1343-9.8238 5.3583-2.3356 6.2051-1.8978c1.2728 0.65813 1.5839 4.1711-0.17902 6.4863z"/>
    <path d="m142.49-263.35c-2.0591 2.0562-8.3049 5.4318-9.7828 3.9518s2.3717-7.255 4.4308-9.3113 5.6243-1.5915 6.4043-1.0434c1.1724 0.82381 1.0068 4.3466-1.0523 6.4029z"/>
    <path d="m175.21-250.48c1.6137 2.4216 3.7022 9.207 1.9617 10.367s-6.6509-3.7452-8.2646-6.1667-0.46045-5.827 0.2296-6.4847c1.0372-0.98863 4.4596-0.13701 6.0733 2.2846z"/>
    <path d="m184.2-288.87c-1.4946 2.4968-6.727 7.2955-8.5216 6.2212s0.52813-7.6146 2.0227-10.111 5.0654-2.9168 5.9556-2.5758c1.3381 0.51254 2.0378 3.9692 0.5432 6.466z"/>
   </g>
   <g transform="matrix(-.52684 0 0 .52684 424.33 308.69)" fill="#fffcfa">
    <path d="m263.58-248.66c1.3862 2.5586 2.8476 9.5062 1.0086 10.503s-6.2818-4.3358-7.6681-6.8944 0.0726-5.8447 0.81972-6.4368c1.123-0.88997 4.4535 0.27005 5.8398 2.8286z"/>
    <path d="m231.46-220.32c-1.5496 2.4631-6.887 7.1446-8.6573 6.0309s0.69672-7.601 2.2463-10.064 5.1288-2.8038 6.0112-2.4432c1.3264 0.54207 1.9494 4.0134 0.3998 6.4765z"/>
    <path d="m60.253-225.24c1.6418 2.4026 3.8092 9.1633 2.0823 10.343s-6.6941-3.6674-8.3359-6.07-0.52831-5.8212 0.15403-6.487c1.0257-1.0006 4.4577-0.18896 6.0995 2.2136z"/>
    <path d="m58.686-268.64c-1.4098 2.5456-6.478 7.5174-8.3077 6.5041s0.27194-7.628 1.6818-10.174 4.9645-3.0854 5.8657-2.7745c1.3546 0.46728 2.17 3.8984 0.76019 6.4441z"/>
    <path d="m217.63-295.29c1.59 2.4372 3.6121 9.2428 1.8603 10.386s-6.614-3.8099-8.204-6.2472-0.4035-5.8312 0.29294-6.4822c1.0469-0.97845 4.4607-0.0934 6.0507 2.3438z"/>
    <path d="m304.96-239.33c1.976 2.1362 5.1104 8.5064 3.5751 9.9267s-7.1591-2.6472-9.1352-4.7834-1.3754-5.681-0.79791-6.4395c0.86801-1.1401 4.382-0.83994 6.358 1.2962z"/>
    <path d="m136.02-224.43c-1.96 2.1509-8.0398 5.8169-9.5858 4.4082s2.0274-7.3587 3.9873-9.5096 5.5432-1.8546 6.3481-1.3439c1.2099 0.76768 1.2104 4.2944-0.74958 6.4453z"/>
    <path d="m137.92-308.59c1.96 2.1509 5.0465 8.5445 3.5005 9.9532s-7.139-2.7008-9.099-4.8518-1.3327-5.6912-0.74959-6.4453c0.87654-1.1336 4.3881-0.80705 6.3481 1.3439z"/>
    <path d="m231.43-257.42c-1.7629 2.3152-7.4963 6.5024-9.1604 5.2353s1.3714-7.5086 3.1343-9.8238 5.3583-2.3356 6.2051-1.8978c1.2728 0.65813 1.5839 4.1711-0.17902 6.4863z"/>
    <path d="m142.49-263.35c-2.0591 2.0562-8.3049 5.4318-9.7828 3.9518s2.3717-7.255 4.4308-9.3113 5.6243-1.5915 6.4043-1.0434c1.1724 0.82381 1.0068 4.3466-1.0523 6.4029z"/>
    <path d="m175.21-250.48c1.6137 2.4216 3.7022 9.207 1.9617 10.367s-6.6509-3.7452-8.2646-6.1667-0.46045-5.827 0.2296-6.4847c1.0372-0.98863 4.4596-0.13701 6.0733 2.2846z"/>
    <path d="m184.2-288.87c-1.4946 2.4968-6.727 7.2955-8.5216 6.2212s0.52813-7.6146 2.0227-10.111 5.0654-2.9168 5.9556-2.5758c1.3381 0.51254 2.0378 3.9692 0.5432 6.466z"/>
   </g>
   <path d="m283.02 124.71c-0.73034 1.348-1.5002 5.0082-0.53136 5.5332s3.3095-2.2843 4.0399-3.6322-0.0383-3.0792-0.43187-3.3912c-0.59165-0.46888-2.3463 0.14227-3.0766 1.4902z" fill="#fffcfa"/>
   <path d="m299.94 139.64c0.81637 1.2977 3.6283 3.7641 4.561 3.1773s-0.36706-4.0045-1.1834-5.3022-2.702-1.4772-3.167-1.2872c-0.69884 0.28559-1.027 2.1144-0.21064 3.4121z" fill="#fffcfa"/>
   <path d="m307.23 100.14c-0.83767 1.284-1.903 4.8695-0.98009 5.4715s3.4845-2.0072 4.3222-3.2913 0.21258-3.0721-0.15433-3.4151c-0.55154-0.51548-2.3501-0.0492-3.1878 1.2348z" fill="#fffcfa"/>
   <path d="m261.22 129.63c-1.041 1.1254-2.6924 4.4815-1.8835 5.2298s3.7717-1.3947 4.8128-2.5201 0.7246-2.993 0.42038-3.3926c-0.45731-0.60065-2.3086-0.44251-3.3497 0.68291z" fill="#fffcfa"/>
   <path d="m350.22 137.47c1.0326 1.1332 4.2358 3.0646 5.0502 2.3224s-1.0681-3.8769-2.1007-5.0101-2.9204-0.97707-3.3445-0.70801c-0.63744 0.40444-0.63767 2.2625 0.39491 3.3957z" fill="#fffcfa"/>
   <g transform="matrix(-1 0 0 1 530.89 396.03)" fill="#fffcfa">
    <path d="m315.16-263.99c-0.86497 1.2658-2.0068 4.8276-1.0971 5.4493s3.5267-1.9321 4.3917-3.1979 0.27833-3.0669-0.0812-3.4176c-0.54036-0.52718-2.3485-0.0995-3.2135 1.1662z"/>
    <path d="m315.99-286.85c0.74276 1.3412 3.4129 3.9605 4.3768 3.4266s-0.14328-4.0188-0.88604-5.3599-2.6155-1.6255-3.0903-1.4617c-0.71366 0.24618-1.1433 2.0539-0.4005 3.395z"/>
    <path d="m274.24-307.9c-1.0326 1.1332-2.6587 4.5016-1.8442 5.2438s3.7611-1.4229 4.7937-2.5561 0.70214-2.9984 0.39492-3.3957c-0.4618-0.59721-2.3118-0.42519-3.3444 0.70801z"/>
   </g>
   <path d="m299.95 120.1c0.92878 1.2197 3.9494 3.4257 4.8261 2.7582s-0.72251-3.9559-1.6513-5.1756-2.823-1.2305-3.2691-0.99982c-0.6706 0.34673-0.83447 2.1975 0.0943 3.4173z" fill="#fffcfa"/>
   <path d="m346.81 116.97c1.0848 1.0833 4.3754 2.8617 5.154 2.082s-1.2495-3.8223-2.3343-4.9056-2.9631-0.83846-3.3741-0.54972c-0.61769 0.43402-0.53042 2.29 0.5544 3.3733z" fill="#fffcfa"/>
   <path d="m329.57 123.75c-0.85015 1.2758-1.9504 4.8506-1.0335 5.4617s3.504-1.9731 4.3541-3.2489 0.24258-3.0699-0.12097-3.4164c-0.54647-0.52086-2.3495-0.0722-3.1997 1.2036z" fill="#fffcfa"/>
   <path d="m324.84 103.52c0.78742 1.3154 3.544 3.8436 4.4895 3.2776s-0.27824-4.0117-1.0657-5.3271-2.6687-1.5367-3.1377-1.357c-0.70498 0.27003-1.0736 2.0911-0.28618 3.4066z" fill="#fffcfa"/>
   <g transform="matrix(.36801 .377 .377 -.36801 284.54 -11.602)" fill="#fffcfa">
    <path d="m263.58-248.66c1.3862 2.5586 2.8476 9.5062 1.0086 10.503s-6.2818-4.3358-7.6681-6.8944 0.0726-5.8447 0.81972-6.4368c1.123-0.88997 4.4535 0.27005 5.8398 2.8286z"/>
    <path d="m231.46-220.32c-1.5496 2.4631-6.887 7.1446-8.6573 6.0309s0.69672-7.601 2.2463-10.064 5.1288-2.8038 6.0112-2.4432c1.3264 0.54207 1.9494 4.0134 0.3998 6.4765z"/>
    <path d="m60.253-225.24c1.6418 2.4026 3.8092 9.1633 2.0823 10.343s-6.6941-3.6674-8.3359-6.07-0.52831-5.8212 0.15403-6.487c1.0257-1.0006 4.4577-0.18896 6.0995 2.2136z"/>
    <path d="m58.686-268.64c-1.4098 2.5456-6.478 7.5174-8.3077 6.5041s0.27194-7.628 1.6818-10.174 4.9645-3.0854 5.8657-2.7745c1.3546 0.46728 2.17 3.8984 0.76019 6.4441z"/>
    <path d="m217.63-295.29c1.59 2.4372 3.6121 9.2428 1.8603 10.386s-6.614-3.8099-8.204-6.2472-0.4035-5.8312 0.29294-6.4822c1.0469-0.97845 4.4607-0.0934 6.0507 2.3438z"/>
    <path d="m304.96-239.33c1.976 2.1362 5.1104 8.5064 3.5751 9.9267s-7.1591-2.6472-9.1352-4.7834-1.3754-5.681-0.79791-6.4395c0.86801-1.1401 4.382-0.83994 6.358 1.2962z"/>
    <path d="m136.02-224.43c-1.96 2.1509-8.0398 5.8169-9.5858 4.4082s2.0274-7.3587 3.9873-9.5096 5.5432-1.8546 6.3481-1.3439c1.2099 0.76768 1.2104 4.2944-0.74958 6.4453z"/>
    <path d="m137.92-308.59c1.96 2.1509 5.0465 8.5445 3.5005 9.9532s-7.139-2.7008-9.099-4.8518-1.3327-5.6912-0.74959-6.4453c0.87654-1.1336 4.3881-0.80705 6.3481 1.3439z"/>
    <path d="m231.43-257.42c-1.7629 2.3152-7.4963 6.5024-9.1604 5.2353s1.3714-7.5086 3.1343-9.8238 5.3583-2.3356 6.2051-1.8978c1.2728 0.65813 1.5839 4.1711-0.17902 6.4863z"/>
    <path d="m142.49-263.35c-2.0591 2.0562-8.3049 5.4318-9.7828 3.9518s2.3717-7.255 4.4308-9.3113 5.6243-1.5915 6.4043-1.0434c1.1724 0.82381 1.0068 4.3466-1.0523 6.4029z"/>
    <path d="m175.21-250.48c1.6137 2.4216 3.7022 9.207 1.9617 10.367s-6.6509-3.7452-8.2646-6.1667-0.46045-5.827 0.2296-6.4847c1.0372-0.98863 4.4596-0.13701 6.0733 2.2846z"/>
    <path d="m184.2-288.87c-1.4946 2.4968-6.727 7.2955-8.5216 6.2212s0.52813-7.6146 2.0227-10.111 5.0654-2.9168 5.9556-2.5758c1.3381 0.51254 2.0378 3.9692 0.5432 6.466z"/>
   </g>
  </g>
  <path d="m293.49 265.08s36.751 13.307 55.903 16.663c21.567 3.7799 65.579 3.7627 65.579 3.7627l-4.8378 33.327-100.52-23.114z" fill="url(#q)"/>
  <path d="m414.82 285.59s2.497-3.8897 10.134-8.1793c10.15-5.7008 27.023-11.819 34.632-18.247 11.64-9.8334 30.102-34.402 30.102-34.402l-11.826 43.002-67.886 51.152z" fill="url(#p)"/>
  <path d="m404.42 98.207 11.403 31.168 98.824 5.3213 3.8009-26.606-9.1222-18.244 6.8416-0.76018-12.923-9.1222-59.294-6.8416-41.81 3.8009-3.8009 5.3213 7.6018 3.0407z" fill="url(#o)"/>
  <path d="m483.76 219.12 6.0815 6.8416 19.005-47.131 7.6018-34.208 0.76019-35.729-3.0407 19.765z" fill="#970000"/>
 </g>
</svg>