<?xml version="1.0" encoding="UTF-8" standalone="no"?>
<svg
   xmlns:dc="http://purl.org/dc/elements/1.1/"
   xmlns:cc="http://creativecommons.org/ns#"
   xmlns:rdf="http://www.w3.org/1999/02/22-rdf-syntax-ns#"
   xmlns:svg="http://www.w3.org/2000/svg"
   xmlns="http://www.w3.org/2000/svg"
   xmlns:sodipodi="http://sodipodi.sourceforge.net/DTD/sodipodi-0.dtd"
   xmlns:inkscape="http://www.inkscape.org/namespaces/inkscape"
   width="674.42023"
   height="536.55084"
   version="1.1"
   viewBox="0 0 674.42024 536.55085"
   id="svg46"
   sodipodi:docname="transparenz-linux.svg"
   inkscape:version="0.92.4 (unknown)">
  <metadata
     id="metadata50">
    <rdf:RDF>
      <cc:Work
         rdf:about="">
        <dc:format>image/svg+xml</dc:format>
        <dc:type
           rdf:resource="http://purl.org/dc/dcmitype/StillImage" />
        <dc:title></dc:title>
      </cc:Work>
    </rdf:RDF>
  </metadata>
  <sodipodi:namedview
     pagecolor="#ffffff"
     bordercolor="#666666"
     borderopacity="1"
     objecttolerance="10"
     gridtolerance="10"
     guidetolerance="10"
     inkscape:pageopacity="0"
     inkscape:pageshadow="2"
     inkscape:window-width="1900"
     inkscape:window-height="1035"
     id="namedview48"
     showgrid="false"
     fit-margin-top="0"
     fit-margin-left="0"
     fit-margin-right="0"
     fit-margin-bottom="0"
     inkscape:zoom="0.4609375"
     inkscape:cx="303.58298"
     inkscape:cy="268.27541"
     inkscape:window-x="10"
     inkscape:window-y="35"
     inkscape:window-maximized="0"
     inkscape:current-layer="svg46" />
  <defs
     id="defs12">
    <linearGradient
       id="c"
       x1="-163.06"
       x2="-192.62"
       y1="973.87"
       y2="870.59998"
       gradientUnits="userSpaceOnUse"
       gradientTransform="matrix(0.79410373,-0.07845701,-0.07130238,0.9193101,-9.8500882,22.122517)">
      <stop
         stop-color="#e33a4b"
         offset="0"
         id="stop2" />
      <stop
         stop-color="#d22436"
         stop-opacity=".54902"
         offset="1"
         id="stop4" />
    </linearGradient>
    <linearGradient
       id="d"
       x1="284.75"
       x2="119.19"
       y1="974.63"
       y2="810.63"
       gradientUnits="userSpaceOnUse"
       gradientTransform="matrix(0.75917061,0,0,0.95424322,0,24.725122)">
      <stop
         stop-color="#6f0102"
         offset="0"
         id="stop7" />
      <stop
         stop-color="#6f0102"
         stop-opacity="0"
         offset="1"
         id="stop9" />
    </linearGradient>
  </defs>
  <g
     transform="matrix(1.317227,0,0,1.0479509,0,-566.27071)"
     id="g44"
     style="stroke-width:0.85113657">
    <rect
       y="540.35999"
       width="512"
       height="512"
       id="rect14"
       x="0"
       style="fill:#212121;stroke-width:0.85113657" />
    <path
       d="m 258,896.36 a 242,190 0 0 0 -234.49,144 H 492.56 A 242,190 0 0 0 258,896.36 Z"
       id="path16"
       inkscape:connector-curvature="0"
       style="fill:#ffffff;stroke-width:0.85113657" />
    <path
       d="m 110.78,827.51 c 24.815,131.56 99.003,206.72 234.52,186.09 -41.298,-75.189 -0.79079,-112.11 25.704,-160.93 L 294.569,735.45 c -41.755,45.671 -72.444,93.709 -183.79,92.056 z"
       id="path18"
       inkscape:connector-curvature="0"
       style="fill:#212121;stroke-width:0.85113657" />
    <path
       d="m 118.78,826.09 c 27.365,121.03 87.203,195.84 212.36,177.7 -38.759,-70.566 7.0006,-108.26 31.866,-154.09 L 291.271,739.69 c -39.188,42.863 -67.99,87.947 -172.49,86.396 z"
       id="path20"
       inkscape:connector-curvature="0"
       style="fill:#ffb928;stroke-width:0.85113657" />
    <ellipse
       cx="317"
       cy="678.09003"
       rx="76"
       ry="109"
       id="ellipse22"
       style="fill:#ffffff;stroke-width:0.85113657" />
    <path
       d="m 135.75,833.16 c 33.944,116.09 68.819,171.09 179.83,163.56 -38.759,-70.566 11.243,-109.68 36.109,-155.5 l -59.007,-90.214 c -39.188,42.863 -52.434,83.705 -156.94,82.153 z"
       id="path24"
       inkscape:connector-curvature="0"
       style="fill:#212121;stroke-width:0.85113657" />
    <path
       d="m 143.75,834.66 c 36.337,113.3 58.175,158.34 163.83,157.06 -38.759,-70.566 12.743,-107.18 37.609,-153 l -58.507,-93.214 c -39.188,42.863 -38.434,90.705 -142.94,89.153 z"
       id="path26"
       inkscape:connector-curvature="0"
       style="fill:url(#d);stroke-width:0.85113657" />
    <circle
       cx="320.14999"
       cy="678.91998"
       r="39.598"
       id="circle28"
       style="fill:#212121;stroke-width:0.85113657" />
    <ellipse
       cx="193.14"
       cy="717.69"
       rx="103.06"
       ry="119.04"
       id="ellipse30"
       style="fill:#212121;stroke-width:0.85113657" />
    <ellipse
       cx="183.14"
       cy="719.69"
       rx="103.06"
       ry="119.04"
       id="ellipse32"
       style="fill:#ffffff;stroke-width:0.85113657" />
    <path
       d="m 88.984,820.59 c 130.92,81.547 262.63,83.232 392.9,64.739 l -190.95,-160.64 c -45.539,49.809 -80.509,97.701 -201.95,95.898 z"
       id="path34"
       inkscape:connector-curvature="0"
       style="fill:#212121;stroke-width:0.85113657" />
    <path
       d="m 118.78,826.09 c 110.65,64.157 223.52,64.168 336.81,51.838 L 291.27,739.698 c -39.188,42.863 -67.99,87.947 -172.49,86.396 z"
       id="path36"
       inkscape:connector-curvature="0"
       style="fill:#ffb928;stroke-width:0.85113657" />
    <path
       transform="matrix(0.89327,-0.44951,0.39773,0.9175,0,0)"
       d="m -132.06,935.08 c 7.5692,37.968 -9.3562,51.044 -26.943,51.044 -17.587,10e-6 -35.356,-27.15 -36.744,-51.044 -2.6139,-45.008 -13.374,-57.821 -3.0922,-72.844 9.6787,-14.141 59.21,34.876 66.779,72.844 z"
       id="path38"
       inkscape:connector-curvature="0"
       style="fill:url(#c);stroke-width:0.85113657" />
    <path
       d="m 225.31,927.2 c 9.9747,13.581 15.608,16.862 8.6089,21.114 -6.9994,4.2524 -5.8132,-7.9795 -17.062,-20.063 -11.249,-12.084 -57.426,-42.507 -51.887,-50.949 5.5389,-8.442 50.366,36.317 60.34,49.898 z"
       id="path40"
       inkscape:connector-curvature="0"
       style="fill:#750a16;fill-opacity:0.54901997;stroke-width:0.85113657" />
    <circle
       cx="188.97"
       cy="704.54999"
       r="39.598"
       id="circle42"
       style="fill:#212121;stroke-width:0.85113657" />
  </g>
</svg>
